SplineFontDB: 3.2
FontName: Waree-Oblique
FullName: Waree Oblique
FamilyName: Waree
Weight: Regular
Copyright: Copyright (c) 2003 by Bitstream, Inc. All Rights Reserved.\n\nTLWG changes are in public domain.
Version: 001.002
ItalicAngle: -11
UnderlinePosition: -170
UnderlineWidth: 20
Ascent: 1638
Descent: 410
InvalidEm: 0
LayerCount: 3
Layer: 0 0 "Back" 1
Layer: 1 0 "Fore" 0
Layer: 2 1 "Quad" 0
FSType: 0
OS2Version: 4
OS2_WeightWidthSlopeOnly: 0
OS2_UseTypoMetrics: 1
CreationTime: 1153662374
ModificationTime: 1588062646
PfmFamily: 33
TTFWeight: 400
TTFWidth: 5
LineGap: 0
VLineGap: 0
Panose: 2 11 5 4 2 2 2 2 2 4
OS2TypoAscent: 2543
OS2TypoAOffset: 0
OS2TypoDescent: -882
OS2TypoDOffset: 0
OS2TypoLinegap: 0
OS2WinAscent: 0
OS2WinAOffset: 1
OS2WinDescent: 0
OS2WinDOffset: 1
HheadAscent: 0
HheadAOffset: 1
HheadDescent: 0
HheadDOffset: 1
OS2SubXSize: 1331
OS2SubYSize: 1433
OS2SubXOff: -219
OS2SubYOff: 286
OS2SupXSize: 1331
OS2SupYSize: 1433
OS2SupXOff: 753
OS2SupYOff: 983
OS2StrikeYSize: 102
OS2StrikeYPos: 530
OS2Vendor: 'PfEd'
Lookup: 4 0 1 "'liga' Standard Ligatures in Latin lookup 0" { "'liga' Standard Ligatures in Latin lookup 0"  } ['liga' ('latn' <'dflt' > ) ]
Lookup: 4 0 0 "'frac' Diagonal Fractions in Latin lookup 42" { "'frac' Diagonal Fractions in Latin lookup 42"  } ['frac' ('latn' <'dflt' > ) ]
Lookup: 6 0 0 "'ccmp' Thai Tone Tilde Reordering" { "'ccmp' Thai Tone Tilde Reordering"  } ['ccmp' ('DFLT' <'dflt' > 'latn' <'dflt' > 'thai' <'KUY ' 'MLY ' 'PAL ' 'SAN ' 'THA ' 'dflt' > ) ]
Lookup: 6 0 0 "'ccmp' Thai Tone Macron Reordering" { "'ccmp' Thai Tone Macron Reordering"  } ['ccmp' ('DFLT' <'dflt' > 'latn' <'dflt' > 'thai' <'KUY ' 'MLY ' 'PAL ' 'SAN ' 'THA ' 'dflt' > ) ]
Lookup: 6 0 0 "'ccmp' Thai Below Vowel Macron Reordering" { "'ccmp' Thai Below Vowel Macron Reordering"  } ['ccmp' ('DFLT' <'dflt' > 'latn' <'dflt' > 'thai' <'KUY ' 'MLY ' 'PAL ' 'SAN ' 'THA ' 'dflt' > ) ]

StartChar: .notdef
Encoding: 65536 -1 0
Width: 1229
Flags: W
HStem: -362 114<169 964> 1329 115<475 1270>
DStem2: 32 -362 146.841 -362 0.190809 0.981627<138.046 1744.46> 941.841 -362 1056 -362 0.190809 0.981627<116.134 1722.55>
LayerCount: 3
Fore
SplineSet
32 -362 m 1
 383 1444 l 1
 1407 1444 l 1
 1056 -362 l 1
 32 -362 l 1
169 -248 m 1
 964 -248 l 1
 1270 1329 l 1
 475 1329 l 1
 169 -248 l 1
EndSplineSet
Validated: 1
Layer: 2
SplineSet
32 -362 m 1,0,-1
 383 1444 l 1,1,-1
 1407 1444 l 1,2,-1
 1056 -362 l 1,3,-1
 32 -362 l 1,0,-1
169 -248 m 1,4,-1
 964 -248 l 1,5,-1
 1270 1329 l 1,6,-1
 475 1329 l 1,7,-1
 169 -248 l 1,4,-1
EndSplineSet
EndChar

StartChar: uni0E4D.high
Encoding: 63262 63262 2
Width: 0
VWidth: 2561
Flags: W
HStem: 1881 102<-48.7287 91.7412> 2139 103<-36.2774 106.816>
VStem: -155 102<1987.65 2122.16> 110 102<2002.48 2136.11>
AnchorPoint: "AboveMark" 124 2512 basemark 0
AnchorPoint: "AboveMark" -5 1848 mark 0
LayerCount: 3
Fore
SplineSet
-155 2026 m 0
 -155 2138 -49 2242 66 2242 c 16
 156 2242 212 2177 212 2096 c 0
 212 1981 107 1881 -4 1881 c 0
 -94 1881 -155 1943 -155 2026 c 0
44 2139 m 0
 -14 2139 -53 2087 -53 2048 c 0
 -53 2013 -26 1983 13 1983 c 0
 53 1983 110 2021 110 2078 c 0
 110 2115 82 2139 44 2139 c 0
EndSplineSet
Validated: 1
Layer: 2
SplineSet
-155 2026 m 0,0,1
 -155 2110 -155 2110 -87.5 2176 c 128,-1,2
 -20 2242 -20 2242 66 2242 c 0,3,4
 132 2242 132 2242 172 2200 c 128,-1,5
 212 2158 212 2158 212 2096 c 0,6,7
 212 2011 212 2011 146 1946 c 128,-1,8
 80 1881 80 1881 -4 1881 c 0,9,10
 -71 1881 -71 1881 -113 1922 c 128,-1,11
 -155 1963 -155 1963 -155 2026 c 0,0,1
44 2139 m 0,12,13
 3 2139 3 2139 -25 2109.5 c 128,-1,14
 -53 2080 -53 2080 -53 2048 c 0,15,16
 -53 2021 -53 2021 -34.5 2002 c 128,-1,17
 -16 1983 -16 1983 13 1983 c 0,18,19
 46 1983 46 1983 78 2010.5 c 128,-1,20
 110 2038 110 2038 110 2078 c 0,21,22
 110 2105 110 2105 91.5 2122 c 128,-1,23
 73 2139 73 2139 44 2139 c 0,12,13
EndSplineSet
EndChar

StartChar: exclam
Encoding: 33 33 5
Width: 821
Flags: W
HStem: 0 254<358 512> 1473 20G<595.122 802>
VStem: 423 162<481 537.866>
DStem2: 309 0 512 0 0.190809 0.981627<38.7342 258.683 524.826 1520.9>
LayerCount: 3
Fore
SplineSet
358 254 m 1
 561 254 l 1
 512 0 l 1
 309 0 l 1
 358 254 l 1
599 1493 m 1
 802 1493 l 1
 675 838 l 1
 585 481 l 1
 423 481 l 1
 472 838 l 1
 599 1493 l 1
EndSplineSet
Validated: 1
Layer: 2
SplineSet
358 254 m 1,0,-1
 561 254 l 1,1,-1
 512 0 l 1,2,-1
 309 0 l 1,3,-1
 358 254 l 1,0,-1
599 1493 m 1,4,-1
 802 1493 l 1,5,-1
 675 838 l 1,6,-1
 585 481 l 1,7,-1
 423 481 l 1,8,-1
 472 838 l 1,9,-1
 599 1493 l 1,4,-1
EndSplineSet
EndChar

StartChar: quotedbl
Encoding: 34 34 6
Width: 942
Flags: W
HStem: 938 555<487 549 865 927>
VStem: 379 656
DStem2: 379 938 549 938 0.190809 0.981627<32.4375 565.41> 757 938 927 938 0.190809 0.981627<32.4375 565.41>
LayerCount: 3
Fore
SplineSet
657 1493 m 1
 549 938 l 1
 379 938 l 1
 487 1493 l 1
 657 1493 l 1
1035 1493 m 1
 927 938 l 1
 757 938 l 1
 865 1493 l 1
 1035 1493 l 1
EndSplineSet
Validated: 1
Layer: 2
SplineSet
657 1493 m 1,0,-1
 549 938 l 1,1,-1
 379 938 l 1,2,-1
 487 1493 l 1,3,-1
 657 1493 l 1,0,-1
1035 1493 m 1,4,-1
 927 938 l 1,5,-1
 757 938 l 1,6,-1
 865 1493 l 1,7,-1
 1035 1493 l 1,4,-1
EndSplineSet
EndChar

StartChar: numbersign
Encoding: 35 35 7
Width: 1716
Flags: W
HStem: 0 21G<369 538.841 823 991.889> 414 153<268 553 782 1006 1236 1524> 901 154<477 769 998 1222 1452 1734>
DStem2: 369 0 530 0 0.405965 0.913888<65.3604 453.047 685.838 985.8 1219.5 1608.11> 823 0 983 0 0.405965 0.913888<64.9545 452.641 685.838 985.394 1219.5 1608.51>
LayerCount: 3
Fore
SplineSet
1222 901 m 1
 931 901 l 1
 782 567 l 1
 1075 567 l 1
 1222 901 l 1
1183 1470 m 1
 998 1055 l 1
 1290 1055 l 1
 1476 1470 l 1
 1636 1470 l 1
 1452 1055 l 1
 1764 1055 l 1
 1734 901 l 1
 1383 901 l 1
 1236 567 l 1
 1554 567 l 1
 1524 414 l 1
 1167 414 l 1
 983 0 l 1
 823 0 l 1
 1006 414 l 1
 713 414 l 1
 530 0 l 1
 369 0 l 1
 553 414 l 1
 238 414 l 1
 268 567 l 1
 620 567 l 1
 769 901 l 1
 447 901 l 1
 477 1055 l 1
 838 1055 l 1
 1021 1470 l 1
 1183 1470 l 1
EndSplineSet
Validated: 1
Layer: 2
SplineSet
1222 901 m 1,0,-1
 931 901 l 1,1,-1
 782 567 l 1,2,-1
 1075 567 l 1,3,-1
 1222 901 l 1,0,-1
1183 1470 m 1,4,-1
 998 1055 l 1,5,-1
 1290 1055 l 1,6,-1
 1476 1470 l 1,7,-1
 1636 1470 l 1,8,-1
 1452 1055 l 1,9,-1
 1764 1055 l 1,10,-1
 1734 901 l 1,11,-1
 1383 901 l 1,12,-1
 1236 567 l 1,13,-1
 1554 567 l 1,14,-1
 1524 414 l 1,15,-1
 1167 414 l 1,16,-1
 983 0 l 1,17,-1
 823 0 l 1,18,-1
 1006 414 l 1,19,-1
 713 414 l 1,20,-1
 530 0 l 1,21,-1
 369 0 l 1,22,-1
 553 414 l 1,23,-1
 238 414 l 1,24,-1
 268 567 l 1,25,-1
 620 567 l 1,26,-1
 769 901 l 1,27,-1
 447 901 l 1,28,-1
 477 1055 l 1,29,-1
 838 1055 l 1,30,-1
 1021 1470 l 1,31,-1
 1183 1470 l 1,4,-1
EndSplineSet
EndChar

StartChar: dollar
Encoding: 36 36 8
Width: 1303
Flags: W
HStem: 0 142<383.367 592 720 860.801> 1180 141<672.84 821 949 1144.9> 1536 20G<890.17 994>
VStem: 348 191<831.419 1064.69> 1023 192<272.944 503.903>
DStem2: 533 -301 633 -301 0.190809 0.981627<19.0809 306.728 473.487 914.56 1091.85 1508.74 1674.52 1891.76>
LayerCount: 3
Fore
SplineSet
1215 456 m 0
 1215 275 1095 30 692 2 c 1
 633 -301 l 1
 533 -301 l 1
 592 0 l 1
 465 2 331 26 188 92 c 1
 223 272 l 1
 382 158 530 143 620 142 c 1
 708 598 l 1
 478 637 348 718 348 882 c 0
 348 1058 462 1294 849 1321 c 1
 894 1556 l 1
 994 1556 l 1
 949 1324 l 1
 1078 1318 1188 1296 1287 1262 c 1
 1253 1087 l 1
 1140 1151 1026 1174 921 1179 c 1
 838 752 l 1
 1078 714 1215 628 1215 456 c 0
821 1180 m 1
 551 1150 539 971 539 931 c 0
 539 838 612 793 742 770 c 1
 821 1180 l 1
720 145 m 1
 1006 183 1023 353 1023 405 c 0
 1023 505 939 552 804 578 c 1
 720 145 l 1
EndSplineSet
Validated: 1
Layer: 2
SplineSet
1215 456 m 0,0,1
 1215 398 1215 398 1200 341.5 c 128,-1,2
 1185 285 1185 285 1146.5 226 c 128,-1,3
 1108 167 1108 167 1050.5 121.5 c 128,-1,4
 993 76 993 76 900.5 43 c 128,-1,5
 808 10 808 10 692 2 c 1,6,-1
 633 -301 l 1,7,-1
 533 -301 l 1,8,-1
 592 0 l 1,9,10
 380 3 380 3 188 92 c 1,11,-1
 223 272 l 1,12,13
 401 144 401 144 620 142 c 1,14,-1
 708 598 l 1,15,16
 529 628 529 628 438.5 695.5 c 128,-1,17
 348 763 348 763 348 882 c 0,18,19
 348 938 348 938 362.5 993 c 128,-1,20
 377 1048 377 1048 413.5 1104.5 c 128,-1,21
 450 1161 450 1161 505 1205.5 c 128,-1,22
 560 1250 560 1250 649 1281.5 c 128,-1,23
 738 1313 738 1313 849 1321 c 1,24,-1
 894 1556 l 1,25,-1
 994 1556 l 1,26,-1
 949 1324 l 1,27,28
 1131 1316 1131 1316 1287 1262 c 1,29,-1
 1253 1087 l 1,30,31
 1106 1170 1106 1170 921 1179 c 1,32,-1
 838 752 l 1,33,34
 1025 722 1025 722 1120 651.5 c 128,-1,35
 1215 581 1215 581 1215 456 c 0,0,1
821 1180 m 1,36,37
 745 1172 745 1172 688.5 1146 c 128,-1,38
 632 1120 632 1120 604.5 1091.5 c 128,-1,39
 577 1063 577 1063 561 1026.5 c 128,-1,40
 545 990 545 990 542 970 c 128,-1,41
 539 950 539 950 539 931 c 0,42,43
 539 864 539 864 589.5 826 c 128,-1,44
 640 788 640 788 742 770 c 1,45,-1
 821 1180 l 1,36,37
720 145 m 1,46,47
 801 156 801 156 861 182.5 c 128,-1,48
 921 209 921 209 951 237.5 c 128,-1,49
 981 266 981 266 998.5 302.5 c 128,-1,50
 1016 339 1016 339 1019.5 361 c 128,-1,51
 1023 383 1023 383 1023 405 c 0,52,53
 1023 477 1023 477 967.5 517 c 128,-1,54
 912 557 912 557 804 578 c 1,55,-1
 720 145 l 1,46,47
EndSplineSet
EndChar

StartChar: percent
Encoding: 37 37 9
Width: 1946
Flags: W
HStem: -29 127<1408.08 1624.7> 657 127<1498.7 1715.16> 707 127<518.424 737.366> 1393 127<610.98 831.145>
VStem: 318 160<870.232 1224.9> 870 162<1002.43 1351.45> 1204 162<138.15 489.003> 1756 162<266.465 619.676>
DStem2: 420 -29 580 -29 0.623401 0.781902<99.7442 1981.07>
LayerCount: 3
Fore
SplineSet
1508 98 m 0xdf
 1680 98 1756 328 1756 477 c 0
 1756 581 1717 657 1617 657 c 0
 1416 657 1366 377 1366 278 c 0
 1366 175 1406 98 1508 98 c 0xdf
1204 261 m 0
 1204 477 1334 784 1641 784 c 0
 1824 784 1918 669 1918 493 c 0
 1918 275 1786 -29 1483 -29 c 0
 1299 -29 1204 84 1204 261 c 0
619 834 m 256xbf
 820 834 870 1114 870 1211 c 0
 870 1320 825 1393 728 1393 c 256
 528 1393 478 1111 478 1011 c 0
 478 909 518 834 619 834 c 256xbf
1655 1520 m 1
 1815 1520 l 1
 580 -29 l 1
 420 -29 l 1
 1655 1520 l 1
318 996 m 0
 318 1216 450 1520 752 1520 c 256
 935 1520 1032 1406 1032 1228 c 0
 1032 1018 904 707 594 707 c 256
 410 707 318 820 318 996 c 0
EndSplineSet
Validated: 1
Layer: 2
SplineSet
1508 98 m 0,0,1
 1569 98 1569 98 1618.5 135.5 c 128,-1,2
 1668 173 1668 173 1697 232 c 128,-1,3
 1726 291 1726 291 1741 354.5 c 128,-1,4
 1756 418 1756 418 1756 477 c 0,5,6
 1756 560 1756 560 1722.5 608.5 c 128,-1,7
 1689 657 1689 657 1617 657 c 0,8,9
 1560 657 1560 657 1514 627 c 128,-1,10
 1468 597 1468 597 1441.5 552.5 c 128,-1,11
 1415 508 1415 508 1397 453.5 c 128,-1,12
 1379 399 1379 399 1372.5 355.5 c 128,-1,13
 1366 312 1366 312 1366 278 c 0,14,15
 1366 196 1366 196 1400.5 147 c 128,-1,16
 1435 98 1435 98 1508 98 c 0,0,1
1204 261 m 0,17,18
 1204 328 1204 328 1219.5 398.5 c 128,-1,19
 1235 469 1235 469 1270 538.5 c 128,-1,20
 1305 608 1305 608 1354.5 662 c 128,-1,21
 1404 716 1404 716 1478.5 750 c 128,-1,22
 1553 784 1553 784 1641 784 c 0,23,24
 1775 784 1775 784 1846.5 706 c 128,-1,25
 1918 628 1918 628 1918 493 c 0,26,27
 1918 425 1918 425 1902.5 354.5 c 128,-1,28
 1887 284 1887 284 1852 215 c 128,-1,29
 1817 146 1817 146 1767.5 92 c 128,-1,30
 1718 38 1718 38 1644 4.5 c 128,-1,31
 1570 -29 1570 -29 1483 -29 c 0,32,33
 1347 -29 1347 -29 1275.5 48.5 c 128,-1,34
 1204 126 1204 126 1204 261 c 0,17,18
619 834 m 256,35,36
 676 834 676 834 722 864 c 128,-1,37
 768 894 768 894 794.5 938 c 128,-1,38
 821 982 821 982 839 1036.5 c 128,-1,39
 857 1091 857 1091 863.5 1134 c 128,-1,40
 870 1177 870 1177 870 1211 c 0,41,42
 870 1296 870 1296 834.5 1344.5 c 128,-1,43
 799 1393 799 1393 728 1393 c 0,44,45
 671 1393 671 1393 625.5 1362.5 c 128,-1,46
 580 1332 580 1332 553.5 1287.5 c 128,-1,47
 527 1243 527 1243 509 1188 c 128,-1,48
 491 1133 491 1133 484.5 1089 c 128,-1,49
 478 1045 478 1045 478 1011 c 0,50,51
 478 930 478 930 512.5 882 c 128,-1,52
 547 834 547 834 619 834 c 256,35,36
1655 1520 m 1,53,-1
 1815 1520 l 1,54,-1
 580 -29 l 1,55,-1
 420 -29 l 1,56,-1
 1655 1520 l 1,53,-1
318 996 m 0,57,58
 318 1064 318 1064 333.5 1135 c 128,-1,59
 349 1206 349 1206 384 1275.5 c 128,-1,60
 419 1345 419 1345 468.5 1399 c 128,-1,61
 518 1453 518 1453 591.5 1486.5 c 128,-1,62
 665 1520 665 1520 752 1520 c 0,63,64
 887 1520 887 1520 959.5 1442 c 128,-1,65
 1032 1364 1032 1364 1032 1228 c 0,66,67
 1032 1162 1032 1162 1016.5 1093 c 128,-1,68
 1001 1024 1001 1024 966.5 954 c 128,-1,69
 932 884 932 884 882.5 829.5 c 128,-1,70
 833 775 833 775 758 741 c 128,-1,71
 683 707 683 707 594 707 c 0,72,73
 459 707 459 707 388.5 784 c 128,-1,74
 318 861 318 861 318 996 c 0,57,58
EndSplineSet
EndChar

StartChar: ampersand
Encoding: 38 38 10
Width: 1597
Flags: W
HStem: -29 162<541.558 925.336> 0 21G<1266.49 1534> 1362 158<829.496 1183.38>
VStem: 209 198<257.81 567.793> 519 193<1000.6 1255.32> 1434 186<678.607 801>
DStem2: 1224 395 1079 260 0.616795 -0.787124<-669.881 0 158.483 346.688>
LayerCount: 3
Fore
SplineSet
654 803 m 1xbc
 560 732 407 596 407 406 c 0
 407 245 530 133 720 133 c 0
 854 133 972 180 1079 260 c 1
 654 803 l 1xbc
519 1103 m 0
 519 1269 662 1520 1000 1520 c 0
 1129 1520 1235 1487 1319 1448 c 1
 1284 1266 l 1
 1151 1346 1053 1362 990 1362 c 0
 811 1362 712 1237 712 1129 c 0
 712 1059 754 996 817 915 c 2
 1224 395 l 1
 1341 532 1402 673 1434 801 c 1
 1620 801 l 1
 1560 593 1437 420 1310 285 c 1
 1534 0 l 1
 1282 0 l 1x7c
 1168 147 l 1
 1018 37 855 -29 670 -29 c 0
 388 -29 209 124 209 360 c 0
 209 632 414 810 574 913 c 1
 549 957 519 1025 519 1103 c 0
EndSplineSet
Validated: 1
Layer: 2
SplineSet
654 803 m 1,0,1
 407 616 407 616 407 406 c 0,2,3
 407 284 407 284 492.5 208.5 c 128,-1,4
 578 133 578 133 720 133 c 0,5,6
 909 133 909 133 1079 260 c 1,7,-1
 654 803 l 1,0,1
519 1103 m 0,8,9
 519 1155 519 1155 536 1210.5 c 128,-1,10
 553 1266 553 1266 591.5 1321.5 c 128,-1,11
 630 1377 630 1377 684.5 1421 c 128,-1,12
 739 1465 739 1465 821 1492.5 c 128,-1,13
 903 1520 903 1520 1000 1520 c 0,14,15
 1164 1520 1164 1520 1319 1448 c 1,16,-1
 1284 1266 l 1,17,18
 1124 1362 1124 1362 990 1362 c 0,19,20
 864 1362 864 1362 788 1290 c 128,-1,21
 712 1218 712 1218 712 1129 c 0,22,23
 712 1081 712 1081 737.5 1032.5 c 128,-1,24
 763 984 763 984 817 915 c 2,25,-1
 1224 395 l 1,26,27
 1377 575 1377 575 1434 801 c 1,28,-1
 1620 801 l 1,29,30
 1542 532 1542 532 1310 285 c 1,31,-1
 1534 0 l 1,32,-1
 1282 0 l 1,33,-1
 1168 147 l 1,34,35
 928 -29 928 -29 670 -29 c 0,36,37
 459 -29 459 -29 334 77 c 128,-1,38
 209 183 209 183 209 360 c 0,39,40
 209 678 209 678 574 913 c 1,41,42
 519 1010 519 1010 519 1103 c 0,8,9
EndSplineSet
EndChar

StartChar: quotesingle
Encoding: 39 39 11
Width: 563
Flags: W
HStem: 938 555<487 549>
VStem: 379 278
DStem2: 379 938 549 938 0.190809 0.981627<32.4375 565.41>
LayerCount: 3
Fore
SplineSet
657 1493 m 1
 549 938 l 1
 379 938 l 1
 487 1493 l 1
 657 1493 l 1
EndSplineSet
Validated: 1
Layer: 2
SplineSet
657 1493 m 1,0,-1
 549 938 l 1,1,-1
 379 938 l 1,2,-1
 487 1493 l 1,3,-1
 657 1493 l 1,0,-1
EndSplineSet
EndChar

StartChar: parenleft
Encoding: 40 40 12
Width: 799
Flags: W
VStem: 275 190<25.6687 693.459>
LayerCount: 3
Fore
SplineSet
275 379 m 0
 275 849 520 1245 777 1554 c 1
 937 1554 l 1
 734 1292 465 867 465 333 c 0
 465 100 518 -102 583 -270 c 1
 423 -270 l 1
 345 -95 275 126 275 379 c 0
EndSplineSet
Validated: 1
Layer: 2
SplineSet
275 379 m 0,0,1
 275 548 275 548 316 714.5 c 128,-1,2
 357 881 357 881 431.5 1030 c 128,-1,3
 506 1179 506 1179 588.5 1303 c 128,-1,4
 671 1427 671 1427 777 1554 c 1,5,-1
 937 1554 l 1,6,7
 465 945 465 945 465 333 c 0,8,9
 465 35 465 35 583 -270 c 1,10,-1
 423 -270 l 1,11,12
 275 62 275 62 275 379 c 0,0,1
EndSplineSet
EndChar

StartChar: parenright
Encoding: 41 41 13
Width: 799
Flags: W
VStem: 583 191<580.156 1257.73>
LayerCount: 3
Fore
SplineSet
112 -270 m 1
 315 -7 583 419 583 952 c 0
 583 1182 532 1383 466 1554 c 1
 626 1554 l 1
 704 1379 774 1159 774 906 c 0
 774 436 524 34 272 -270 c 1
 112 -270 l 1
EndSplineSet
Validated: 1
Layer: 2
SplineSet
112 -270 m 1,0,1
 583 340 583 340 583 952 c 0,2,3
 583 1251 583 1251 466 1554 c 1,4,-1
 626 1554 l 1,5,6
 774 1222 774 1222 774 906 c 0,7,8
 774 336 774 336 272 -270 c 1,9,-1
 112 -270 l 1,0,1
EndSplineSet
EndChar

StartChar: asterisk
Encoding: 42 42 14
Width: 1024
Flags: W
HStem: 1500 20G<746.127 864>
DStem2: 228 858 267 760 0.887325 0.461144<0 415.773 630.99 1046.3> 569 586 683 586 0.190809 0.981627<21.7522 384.003 589.126 951.376>
LayerCount: 3
Fore
SplineSet
1205 1247 m 1
 809 1053 l 1
 1130 858 l 1
 1053 760 l 1
 756 963 l 1
 683 586 l 1
 569 586 l 1
 642 963 l 1
 267 760 l 1
 228 858 l 1
 625 1053 l 1
 303 1247 l 1
 381 1346 l 1
 677 1143 l 1
 750 1520 l 1
 864 1520 l 1
 791 1143 l 1
 1167 1346 l 1
 1205 1247 l 1
EndSplineSet
Validated: 1
Layer: 2
SplineSet
1205 1247 m 1,0,-1
 809 1053 l 1,1,-1
 1130 858 l 1,2,-1
 1053 760 l 1,3,-1
 756 963 l 1,4,-1
 683 586 l 1,5,-1
 569 586 l 1,6,-1
 642 963 l 1,7,-1
 267 760 l 1,8,-1
 228 858 l 1,9,-1
 625 1053 l 1,10,-1
 303 1247 l 1,11,-1
 381 1346 l 1,12,-1
 677 1143 l 1,13,-1
 750 1520 l 1,14,-1
 864 1520 l 1,15,-1
 791 1143 l 1,16,-1
 1167 1346 l 1,17,-1
 1205 1247 l 1,0,-1
EndSplineSet
EndChar

StartChar: plus
Encoding: 43 43 15
Width: 1716
Flags: W
HStem: 0 21G<774 945.878> 557 170<358 882 1083 1607>
DStem2: 774 0 942 0 0.190809 0.981627<32.0559 567.374 772.603 1308.11>
LayerCount: 3
Fore
SplineSet
1192 1284 m 1
 1083 727 l 1
 1640 727 l 1
 1607 557 l 1
 1050 557 l 1
 942 0 l 1
 774 0 l 1
 882 557 l 1
 325 557 l 1
 358 727 l 1
 915 727 l 1
 1024 1284 l 1
 1192 1284 l 1
EndSplineSet
Validated: 1
Layer: 2
SplineSet
1192 1284 m 1,0,-1
 1083 727 l 1,1,-1
 1640 727 l 1,2,-1
 1607 557 l 1,3,-1
 1050 557 l 1,4,-1
 942 0 l 1,5,-1
 774 0 l 1,6,-1
 882 557 l 1,7,-1
 325 557 l 1,8,-1
 358 727 l 1,9,-1
 915 727 l 1,10,-1
 1024 1284 l 1,11,-1
 1192 1284 l 1,0,-1
EndSplineSet
EndChar

StartChar: comma
Encoding: 44 44 16
Width: 651
Flags: W
HStem: -238 492
VStem: 112 388
LayerCount: 3
Fore
SplineSet
289 254 m 1
 500 254 l 1
 467 82 l 1
 241 -238 l 1
 112 -238 l 1
 256 82 l 1
 289 254 l 1
EndSplineSet
Validated: 1
Layer: 2
SplineSet
289 254 m 1,0,-1
 500 254 l 1,1,-1
 467 82 l 1,2,-1
 241 -238 l 1,3,-1
 112 -238 l 1,4,-1
 256 82 l 1,5,-1
 289 254 l 1,0,-1
EndSplineSet
EndChar

StartChar: hyphen
Encoding: 45 45 17
Width: 739
Flags: W
HStem: 479 164<225 732>
VStem: 193 571
LayerCount: 3
Fore
SplineSet
225 643 m 1
 764 643 l 1
 732 479 l 1
 193 479 l 1
 225 643 l 1
EndSplineSet
Validated: 1
Layer: 2
SplineSet
225 643 m 1,0,-1
 764 643 l 1,1,-1
 732 479 l 1,2,-1
 193 479 l 1,3,-1
 225 643 l 1,0,-1
EndSplineSet
EndChar

StartChar: period
Encoding: 46 46 18
Width: 651
Flags: W
HStem: 0 254<268 430>
VStem: 219 260
LayerCount: 3
Fore
SplineSet
268 254 m 1
 479 254 l 1
 430 0 l 1
 219 0 l 1
 268 254 l 1
EndSplineSet
Validated: 1
Layer: 2
SplineSet
268 254 m 1,0,-1
 479 254 l 1,1,-1
 430 0 l 1,2,-1
 219 0 l 1,3,-1
 268 254 l 1,0,-1
EndSplineSet
EndChar

StartChar: slash
Encoding: 47 47 19
Width: 690
Flags: W
HStem: 1473 20G<799.935 980>
DStem2: -37 -190 133 -190 0.449547 0.893256<76.4231 1884.12>
LayerCount: 3
Fore
SplineSet
810 1493 m 1
 980 1493 l 1
 133 -190 l 1
 -37 -190 l 1
 810 1493 l 1
EndSplineSet
Validated: 1
Layer: 2
SplineSet
810 1493 m 1,0,-1
 980 1493 l 1,1,-1
 133 -190 l 1,2,-1
 -37 -190 l 1,3,-1
 810 1493 l 1,0,-1
EndSplineSet
EndChar

StartChar: zero
Encoding: 48 48 20
Width: 1303
Flags: W
HStem: -29 160<542.077 827.087> 1360 160<765.257 1049.58>
VStem: 248 202<233.345 782.728> 1143 201<704.605 1256.72>
LayerCount: 3
Fore
SplineSet
1110 745 m 0
 1130 848 1143 948 1143 1037 c 0
 1143 1224 1085 1360 915 1360 c 0
 665 1360 545 1063 483 745 c 0
 463 642 450 541 450 452 c 0
 450 266 507 131 676 131 c 0
 864 131 1023 297 1110 745 c 0
280 745 m 0
 410 1413 740 1520 946 1520 c 256
 1236 1520 1344 1322 1344 1041 c 0
 1344 950 1332 850 1312 745 c 0
 1229 320 1030 -29 645 -29 c 256
 356 -29 248 168 248 448 c 0
 248 539 260 640 280 745 c 0
EndSplineSet
Validated: 1
Layer: 2
SplineSet
1110 745 m 0,0,1
 1143 915 1143 915 1143 1037 c 0,2,3
 1143 1360 1143 1360 915 1360 c 0,4,5
 603 1360 603 1360 483 745 c 0,6,7
 450 575 450 575 450 452 c 0,8,9
 450 131 450 131 676 131 c 0,10,11
 991 131 991 131 1110 745 c 0,0,1
280 745 m 0,12,13
 307 884 307 884 347.5 998 c 128,-1,14
 388 1112 388 1112 433 1191 c 128,-1,15
 478 1270 478 1270 532.5 1330 c 128,-1,16
 587 1390 587 1390 638.5 1425.5 c 128,-1,17
 690 1461 690 1461 747 1483 c 128,-1,18
 804 1505 804 1505 850.5 1512.5 c 128,-1,19
 897 1520 897 1520 946 1520 c 0,20,21
 1052 1520 1052 1520 1130 1485 c 128,-1,22
 1208 1450 1208 1450 1254 1385 c 128,-1,23
 1300 1320 1300 1320 1322 1235 c 128,-1,24
 1344 1150 1344 1150 1344 1041 c 0,25,26
 1344 913 1344 913 1312 745 c 0,27,28
 1286 613 1286 613 1248 501 c 128,-1,29
 1210 389 1210 389 1152 289.5 c 128,-1,30
 1094 190 1094 190 1022 120.5 c 128,-1,31
 950 51 950 51 854 11 c 128,-1,32
 758 -29 758 -29 645 -29 c 0,33,34
 539 -29 539 -29 461.5 5.5 c 128,-1,35
 384 40 384 40 338 105 c 128,-1,36
 292 170 292 170 270 255 c 128,-1,37
 248 340 248 340 248 448 c 0,38,39
 248 577 248 577 280 745 c 0,12,13
EndSplineSet
EndChar

StartChar: one
Encoding: 49 49 21
Width: 1303
Flags: W
HStem: 0 170<287 617 817 1114> 1473 20G<768.944 1074>
DStem2: 501 1421 465 1237 0.981875 0.189531<0 309.664> 583.955 0 783.955 0 0.190809 0.981627<211.344 1333.42>
LayerCount: 3
Fore
SplineSet
287 170 m 1
 617 170 l 1
 838 1309 l 1
 465 1237 l 1
 501 1421 l 1
 872 1493 l 1
 1074 1493 l 1
 817 170 l 1
 1147 170 l 1
 1114 0 l 1
 254 0 l 1
 287 170 l 1
EndSplineSet
Validated: 1
Layer: 2
SplineSet
287 170 m 1,0,-1
 617 170 l 1,1,-1
 838 1309 l 1,2,-1
 465 1237 l 1,3,-1
 501 1421 l 1,4,-1
 872 1493 l 1,5,-1
 1074 1493 l 1,6,-1
 817 170 l 1,7,-1
 1147 170 l 1,8,-1
 1114 0 l 1,9,-1
 254 0 l 1,10,-1
 287 170 l 1,0,-1
EndSplineSet
EndChar

StartChar: two
Encoding: 50 50 22
Width: 1303
Flags: W
HStem: 0 170<426 1098> 1217 21G<400.824 511> 1350 170<608.547 1015.68>
VStem: 1103 209<986.097 1262.74>
DStem2: 183 170 426 170 0.759493 0.650515<184.557 989.524>
LayerCount: 3
Fore
SplineSet
877 1520 m 0
 1139 1520 1312 1400 1312 1184 c 0
 1312 909 1080 731 879 558 c 2
 426 170 l 1
 1131 170 l 1
 1098 0 l 1
 150 0 l 1
 183 170 l 1
 559 490 l 1
 922 796 1103 944 1103 1136 c 0
 1103 1266 1005 1350 848 1350 c 0
 763 1350 625 1332 397 1217 c 1
 436 1421 l 1
 539 1459 720 1520 877 1520 c 0
EndSplineSet
Validated: 1
Layer: 2
SplineSet
877 1520 m 0,0,1
 1077 1520 1077 1520 1194.5 1432 c 128,-1,2
 1312 1344 1312 1344 1312 1184 c 0,3,4
 1312 1131 1312 1131 1299.5 1078.5 c 128,-1,5
 1287 1026 1287 1026 1268.5 983.5 c 128,-1,6
 1250 941 1250 941 1217 894 c 128,-1,7
 1184 847 1184 847 1155.5 813.5 c 128,-1,8
 1127 780 1127 780 1080.5 736 c 128,-1,9
 1034 692 1034 692 1003 664.5 c 128,-1,10
 972 637 972 637 920.231356988 593.287890331 c 0,11,12
 911 585 911 585 906 581 c 128,-1,13
 901 577 901 577 893 570 c 128,-1,14
 885 563 885 563 879 558 c 2,15,-1
 426 170 l 1,16,-1
 1131 170 l 1,17,-1
 1098 0 l 1,18,-1
 150 0 l 1,19,-1
 183 170 l 1,20,-1
 559 490 l 2,21,22
 826.396362748 715.408504135 826.396362748 715.408504135 907.90973436 794.878289535 c 0,23,24
 1055.44026933 938.710150768 1055.44026933 938.710150768 1089.4309508 1047.45960802 c 0,25,26
 1103 1090.87229267 1103 1090.87229267 1103 1136 c 0,27,28
 1103 1234 1103 1234 1034 1292 c 128,-1,29
 965 1350 965 1350 848 1350 c 0,30,31
 661 1350 661 1350 397 1217 c 1,32,-1
 436 1421 l 1,33,34
 704 1520 704 1520 877 1520 c 0,0,1
EndSplineSet
EndChar

StartChar: three
Encoding: 51 51 23
Width: 1303
Flags: W
HStem: -29 170<312.295 812.698> 715 166<585 927.333> 1350 170<565.205 1046.58>
VStem: 1028 204<329.086 624.78> 1124 208<1028.69 1278.13>
LayerCount: 3
Fore
SplineSet
1332 1212 m 0xe8
 1332 1057 1244 867 987 805 c 1
 1136 772 1232 674 1232 519 c 0
 1232 300 1075 -29 549 -29 c 0
 401 -29 270 5 165 45 c 1
 203 240 l 1
 322 162 463 141 576 141 c 0
 956 141 1028 371 1028 496 c 0xf0
 1028 642 909 715 727 715 c 2
 553 715 l 1
 585 881 l 1
 767 881 l 2
 1058 881 1124 1053 1124 1165 c 0
 1124 1295 1012 1350 850 1350 c 0
 695 1350 528 1301 449 1276 c 1
 484 1456 l 1
 691 1511 820 1520 901 1520 c 0
 1155 1520 1332 1417 1332 1212 c 0xe8
EndSplineSet
Validated: 1
Layer: 2
SplineSet
1332 1212 m 0,0,1
 1332 1151 1332 1151 1313.5 1091.5 c 128,-1,2
 1295 1032 1295 1032 1256.5 974.5 c 128,-1,3
 1218 917 1218 917 1148.5 872 c 128,-1,4
 1079 827 1079 827 987 805 c 1,5,6
 1102 780 1102 780 1167 706.5 c 128,-1,7
 1232 633 1232 633 1232 519 c 0,8,9
 1232 449 1232 449 1212 377.5 c 128,-1,10
 1192 306 1192 306 1142 231.5 c 128,-1,11
 1092 157 1092 157 1017.5 100.5 c 128,-1,12
 943 44 943 44 821.5 7.5 c 128,-1,13
 700 -29 700 -29 549 -29 c 0,14,15
 359 -29 359 -29 165 45 c 1,16,-1
 203 240 l 1,17,18
 354 141 354 141 576 141 c 0,19,20
 685 141 685 141 768.5 166.5 c 128,-1,21
 852 192 852 192 899.5 229.5 c 128,-1,22
 947 267 947 267 977.5 317.5 c 128,-1,23
 1008 368 1008 368 1018 410.5 c 128,-1,24
 1028 453 1028 453 1028 496 c 0,25,26
 1028 603 1028 603 947.5 659 c 128,-1,27
 867 715 867 715 727 715 c 2,28,-1
 553 715 l 1,29,-1
 585 881 l 1,30,-1
 767 881 l 2,31,32
 850 881 850 881 915.5 900 c 128,-1,33
 981 919 981 919 1019 948.5 c 128,-1,34
 1057 978 1057 978 1081.5 1017 c 128,-1,35
 1106 1056 1106 1056 1115 1092 c 128,-1,36
 1124 1128 1124 1128 1124 1165 c 0,37,38
 1124 1259 1124 1259 1050.5 1304.5 c 128,-1,39
 977 1350 977 1350 850 1350 c 0,40,41
 683 1350 683 1350 449 1276 c 1,42,-1
 484 1456 l 1,43,44
 725 1520 725 1520 901 1520 c 0,45,46
 1098 1520 1098 1520 1215 1441 c 128,-1,47
 1332 1362 1332 1362 1332 1212 c 0,0,1
EndSplineSet
EndChar

StartChar: four
Encoding: 52 52 24
Width: 1303
Flags: W
HStem: 0 21G<774 978.864> 352 168<365 842 1076 1256> 1473 20G<993.981 1265>
DStem2: 206 547 365 520 0.648069 0.761582<82.4803 1120.43> 774 0 975 0 0.190809 0.981627<38.3526 358.508 568.07 1341.65>
LayerCount: 3
Fore
SplineSet
1030 1317 m 1
 365 520 l 1
 875 520 l 1
 1030 1317 l 1
1011 1493 m 1
 1265 1493 l 1
 1076 520 l 1
 1289 520 l 1
 1256 352 l 1
 1043 352 l 1
 975 0 l 1
 774 0 l 1
 842 352 l 1
 168 352 l 1
 206 547 l 1
 1011 1493 l 1
EndSplineSet
Validated: 1
Layer: 2
SplineSet
1030 1317 m 1,0,-1
 365 520 l 1,1,-1
 875 520 l 1,2,-1
 1030 1317 l 1,0,-1
1011 1493 m 1,3,-1
 1265 1493 l 1,4,-1
 1076 520 l 1,5,-1
 1289 520 l 1,6,-1
 1256 352 l 1,7,-1
 1043 352 l 1,8,-1
 975 0 l 1,9,-1
 774 0 l 1,10,-1
 842 352 l 1,11,-1
 168 352 l 1,12,-1
 206 547 l 1,13,-1
 1011 1493 l 1,3,-1
EndSplineSet
EndChar

StartChar: five
Encoding: 53 53 25
Width: 1303
Flags: W
HStem: -29 170<312.208 777.375> 817 170<595.421 899.723> 1323 170<663 1271>
VStem: 1023 206<369.271 706.546>
DStem2: 214.938 -29 400.341 -29 0.190809 0.981627<1039.83 1412.65>
LayerCount: 3
Fore
SplineSet
574 141 m 0
 876 141 1023 355 1023 557 c 0
 1023 722 904 817 706 817 c 0
 579 817 464 784 365 743 c 1
 511 1493 l 1
 1304 1493 l 1
 1271 1323 l 1
 663 1323 l 1
 592 957 l 1
 649 975 708 987 774 987 c 0
 1062 987 1229 843 1229 600 c 0
 1229 375 1093 -29 545 -29 c 0
 400 -29 271 0 165 35 c 1
 204 238 l 1
 326 164 452 141 574 141 c 0
EndSplineSet
Validated: 1
Layer: 2
SplineSet
574 141 m 0,0,1
 683 141 683 141 771 177.5 c 128,-1,2
 859 214 859 214 912.5 274 c 128,-1,3
 966 334 966 334 994.5 406.5 c 128,-1,4
 1023 479 1023 479 1023 557 c 0,5,6
 1023 680 1023 680 939 748.5 c 128,-1,7
 855 817 855 817 706 817 c 0,8,9
 544 817 544 817 365 743 c 1,10,-1
 511 1493 l 1,11,-1
 1304 1493 l 1,12,-1
 1271 1323 l 1,13,-1
 663 1323 l 1,14,-1
 592 957 l 1,15,16
 687 987 687 987 774 987 c 0,17,18
 990 987 990 987 1109.5 885 c 128,-1,19
 1229 783 1229 783 1229 600 c 0,20,21
 1229 549 1229 549 1220 494.5 c 128,-1,22
 1211 440 1211 440 1189 377.5 c 128,-1,23
 1167 315 1167 315 1133 258 c 128,-1,24
 1099 201 1099 201 1044 148 c 128,-1,25
 989 95 989 95 920.5 56 c 128,-1,26
 852 17 852 17 755 -6 c 128,-1,27
 658 -29 658 -29 545 -29 c 0,28,29
 359 -29 359 -29 165 35 c 1,30,-1
 204 238 l 1,31,32
 364 141 364 141 574 141 c 0,0,1
EndSplineSet
EndChar

StartChar: six
Encoding: 54 54 26
Width: 1303
Flags: W
HStem: -29 160<553.54 869.411> 827 160<680.957 983.657> 1350 170<829.636 1260.47>
VStem: 257 207<222.969 591.295> 1074 207<374.322 736.056>
LayerCount: 3
Fore
SplineSet
701 131 m 256
 1000 131 1074 447 1074 580 c 0
 1074 730 995 827 837 827 c 256
 559 827 464 542 464 379 c 0
 464 228 544 131 701 131 c 256
1281 612 m 0
 1281 296 1063 -29 670 -29 c 0
 371 -29 257 168 257 455 c 0
 257 544 268 642 288 745 c 0
 374 1190 654 1520 1057 1520 c 0
 1152 1520 1250 1503 1361 1460 c 1
 1325 1276 l 1
 1251 1315 1150 1350 1032 1350 c 0
 729 1350 578 1116 501 807 c 1
 590 909 720 987 880 987 c 0
 1136 987 1281 847 1281 612 c 0
EndSplineSet
Validated: 1
Layer: 2
SplineSet
701 131 m 256,0,1
 786 131 786 131 854 165.5 c 128,-1,2
 922 200 922 200 962 250.5 c 128,-1,3
 1002 301 1002 301 1028.5 365 c 128,-1,4
 1055 429 1055 429 1064.5 482 c 128,-1,5
 1074 535 1074 535 1074 580 c 0,6,7
 1074 695 1074 695 1013.5 761 c 128,-1,8
 953 827 953 827 837 827 c 0,9,10
 757 827 757 827 691.5 796 c 128,-1,11
 626 765 626 765 585 716.5 c 128,-1,12
 544 668 544 668 515.5 607 c 128,-1,13
 487 546 487 546 475.5 488.5 c 128,-1,14
 464 431 464 431 464 379 c 0,15,16
 464 263 464 263 525 197 c 128,-1,17
 586 131 586 131 701 131 c 256,0,1
1281 612 m 0,18,19
 1281 516 1281 516 1255.5 424 c 128,-1,20
 1230 332 1230 332 1178.5 250 c 128,-1,21
 1127 168 1127 168 1055.5 106 c 128,-1,22
 984 44 984 44 884 7.5 c 128,-1,23
 784 -29 784 -29 670 -29 c 0,24,25
 560 -29 560 -29 479.5 6 c 128,-1,26
 399 41 399 41 351 106 c 128,-1,27
 303 171 303 171 280 257.5 c 128,-1,28
 257 344 257 344 257 455 c 0,29,30
 257 585 257 585 288 745 c 0,31,32
 332 970 332 970 435 1143.5 c 128,-1,33
 538 1317 538 1317 699.5 1418.5 c 128,-1,34
 861 1520 861 1520 1057 1520 c 0,35,36
 1206 1520 1206 1520 1361 1460 c 1,37,-1
 1325 1276 l 1,38,39
 1185 1350 1185 1350 1032 1350 c 0,40,41
 636 1350 636 1350 501 807 c 1,42,43
 572 889 572 889 669 938 c 128,-1,44
 766 987 766 987 880 987 c 0,45,46
 1071 987 1071 987 1176 888 c 128,-1,47
 1281 789 1281 789 1281 612 c 0,18,19
EndSplineSet
EndChar

StartChar: seven
Encoding: 55 55 27
Width: 1303
Flags: W
HStem: 0 21G<375 597.585> 1323 170<458 1142>
DStem2: 375 0 586 0 0.50123 0.865314<105.76 1529.25>
LayerCount: 3
Fore
SplineSet
458 1493 m 1
 1418 1493 l 1
 1401 1407 l 1
 586 0 l 1
 375 0 l 1
 1142 1323 l 1
 425 1323 l 1
 458 1493 l 1
EndSplineSet
Validated: 1
Layer: 2
SplineSet
458 1493 m 1,0,-1
 1418 1493 l 1,1,-1
 1401 1407 l 1,2,-1
 586 0 l 1,3,-1
 375 0 l 1,4,-1
 1142 1323 l 1,5,-1
 425 1323 l 1,6,-1
 458 1493 l 1,0,-1
EndSplineSet
EndChar

StartChar: eight
Encoding: 56 56 28
Width: 1303
Flags: W
HStem: -29 160<502.389 859.328> 709 159<657.008 963.927> 1360 160<734.089 1078.17>
VStem: 209 208<214.704 522.016> 387 199<931.44 1217.76> 1050 203<317.374 626.608> 1151 206<1027.58 1295.58>
LayerCount: 3
Fore
SplineSet
676 131 m 256xf4
 934 131 1050 323 1050 490 c 0
 1050 630 955 709 789 709 c 0
 526 709 417 512 417 349 c 0
 417 210 511 131 676 131 c 256xf4
209 307 m 0
 209 509 316 731 604 795 c 1
 472 829 387 918 387 1058 c 0
 387 1243 528 1520 946 1520 c 0
 1193 1520 1357 1417 1357 1217 c 0xea
 1357 1058 1264 856 1009 795 c 1
 1155 759 1253 661 1253 504 c 0
 1253 361 1164 -29 645 -29 c 256
 370 -29 209 82 209 307 c 0
820 868 m 0
 1078 868 1151 1058 1151 1171 c 0
 1151 1294 1063 1360 915 1360 c 0
 651 1360 586 1163 586 1054 c 0
 586 932 673 868 820 868 c 0
EndSplineSet
Validated: 1
Layer: 2
SplineSet
676 131 m 256,0,1
 751 131 751 131 814 152.5 c 128,-1,2
 877 174 877 174 919.5 209.5 c 128,-1,3
 962 245 962 245 992 291.5 c 128,-1,4
 1022 338 1022 338 1036 388.5 c 128,-1,5
 1050 439 1050 439 1050 490 c 0,6,7
 1050 595 1050 595 982 652 c 128,-1,8
 914 709 914 709 789 709 c 0,9,10
 695 709 695 709 621 676 c 128,-1,11
 547 643 547 643 504 589.5 c 128,-1,12
 461 536 461 536 439 474.5 c 128,-1,13
 417 413 417 413 417 349 c 0,14,15
 417 245 417 245 484.5 188 c 128,-1,16
 552 131 552 131 676 131 c 256,0,1
209 307 m 0,17,18
 209 386 209 386 231 460 c 128,-1,19
 253 534 253 534 298 602 c 128,-1,20
 343 670 343 670 421.5 721 c 128,-1,21
 500 772 500 772 604 795 c 1,22,23
 502 821 502 821 444.5 888.5 c 128,-1,24
 387 956 387 956 387 1058 c 0,25,26
 387 1117 387 1117 404.5 1177.5 c 128,-1,27
 422 1238 422 1238 464 1300.5 c 128,-1,28
 506 1363 506 1363 568 1411 c 128,-1,29
 630 1459 630 1459 728 1489.5 c 128,-1,30
 826 1520 826 1520 946 1520 c 0,31,32
 1136 1520 1136 1520 1246.5 1442 c 128,-1,33
 1357 1364 1357 1364 1357 1217 c 0,34,35
 1357 1154 1357 1154 1338 1092 c 128,-1,36
 1319 1030 1319 1030 1279.5 970 c 128,-1,37
 1240 910 1240 910 1170 863.5 c 128,-1,38
 1100 817 1100 817 1009 795 c 1,39,40
 1122 767 1122 767 1187.5 692.5 c 128,-1,41
 1253 618 1253 618 1253 504 c 0,42,43
 1253 469 1253 469 1247 429 c 128,-1,44
 1241 389 1241 389 1223 336 c 128,-1,45
 1205 283 1205 283 1177.5 234 c 128,-1,46
 1150 185 1150 185 1102 136 c 128,-1,47
 1054 87 1054 87 993 51.5 c 128,-1,48
 932 16 932 16 842 -6.5 c 128,-1,49
 752 -29 752 -29 645 -29 c 0,50,51
 436 -29 436 -29 322.5 56 c 128,-1,52
 209 141 209 141 209 307 c 0,17,18
820 868 m 0,53,54
 894 868 894 868 953 889 c 128,-1,55
 1012 910 1012 910 1048 942 c 128,-1,56
 1084 974 1084 974 1108 1015.5 c 128,-1,57
 1132 1057 1132 1057 1141.5 1095.5 c 128,-1,58
 1151 1134 1151 1134 1151 1171 c 0,59,60
 1151 1262 1151 1262 1089 1311 c 128,-1,61
 1027 1360 1027 1360 915 1360 c 0,62,63
 840 1360 840 1360 780 1338.5 c 128,-1,64
 720 1317 720 1317 684.5 1284 c 128,-1,65
 649 1251 649 1251 626 1208.5 c 128,-1,66
 603 1166 603 1166 594.5 1128 c 128,-1,67
 586 1090 586 1090 586 1054 c 0,68,69
 586 963 586 963 647.5 915.5 c 128,-1,70
 709 868 709 868 820 868 c 0,53,54
EndSplineSet
EndChar

StartChar: nine
Encoding: 57 57 29
Width: 1303
Flags: W
HStem: -29 170<331.74 762.153> 506 158<606.618 914.565> 1360 160<722.093 1038.85>
VStem: 312 206<754.46 1121.85> 1129 206<898.864 1267.33>
LayerCount: 3
Fore
SplineSet
312 878 m 0
 312 1189 525 1520 922 1520 c 0
 1221 1520 1335 1322 1335 1035 c 0
 1335 946 1324 848 1304 745 c 0
 1218 301 938 -29 535 -29 c 0
 440 -29 343 -12 231 31 c 1
 267 215 l 1
 341 176 442 141 559 141 c 0
 863 141 1014 374 1091 684 c 1
 1003 582 872 506 712 506 c 0
 457 506 312 644 312 878 c 0
891 1360 m 256
 593 1360 518 1043 518 910 c 0
 518 760 598 664 756 664 c 256
 1033 664 1129 948 1129 1111 c 0
 1129 1262 1049 1360 891 1360 c 256
EndSplineSet
Validated: 1
Layer: 2
SplineSet
312 878 m 0,0,1
 312 972 312 972 337 1064 c 128,-1,2
 362 1156 362 1156 413 1238.5 c 128,-1,3
 464 1321 464 1321 535.5 1383.5 c 128,-1,4
 607 1446 607 1446 707 1483 c 128,-1,5
 807 1520 807 1520 922 1520 c 0,6,7
 1032 1520 1032 1520 1112.5 1485 c 128,-1,8
 1193 1450 1193 1450 1241 1384.5 c 128,-1,9
 1289 1319 1289 1319 1312 1232.5 c 128,-1,10
 1335 1146 1335 1146 1335 1035 c 0,11,12
 1335 905 1335 905 1304 745 c 0,13,14
 1260 520 1260 520 1157 347 c 128,-1,15
 1054 174 1054 174 892.5 72.5 c 128,-1,16
 731 -29 731 -29 535 -29 c 0,17,18
 387 -29 387 -29 231 31 c 1,19,-1
 267 215 l 1,20,21
 407 141 407 141 559 141 c 0,22,23
 670 141 670 141 759 181.5 c 128,-1,24
 848 222 848 222 911 297.5 c 128,-1,25
 974 373 974 373 1017.5 467.5 c 128,-1,26
 1061 562 1061 562 1091 684 c 1,27,28
 1021 603 1021 603 924 554.5 c 128,-1,29
 827 506 827 506 712 506 c 0,30,31
 521 506 521 506 416.5 604 c 128,-1,32
 312 702 312 702 312 878 c 0,0,1
891 1360 m 256,33,34
 806 1360 806 1360 738 1325.5 c 128,-1,35
 670 1291 670 1291 630.5 1240 c 128,-1,36
 591 1189 591 1189 564 1125.5 c 128,-1,37
 537 1062 537 1062 527.5 1008.5 c 128,-1,38
 518 955 518 955 518 910 c 0,39,40
 518 795 518 795 579 729.5 c 128,-1,41
 640 664 640 664 756 664 c 0,42,43
 835 664 835 664 900.5 695 c 128,-1,44
 966 726 966 726 1007.5 774 c 128,-1,45
 1049 822 1049 822 1077 883.5 c 128,-1,46
 1105 945 1105 945 1117 1002 c 128,-1,47
 1129 1059 1129 1059 1129 1111 c 0,48,49
 1129 1227 1129 1227 1068 1293.5 c 128,-1,50
 1007 1360 1007 1360 891 1360 c 256,33,34
EndSplineSet
EndChar

StartChar: colon
Encoding: 58 58 30
Width: 690
Flags: W
HStem: 0 254<289 451> 805 254<446 607>
VStem: 240 417
DStem2: 240 0 451 0 0.190809 0.981627<40.2607 258.683 860.237 1078.85>
LayerCount: 3
Fore
SplineSet
289 254 m 1
 500 254 l 1
 451 0 l 1
 240 0 l 1
 289 254 l 1
446 1059 m 1
 657 1059 l 1
 607 805 l 1
 396 805 l 1
 446 1059 l 1
EndSplineSet
Validated: 1
Layer: 2
SplineSet
289 254 m 1,0,-1
 500 254 l 1,1,-1
 451 0 l 1,2,-1
 240 0 l 1,3,-1
 289 254 l 1,0,-1
446 1059 m 1,4,-1
 657 1059 l 1,5,-1
 607 805 l 1,6,-1
 396 805 l 1,7,-1
 446 1059 l 1,4,-1
EndSplineSet
EndChar

StartChar: semicolon
Encoding: 59 59 31
Width: 690
Flags: W
HStem: 805 254<446 607>
VStem: 112 545
DStem2: 193.798 -238 404.798 -238 0.190809 0.981627<366.25 501.126 1102.68 1321.29>
LayerCount: 3
Fore
SplineSet
446 1059 m 1
 657 1059 l 1
 607 805 l 1
 396 805 l 1
 446 1059 l 1
289 254 m 1
 500 254 l 1
 467 82 l 1
 241 -238 l 1
 112 -238 l 1
 256 82 l 1
 289 254 l 1
EndSplineSet
Validated: 1
Layer: 2
SplineSet
446 1059 m 1,0,-1
 657 1059 l 1,1,-1
 607 805 l 1,2,-1
 396 805 l 1,3,-1
 446 1059 l 1,0,-1
289 254 m 1,4,-1
 500 254 l 1,5,-1
 467 82 l 1,6,-1
 241 -238 l 1,7,-1
 112 -238 l 1,8,-1
 256 82 l 1,9,-1
 289 254 l 1,4,-1
EndSplineSet
EndChar

StartChar: less
Encoding: 60 60 32
Width: 1716
Flags: W
DStem2: 592 641 326 559 0.931519 -0.363691<0 1027.94> 358 725 592 641 0.947084 0.320987<194.655 1357.09>
LayerCount: 3
Fore
SplineSet
1695 1008 m 1
 592 641 l 1
 1553 276 l 1
 1517 94 l 1
 326 559 l 1
 358 725 l 1
 1730 1190 l 1
 1695 1008 l 1
EndSplineSet
Validated: 1
Layer: 2
SplineSet
1695 1008 m 1,0,-1
 592 641 l 1,1,-1
 1553 276 l 1,2,-1
 1517 94 l 1,3,-1
 326 559 l 1,4,-1
 358 725 l 1,5,-1
 1730 1190 l 1,6,-1
 1695 1008 l 1,0,-1
EndSplineSet
EndChar

StartChar: equal
Encoding: 61 61 33
Width: 1716
Flags: W
HStem: 352 170<318 1567> 762 168<398 1647>
LayerCount: 3
Fore
SplineSet
398 930 m 1
 1680 930 l 1
 1647 762 l 1
 365 762 l 1
 398 930 l 1
318 522 m 1
 1600 522 l 1
 1567 352 l 1
 285 352 l 1
 318 522 l 1
EndSplineSet
Validated: 1
Layer: 2
SplineSet
398 930 m 1,0,-1
 1680 930 l 1,1,-1
 1647 762 l 1,2,-1
 365 762 l 1,3,-1
 398 930 l 1,0,-1
318 522 m 1,4,-1
 1600 522 l 1,5,-1
 1567 352 l 1,6,-1
 285 352 l 1,7,-1
 318 522 l 1,4,-1
EndSplineSet
EndChar

StartChar: greater
Encoding: 62 62 34
Width: 1716
Flags: W
DStem2: 271 276 235 94 0.947155 0.320777<0 1159.9> 448 1190 413 1008 0.931623 -0.363427<33.5369 1060.34>
LayerCount: 3
Fore
SplineSet
413 1008 m 1
 448 1190 l 1
 1640 725 l 1
 1608 559 l 1
 235 94 l 1
 271 276 l 1
 1372 641 l 1
 413 1008 l 1
EndSplineSet
Validated: 1
Layer: 2
SplineSet
413 1008 m 1,0,-1
 448 1190 l 1,1,-1
 1640 725 l 1,2,-1
 1608 559 l 1,3,-1
 235 94 l 1,4,-1
 271 276 l 1,5,-1
 1372 641 l 1,6,-1
 413 1008 l 1,0,-1
EndSplineSet
EndChar

StartChar: question
Encoding: 63 63 35
Width: 1087
Flags: W
HStem: 0 254<440 594> 1219 21G<387.83 479> 1356 164<576.843 912.872>
VStem: 970 208<1067.45 1303.29>
DStem2: 391 0 594 0 0.190809 0.981627<38.7342 258.683 446.105 764.312> 712 872 846 782 0.771724 0.635958<-162.964 356.761>
LayerCount: 3
Fore
SplineSet
440 254 m 1
 643 254 l 1
 594 0 l 1
 391 0 l 1
 440 254 l 1
832 1520 m 0
 1051 1520 1178 1411 1178 1241 c 0
 1178 1056 1048 947 951 868 c 2
 846 782 l 1
 731 686 717 666 690 524 c 2
 666 401 l 1
 475 401 l 1
 505 555 l 2
 533 700 583 767 712 872 c 1
 820 961 l 1
 907 1031 970 1102 970 1197 c 0
 970 1294 894 1356 766 1356 c 0
 695 1356 574 1335 384 1219 c 1
 420 1407 l 1
 536 1469 671 1520 832 1520 c 0
EndSplineSet
Validated: 1
Layer: 2
SplineSet
440 254 m 1,0,-1
 643 254 l 1,1,-1
 594 0 l 1,2,-1
 391 0 l 1,3,-1
 440 254 l 1,0,-1
832 1520 m 0,4,5
 995 1520 995 1520 1086.5 1445 c 128,-1,6
 1178 1370 1178 1370 1178 1241 c 0,7,8
 1178 1188 1178 1188 1162.5 1138 c 128,-1,9
 1147 1088 1147 1088 1127 1053 c 128,-1,10
 1107 1018 1107 1018 1071.5 979.5 c 128,-1,11
 1036 941 1036 941 1013 920 c 128,-1,12
 990 899 990 899 951 868 c 2,13,-1
 846 782 l 2,14,15
 784 730 784 730 758.5 701 c 128,-1,16
 733 672 733 672 718.5 635.5 c 128,-1,17
 704 599 704 599 690 524 c 2,18,-1
 666 401 l 1,19,-1
 475 401 l 1,20,-1
 505 555 l 2,21,22
 525 661 525 661 568.5 726 c 128,-1,23
 612 791 612 791 712 872 c 2,24,-1
 820 961 l 2,25,26
 893 1020 893 1020 931.5 1075.5 c 128,-1,27
 970 1131 970 1131 970 1197 c 0,28,29
 970 1270 970 1270 915.5 1313 c 128,-1,30
 861 1356 861 1356 766 1356 c 0,31,32
 608 1356 608 1356 384 1219 c 1,33,-1
 420 1407 l 1,34,35
 631 1520 631 1520 832 1520 c 0,4,5
EndSplineSet
EndChar

StartChar: at
Encoding: 64 64 36
Width: 2048
Flags: W
HStem: -356 143<745.06 1250.66> 88 143<928.888 1210.46> 842 145<1035.87 1331.32> 1298 144<1044.87 1549.32>
VStem: 222 145<157.766 635.489> 694 163<303.302 646.766> 1900 146<543.812 982.475>
LayerCount: 3
Fore
SplineSet
1073 231 m 0
 1314 231 1405 469 1405 623 c 0
 1405 757 1331 842 1190 842 c 0
 946 842 857 598 857 449 c 0
 857 315 930 231 1073 231 c 0
222 356 m 0
 222 956 763 1442 1333 1442 c 0
 1775 1442 2046 1149 2046 795 c 0
 2046 471 1833 95 1323 84 c 1
 1353 238 l 1
 1268 150 1160 88 1006 88 c 0
 810 88 694 218 694 419 c 0
 694 690 881 987 1181 987 c 0
 1333 987 1418 925 1470 836 c 1
 1495 967 l 1
 1638 967 l 1
 1495 231 l 1
 1781 273 1900 556 1900 775 c 0
 1900 1093 1640 1298 1307 1298 c 0
 776 1298 367 847 367 390 c 0
 367 47 606 -213 997 -213 c 0
 1193 -213 1377 -136 1511 -45 c 1
 1580 -156 l 1
 1413 -268 1198 -356 969 -356 c 0
 543 -356 222 -78 222 356 c 0
EndSplineSet
Validated: 1
Layer: 2
SplineSet
1073 231 m 0,0,1
 1142 231 1142 231 1199.5 257 c 128,-1,2
 1257 283 1257 283 1294 324.5 c 128,-1,3
 1331 366 1331 366 1357 418.5 c 128,-1,4
 1383 471 1383 471 1394 522.5 c 128,-1,5
 1405 574 1405 574 1405 623 c 0,6,7
 1405 725 1405 725 1349.5 783.5 c 128,-1,8
 1294 842 1294 842 1190 842 c 0,9,10
 1120 842 1120 842 1062 815.5 c 128,-1,11
 1004 789 1004 789 967 747 c 128,-1,12
 930 705 930 705 904.5 651.5 c 128,-1,13
 879 598 879 598 868 547 c 128,-1,14
 857 496 857 496 857 449 c 0,15,16
 857 347 857 347 912.5 289 c 128,-1,17
 968 231 968 231 1073 231 c 0,0,1
222 356 m 0,18,19
 222 532 222 532 282.5 698.5 c 128,-1,20
 343 865 343 865 449.5 998 c 128,-1,21
 556 1131 556 1131 695 1232 c 128,-1,22
 834 1333 834 1333 999 1387.5 c 128,-1,23
 1164 1442 1164 1442 1333 1442 c 0,24,25
 1495 1442 1495 1442 1630.5 1390.5 c 128,-1,26
 1766 1339 1766 1339 1856 1251 c 128,-1,27
 1946 1163 1946 1163 1996 1045.5 c 128,-1,28
 2046 928 2046 928 2046 795 c 0,29,30
 2046 695 2046 695 2020.5 597.5 c 128,-1,31
 1995 500 1995 500 1938 408 c 128,-1,32
 1881 316 1881 316 1798.5 245.5 c 128,-1,33
 1716 175 1716 175 1593.5 131 c 128,-1,34
 1471 87 1471 87 1323 84 c 1,35,-1
 1353 238 l 1,36,37
 1208 88 1208 88 1006 88 c 0,38,39
 860 88 860 88 777 177.5 c 128,-1,40
 694 267 694 267 694 419 c 0,41,42
 694 500 694 500 715.5 582 c 128,-1,43
 737 664 737 664 779.5 736.5 c 128,-1,44
 822 809 822 809 879.5 865 c 128,-1,45
 937 921 937 921 1015.5 954 c 128,-1,46
 1094 987 1094 987 1181 987 c 0,47,48
 1382 987 1382 987 1470 836 c 1,49,-1
 1495 967 l 1,50,-1
 1638 967 l 1,51,-1
 1495 231 l 1,52,53
 1578 243 1578 243 1646.5 282.5 c 128,-1,54
 1715 322 1715 322 1761 377.5 c 128,-1,55
 1807 433 1807 433 1839 501 c 128,-1,56
 1871 569 1871 569 1885.5 638 c 128,-1,57
 1900 707 1900 707 1900 775 c 0,58,59
 1900 930 1900 930 1821 1050.5 c 128,-1,60
 1742 1171 1742 1171 1607.5 1234.5 c 128,-1,61
 1473 1298 1473 1298 1307 1298 c 0,62,63
 1114 1298 1114 1298 937.5 1220 c 128,-1,64
 761 1142 761 1142 637 1015.5 c 128,-1,65
 513 889 513 889 440 724.5 c 128,-1,66
 367 560 367 560 367 390 c 0,67,68
 367 262 367 262 411 151.5 c 128,-1,69
 455 41 455 41 535 -40 c 128,-1,70
 615 -121 615 -121 734 -167 c 128,-1,71
 853 -213 853 -213 997 -213 c 0,72,73
 1135 -213 1135 -213 1268 -166.5 c 128,-1,74
 1401 -120 1401 -120 1511 -45 c 1,75,-1
 1580 -156 l 1,76,77
 1282 -356 1282 -356 969 -356 c 0,78,79
 756 -356 756 -356 587 -269.5 c 128,-1,80
 418 -183 418 -183 320 -20 c 128,-1,81
 222 143 222 143 222 356 c 0,18,19
EndSplineSet
EndChar

StartChar: A
Encoding: 65 65 37
Width: 1401
Flags: W
HStem: 0 21G<16 239.966 1170.76 1384> 383 168<533 1082> 1473 20G<864.48 1108.74>
DStem2: 16 0 229 0 0.499136 0.866524<106.316 543.013 735.508 1053.99 1056.27 1588.47> 1105 1493 952 1294 0.183692 -0.982984<167.509 921.746 1092.4 1480.27>
LayerCount: 3
Fore
SplineSet
952 1294 m 1
 533 551 l 1
 1082 551 l 1
 952 1294 l 1
876 1493 m 1
 1105 1493 l 1
 1384 0 l 1
 1174 0 l 1
 1112 383 l 1
 439 383 l 1
 229 0 l 1
 16 0 l 5
 876 1493 l 1
EndSplineSet
Validated: 1
Layer: 2
SplineSet
952 1294 m 1,0,-1
 533 551 l 1,1,-1
 1082 551 l 1,2,-1
 952 1294 l 1,0,-1
876 1493 m 1,3,-1
 1105 1493 l 1,4,-1
 1384 0 l 1,5,-1
 1174 0 l 1,6,-1
 1112 383 l 1,7,-1
 439 383 l 1,8,-1
 229 0 l 1,9,-1
 16 0 l 1,10,-1
 876 1493 l 1,3,-1
EndSplineSet
EndChar

StartChar: B
Encoding: 66 66 38
Width: 1405
Flags: W
HStem: 0 166<435 965.598> 713 164<573 1066.75> 1327 166<661 1148.09>
VStem: 1141 210<331.992 642.628> 1215 210<1010.98 1269.33>
DStem2: 201 0 402.733 0 0.190809 0.981627<207.599 764.966 931.868 1390.39>
LayerCount: 3
Fore
SplineSet
759 166 m 2xf0
 1064 166 1141 362 1141 516 c 0
 1141 637 1069 713 866 713 c 2
 542 713 l 1
 435 166 l 1
 759 166 l 2xf0
872 877 m 2
 1168 877 1215 1055 1215 1158 c 0xe8
 1215 1292 1098 1327 960 1327 c 2
 661 1327 l 1
 573 877 l 1
 872 877 l 2
1351 510 m 0xf0
 1351 306 1219 0 737 0 c 2
 201 0 l 1
 491 1493 l 1
 1007 1493 l 2
 1256 1493 1425 1406 1425 1207 c 0xe8
 1425 1147 1404 853 1102 805 c 1
 1255 771 1351 670 1351 510 c 0xf0
EndSplineSet
Validated: 1
Layer: 2
SplineSet
759 166 m 2,0,1
 847 166 847 166 915.5 188 c 128,-1,2
 984 210 984 210 1025.5 244.5 c 128,-1,3
 1067 279 1067 279 1094 326.5 c 128,-1,4
 1121 374 1121 374 1131 420 c 128,-1,5
 1141 466 1141 466 1141 516 c 0,6,7
 1141 612 1141 612 1076.5 662.5 c 128,-1,8
 1012 713 1012 713 866 713 c 2,9,-1
 542 713 l 1,10,-1
 435 166 l 1,11,-1
 759 166 l 2,0,1
872 877 m 2,12,13
 957 877 957 877 1021 897 c 128,-1,14
 1085 917 1085 917 1121 946 c 128,-1,15
 1157 975 1157 975 1179 1015 c 128,-1,16
 1201 1055 1201 1055 1208 1088.5 c 128,-1,17
 1215 1122 1215 1122 1215 1158 c 0,18,19
 1215 1327 1215 1327 960 1327 c 2,20,-1
 661 1327 l 1,21,-1
 573 877 l 1,22,-1
 872 877 l 2,12,13
1351 510 m 0,23,24
 1351 444 1351 444 1334 378.5 c 128,-1,25
 1317 313 1317 313 1273 243 c 128,-1,26
 1229 173 1229 173 1162 120.5 c 128,-1,27
 1095 68 1095 68 985 34 c 128,-1,28
 875 0 875 0 737 0 c 2,29,-1
 201 0 l 1,30,-1
 491 1493 l 1,31,-1
 1007 1493 l 2,32,33
 1202 1493 1202 1493 1313.5 1422 c 128,-1,34
 1425 1351 1425 1351 1425 1207 c 0,35,36
 1425 1186 1425 1186 1421.5 1159 c 128,-1,37
 1418 1132 1418 1132 1408.5 1087.5 c 128,-1,38
 1399 1043 1399 1043 1376.5 1001 c 128,-1,39
 1354 959 1354 959 1320.5 918 c 128,-1,40
 1287 877 1287 877 1230.5 846.5 c 128,-1,41
 1174 816 1174 816 1102 805 c 1,42,43
 1219 779 1219 779 1285 703.5 c 128,-1,44
 1351 628 1351 628 1351 510 c 0,23,24
EndSplineSet
EndChar

StartChar: C
Encoding: 67 67 39
Width: 1430
Flags: W
HStem: -29 166<654.191 1121.58> 1354 166<890.301 1349.27>
VStem: 239 214<340.922 842.456>
LayerCount: 3
Fore
SplineSet
239 538 m 0
 239 893 452 1520 1139 1520 c 0
 1294 1520 1452 1485 1587 1378 c 1
 1545 1165 l 1
 1442 1283 1304 1354 1119 1354 c 0
 720 1354 453 1030 453 556 c 0
 453 293 591 137 883 137 c 0
 1068 137 1233 208 1382 326 c 1
 1341 115 l 1
 1164 9 992 -29 838 -29 c 0
 452 -29 239 182 239 538 c 0
EndSplineSet
Validated: 1
Layer: 2
SplineSet
239 538 m 0,0,1
 239 618 239 618 252.5 704.5 c 128,-1,2
 266 791 266 791 297.5 887.5 c 128,-1,3
 329 984 329 984 376.5 1073.5 c 128,-1,4
 424 1163 424 1163 497 1245 c 128,-1,5
 570 1327 570 1327 660 1387.5 c 128,-1,6
 750 1448 750 1448 873.5 1484 c 128,-1,7
 997 1520 997 1520 1139 1520 c 0,8,9
 1408 1520 1408 1520 1587 1378 c 1,10,-1
 1545 1165 l 1,11,12
 1380 1354 1380 1354 1119 1354 c 0,13,14
 922 1354 922 1354 770.5 1254 c 128,-1,15
 619 1154 619 1154 536 972.5 c 128,-1,16
 453 791 453 791 453 556 c 0,17,18
 453 355 453 355 560.5 246 c 128,-1,19
 668 137 668 137 883 137 c 0,20,21
 1143 137 1143 137 1382 326 c 1,22,-1
 1341 115 l 1,23,24
 1101 -29 1101 -29 838 -29 c 0,25,26
 550 -29 550 -29 394.5 120 c 128,-1,27
 239 269 239 269 239 538 c 0,0,1
EndSplineSet
EndChar

StartChar: D
Encoding: 68 68 40
Width: 1577
Flags: W
HStem: 0 166<435 965.289> 1327 166<661 1180.69>
VStem: 1408 216<665.626 1131.28>
DStem2: 201 0 402.733 0 0.190809 0.981627<207.599 1390.39>
LayerCount: 3
Fore
SplineSet
1388 748 m 0
 1401 815 1408 876 1408 931 c 0
 1408 1207 1242 1327 905 1327 c 2
 661 1327 l 1
 435 166 l 1
 679 166 l 2
 1083 166 1309 340 1388 748 c 0
1601 748 m 0
 1497 211 1163 0 616 0 c 2
 201 0 l 1
 491 1493 l 1
 906 1493 l 2
 1372 1493 1624 1342 1624 966 c 0
 1624 900 1617 828 1601 748 c 0
EndSplineSet
Validated: 1
Layer: 2
SplineSet
1388 748 m 0,0,1
 1408 851 1408 851 1408 931 c 0,2,3
 1408 1136 1408 1136 1284 1231.5 c 128,-1,4
 1160 1327 1160 1327 905 1327 c 2,5,-1
 661 1327 l 1,6,-1
 435 166 l 1,7,-1
 679 166 l 2,8,9
 985 166 985 166 1157 305.5 c 128,-1,10
 1329 445 1329 445 1388 748 c 0,0,1
1601 748 m 0,11,12
 1525 355 1525 355 1281 177.5 c 128,-1,13
 1037 0 1037 0 616 0 c 2,14,-1
 201 0 l 1,15,-1
 491 1493 l 1,16,-1
 906 1493 l 2,17,18
 1264 1493 1264 1493 1444 1367.5 c 128,-1,19
 1624 1242 1624 1242 1624 966 c 0,20,21
 1624 863 1624 863 1601 748 c 0,11,12
EndSplineSet
EndChar

StartChar: E
Encoding: 69 69 41
Width: 1294
Flags: W
HStem: 0 170<436 1163> 711 170<574 1252> 1323 170<660 1402>
DStem2: 201 0 402.955 0 0.190809 0.981627<211.717 762.812 935.985 1386.27>
LayerCount: 3
Fore
SplineSet
491 1493 m 1
 1435 1493 l 1
 1402 1323 l 1
 660 1323 l 1
 574 881 l 1
 1285 881 l 1
 1252 711 l 1
 541 711 l 1
 436 170 l 1
 1196 170 l 1
 1163 0 l 1
 201 0 l 5
 491 1493 l 1
EndSplineSet
Validated: 1
Layer: 2
SplineSet
491 1493 m 1,0,-1
 1435 1493 l 1,1,-1
 1402 1323 l 1,2,-1
 660 1323 l 1,3,-1
 574 881 l 1,4,-1
 1285 881 l 1,5,-1
 1252 711 l 1,6,-1
 541 711 l 1,7,-1
 436 170 l 1,8,-1
 1196 170 l 1,9,-1
 1163 0 l 1,10,-1
 201 0 l 1,11,-1
 491 1493 l 1,0,-1
EndSplineSet
EndChar

StartChar: F
Encoding: 70 70 42
Width: 1178
Flags: W
HStem: 0 21G<201 406.899> 713 170<575 1134> 1323 170<660 1316>
DStem2: 201 0 403 0 0.190809 0.981627<38.5434 764.966 938.139 1386.27>
LayerCount: 3
Fore
SplineSet
491 1493 m 1
 1349 1493 l 1
 1316 1323 l 1
 660 1323 l 1
 575 883 l 1
 1167 883 l 1
 1134 713 l 1
 542 713 l 1
 403 0 l 1
 201 0 l 1
 491 1493 l 1
EndSplineSet
Validated: 1
Layer: 2
SplineSet
491 1493 m 1,0,-1
 1349 1493 l 1,1,-1
 1316 1323 l 1,2,-1
 660 1323 l 1,3,-1
 575 883 l 1,4,-1
 1167 883 l 1,5,-1
 1134 713 l 1,6,-1
 542 713 l 1,7,-1
 403 0 l 1,8,-1
 201 0 l 1,9,-1
 491 1493 l 1,0,-1
EndSplineSet
EndChar

StartChar: G
Encoding: 71 71 43
Width: 1587
Flags: W
HStem: -29 166<660.757 1166.07> 614 166<1041 1338> 1354 166<882.16 1385.2>
VStem: 238 214<335.361 829.423>
DStem2: 1212.96 -29 1413.34 -29 0.190809 0.981627<215.462 655.045>
LayerCount: 3
Fore
SplineSet
238 535 m 0
 238 859 422 1520 1155 1520 c 0
 1311 1520 1495 1488 1648 1378 c 1
 1606 1163 l 1
 1492 1278 1341 1354 1140 1354 c 0
 762 1354 549 1135 473 745 c 0
 460 678 452 613 452 550 c 0
 452 320 559 137 904 137 c 0
 1047 137 1160 161 1260 213 c 1
 1338 614 l 1
 1008 614 l 1
 1041 780 l 1
 1571 780 l 1
 1446 139 l 1
 1282 37 1083 -29 854 -29 c 0
 457 -29 238 176 238 535 c 0
EndSplineSet
Validated: 1
Layer: 2
SplineSet
238 535 m 0,0,1
 238 609 238 609 250 691.5 c 128,-1,2
 262 774 262 774 292 871.5 c 128,-1,3
 322 969 322 969 367.5 1059 c 128,-1,4
 413 1149 413 1149 486.5 1234 c 128,-1,5
 560 1319 560 1319 652 1381.5 c 128,-1,6
 744 1444 744 1444 873.5 1482 c 128,-1,7
 1003 1520 1003 1520 1155 1520 c 0,8,9
 1450 1520 1450 1520 1648 1378 c 1,10,-1
 1606 1163 l 1,11,12
 1417 1354 1417 1354 1140 1354 c 0,13,14
 592 1354 592 1354 473 745 c 0,15,16
 452 637 452 637 452 550 c 0,17,18
 452 137 452 137 904 137 c 0,19,20
 1114 137 1114 137 1260 213 c 1,21,-1
 1338 614 l 1,22,-1
 1008 614 l 1,23,-1
 1041 780 l 1,24,-1
 1571 780 l 1,25,-1
 1446 139 l 1,26,27
 1176 -29 1176 -29 854 -29 c 0,28,29
 557 -29 557 -29 397.5 118 c 128,-1,30
 238 265 238 265 238 535 c 0,0,1
EndSplineSet
EndChar

StartChar: H
Encoding: 72 72 44
Width: 1540
Flags: W
HStem: 0 21G<201 406.882 1137 1342.88> 711 170<574 1275> 1473 20G<487.115 693 1423.11 1629>
DStem2: 201 0 403 0 0.190809 0.981627<38.5434 762.812 935.985 1520.9> 1137 0 1339 0 0.190809 0.981627<38.5434 724.269 897.442 1520.9>
LayerCount: 3
Fore
SplineSet
491 1493 m 1
 693 1493 l 1
 574 881 l 1
 1308 881 l 1
 1427 1493 l 1
 1629 1493 l 1
 1339 0 l 1
 1137 0 l 1
 1275 711 l 1
 541 711 l 1
 403 0 l 1
 201 0 l 1
 491 1493 l 1
EndSplineSet
Validated: 1
Layer: 2
SplineSet
491 1493 m 1,0,-1
 693 1493 l 1,1,-1
 574 881 l 1,2,-1
 1308 881 l 1,3,-1
 1427 1493 l 1,4,-1
 1629 1493 l 1,5,-1
 1339 0 l 1,6,-1
 1137 0 l 1,7,-1
 1275 711 l 1,8,-1
 541 711 l 1,9,-1
 403 0 l 1,10,-1
 201 0 l 1,11,-1
 491 1493 l 1,0,-1
EndSplineSet
EndChar

StartChar: I
Encoding: 73 73 45
Width: 604
Flags: W
HStem: 0 21G<201 406.885> 1473 20G<487.115 693>
VStem: 201 492
DStem2: 201 0 403 0 0.190809 0.981627<38.5434 1520.9>
LayerCount: 3
Fore
SplineSet
491 1493 m 1
 693 1493 l 1
 403 0 l 1
 201 0 l 1
 491 1493 l 1
EndSplineSet
Validated: 1
Layer: 2
SplineSet
491 1493 m 1,0,-1
 693 1493 l 1,1,-1
 403 0 l 1,2,-1
 201 0 l 1,3,-1
 491 1493 l 1,0,-1
EndSplineSet
EndChar

StartChar: J
Encoding: 74 74 46
Width: 604
Flags: W
HStem: -410 170<-153 66.9953> 1473 20G<487.112 693>
DStem2: 121.089 -410 323.089 -410 0.190809 0.981627<261.208 1938.62>
LayerCount: 3
Fore
SplineSet
-90 -240 m 2
 105 -240 177 -125 221 104 c 2
 491 1493 l 1
 693 1493 l 1
 423 104 l 2
 359 -227 215 -410 -109 -410 c 2
 -186 -410 l 1
 -153 -240 l 1
 -90 -240 l 2
EndSplineSet
Validated: 1
Layer: 2
SplineSet
-90 -240 m 2,0,1
 50 -240 50 -240 118 -158.5 c 128,-1,2
 186 -77 186 -77 221 104 c 2,3,-1
 491 1493 l 1,4,-1
 693 1493 l 1,5,-1
 423 104 l 2,6,7
 373 -155 373 -155 249.5 -282.5 c 128,-1,8
 126 -410 126 -410 -109 -410 c 2,9,-1
 -186 -410 l 1,10,-1
 -153 -240 l 1,11,-1
 -90 -240 l 2,0,1
EndSplineSet
EndChar

StartChar: K
Encoding: 75 75 47
Width: 1343
Flags: W
HStem: 0 21G<201 406.894 1103.95 1386> 1473 20G<487.115 693 1337.9 1623>
DStem2: 201 0 403 0 0.190809 0.981627<38.5434 771.047 916.762 1520.9> 747 797 543 719 0.62553 -0.7802<0 855.142> 571 862 747 797 0.782957 0.622076<97.3656 1012.63>
LayerCount: 3
Fore
SplineSet
491 1493 m 1
 693 1493 l 1
 571 862 l 1
 1363 1493 l 1
 1623 1493 l 1
 747 797 l 1
 1386 0 l 1
 1120 0 l 1
 543 719 l 1
 403 0 l 1
 201 0 l 1
 491 1493 l 1
EndSplineSet
Validated: 1
Layer: 2
SplineSet
491 1493 m 1,0,-1
 693 1493 l 1,1,-1
 571 862 l 1,2,-1
 1363 1493 l 1,3,-1
 1623 1493 l 1,4,-1
 747 797 l 1,5,-1
 1386 0 l 1,6,-1
 1120 0 l 1,7,-1
 543 719 l 1,8,-1
 403 0 l 1,9,-1
 201 0 l 1,10,-1
 491 1493 l 1,0,-1
EndSplineSet
EndChar

StartChar: L
Encoding: 76 76 48
Width: 1141
Flags: W
HStem: 0 170<436 1130> 1473 20G<487.115 693>
DStem2: 201 0 402.955 0 0.190809 0.981627<211.717 1520.9>
LayerCount: 3
Fore
SplineSet
491 1493 m 1
 693 1493 l 1
 436 170 l 1
 1163 170 l 1
 1130 0 l 1
 201 0 l 1
 491 1493 l 1
EndSplineSet
Validated: 1
Layer: 2
SplineSet
491 1493 m 1,0,-1
 693 1493 l 1,1,-1
 436 170 l 1,2,-1
 1163 170 l 1,3,-1
 1130 0 l 1,4,-1
 201 0 l 1,5,-1
 491 1493 l 1,0,-1
EndSplineSet
EndChar

StartChar: M
Encoding: 77 77 49
Width: 1767
Flags: W
HStem: 0 21G<201 400.89 1370 1570.88> 1473 20G<487.115 795.622 1544.58 1857>
DStem2: 201 0 397 0 0.190809 0.981627<37.3986 1372.97> 792 1493 652 1311 0.178716 -0.983901<154.05 1032.53> 976 477 1041 287 0.495408 0.86866<0 1045.98> 1370 0 1567 0 0.190809 0.981627<37.5894 1335.57>
LayerCount: 3
Fore
SplineSet
491 1493 m 1
 792 1493 l 1
 976 477 l 1
 1556 1493 l 1
 1857 1493 l 1
 1567 0 l 1
 1370 0 l 1
 1625 1311 l 1
 1041 287 l 1
 838 287 l 1
 652 1311 l 1
 397 0 l 1
 201 0 l 1
 491 1493 l 1
EndSplineSet
Validated: 1
Layer: 2
SplineSet
491 1493 m 1,0,-1
 792 1493 l 1,1,-1
 976 477 l 1,2,-1
 1556 1493 l 1,3,-1
 1857 1493 l 1,4,-1
 1567 0 l 1,5,-1
 1370 0 l 1,6,-1
 1625 1311 l 1,7,-1
 1041 287 l 1,8,-1
 838 287 l 1,9,-1
 652 1311 l 1,10,-1
 397 0 l 1,11,-1
 201 0 l 1,12,-1
 491 1493 l 1,0,-1
EndSplineSet
EndChar

StartChar: N
Encoding: 78 78 50
Width: 1532
Flags: W
HStem: 0 21G<201 400.891 1052.29 1334.88> 1473 20G<487.115 769.709 1421.11 1621>
DStem2: 201 0 397 0 0.190809 0.981627<37.3986 1309.82> 763 1493 640 1249 0.318049 -0.948074<192.21 1317.41> 1134.57 0 1331 0 0.190809 0.981627<248.567 1520.99>
LayerCount: 3
Fore
SplineSet
491 1493 m 1
 763 1493 l 1
 1182 244 l 1
 1425 1493 l 1
 1621 1493 l 1
 1331 0 l 1
 1059 0 l 1
 640 1249 l 1
 397 0 l 1
 201 0 l 5
 491 1493 l 1
EndSplineSet
Validated: 1
Layer: 2
SplineSet
491 1493 m 1,0,-1
 763 1493 l 1,1,-1
 1182 244 l 1,2,-1
 1425 1493 l 1,3,-1
 1621 1493 l 1,4,-1
 1331 0 l 1,5,-1
 1059 0 l 1,6,-1
 640 1249 l 1,7,-1
 397 0 l 1,8,-1
 201 0 l 1,9,-1
 491 1493 l 1,0,-1
EndSplineSet
EndChar

StartChar: O
Encoding: 79 79 51
Width: 1612
Flags: W
HStem: -29 164<640.973 1031.9> 1356 164<865.352 1261.86>
VStem: 238 216<329.677 832.961> 1448 215<657.858 1160.81>
LayerCount: 3
Fore
SplineSet
833 135 m 256
 1269 135 1448 616 1448 933 c 0
 1448 1185 1328 1356 1071 1356 c 256
 633 1356 454 873 454 559 c 0
 454 307 575 135 833 135 c 256
238 536 m 0
 238 925 484 1520 1102 1520 c 0
 1464 1520 1663 1299 1663 953 c 0
 1663 517 1382 -29 801 -29 c 0
 438 -29 238 190 238 536 c 0
EndSplineSet
Validated: 1
Layer: 2
SplineSet
833 135 m 256,0,1
 924 135 924 135 1004.5 162.5 c 128,-1,2
 1085 190 1085 190 1146 237.5 c 128,-1,3
 1207 285 1207 285 1258 349.5 c 128,-1,4
 1309 414 1309 414 1343.5 486 c 128,-1,5
 1378 558 1378 558 1402 636 c 128,-1,6
 1426 714 1426 714 1437 788.5 c 128,-1,7
 1448 863 1448 863 1448 933 c 0,8,9
 1448 1129 1448 1129 1353 1242.5 c 128,-1,10
 1258 1356 1258 1356 1071 1356 c 0,11,12
 965 1356 965 1356 873.5 1319 c 128,-1,13
 782 1282 782 1282 716 1219 c 128,-1,14
 650 1156 650 1156 598.5 1075.5 c 128,-1,15
 547 995 547 995 516 905 c 128,-1,16
 485 815 485 815 469.5 727.5 c 128,-1,17
 454 640 454 640 454 559 c 0,18,19
 454 363 454 363 549.5 249 c 128,-1,20
 645 135 645 135 833 135 c 256,0,1
238 536 m 0,21,22
 238 622 238 622 253 713.5 c 128,-1,23
 268 805 268 805 301.5 901.5 c 128,-1,24
 335 998 335 998 383 1087 c 128,-1,25
 431 1176 431 1176 502.5 1255 c 128,-1,26
 574 1334 574 1334 660 1393 c 128,-1,27
 746 1452 746 1452 860 1486 c 128,-1,28
 974 1520 974 1520 1102 1520 c 0,29,30
 1370 1520 1370 1520 1516.5 1368 c 128,-1,31
 1663 1216 1663 1216 1663 953 c 0,32,33
 1663 819 1663 819 1630 683.5 c 128,-1,34
 1597 548 1597 548 1526 419 c 128,-1,35
 1455 290 1455 290 1356 191 c 128,-1,36
 1257 92 1257 92 1113 31.5 c 128,-1,37
 969 -29 969 -29 801 -29 c 0,38,39
 532 -29 532 -29 385 122 c 128,-1,40
 238 273 238 273 238 536 c 0,21,22
EndSplineSet
EndChar

StartChar: P
Encoding: 80 80 52
Width: 1235
Flags: W
HStem: 0 21G<201 406.9> 600 166<552 987.022> 1327 166<661 1085.93>
VStem: 1163 218<938.097 1251.86>
DStem2: 201 0 403 0 0.190809 0.981627<38.5434 649.844 818.9 1390.39>
LayerCount: 3
Fore
SplineSet
806 766 m 2
 1092 766 1163 993 1163 1120 c 0
 1163 1254 1075 1327 915 1327 c 2
 661 1327 l 1
 552 766 l 1
 806 766 l 2
1381 1161 m 0
 1381 979 1293 600 774 600 c 2
 520 600 l 1
 403 0 l 1
 201 0 l 1
 491 1493 l 1
 947 1493 l 2
 1278 1493 1381 1343 1381 1161 c 0
EndSplineSet
Validated: 1
Layer: 2
SplineSet
806 766 m 2,0,1
 888 766 888 766 952.5 791 c 128,-1,2
 1017 816 1017 816 1055.5 854 c 128,-1,3
 1094 892 1094 892 1119.5 941 c 128,-1,4
 1145 990 1145 990 1154 1034 c 128,-1,5
 1163 1078 1163 1078 1163 1120 c 0,6,7
 1163 1220 1163 1220 1099 1273.5 c 128,-1,8
 1035 1327 1035 1327 915 1327 c 2,9,-1
 661 1327 l 1,10,-1
 552 766 l 1,11,-1
 806 766 l 2,0,1
1381 1161 m 0,12,13
 1381 1118 1381 1118 1375 1072.5 c 128,-1,14
 1369 1027 1369 1027 1351.5 970.5 c 128,-1,15
 1334 914 1334 914 1306 863.5 c 128,-1,16
 1278 813 1278 813 1230.5 764 c 128,-1,17
 1183 715 1183 715 1121.5 679.5 c 128,-1,18
 1060 644 1060 644 970.5 622 c 128,-1,19
 881 600 881 600 774 600 c 2,20,-1
 520 600 l 1,21,-1
 403 0 l 1,22,-1
 201 0 l 1,23,-1
 491 1493 l 1,24,-1
 947 1493 l 2,25,26
 1067 1493 1067 1493 1153.5 1467.5 c 128,-1,27
 1240 1442 1240 1442 1288.5 1395 c 128,-1,28
 1337 1348 1337 1348 1359 1290.5 c 128,-1,29
 1381 1233 1381 1233 1381 1161 c 0,12,13
EndSplineSet
EndChar

StartChar: Q
Encoding: 81 81 53
Width: 1612
Flags: W
HStem: -29 164<641.006 897.312> 1356 164<866.002 1261.86>
VStem: 239 215<330.354 834.646> 1448 215<656.268 1160.81>
LayerCount: 3
Fore
SplineSet
833 135 m 256
 1269 135 1448 616 1448 933 c 0
 1448 1185 1328 1356 1071 1356 c 256
 633 1356 454 873 454 559 c 0
 454 307 575 135 833 135 c 256
1663 953 m 0
 1663 747 1582 226 1095 27 c 1
 1305 -264 l 1
 1061 -264 l 1
 886 -25 l 1
 818 -29 826 -29 801 -29 c 0
 438 -29 239 191 239 538 c 0
 239 931 488 1520 1102 1520 c 0
 1464 1520 1663 1299 1663 953 c 0
EndSplineSet
Validated: 1
Layer: 2
SplineSet
833 135 m 256,0,1
 924 135 924 135 1004.5 162.5 c 128,-1,2
 1085 190 1085 190 1146 237.5 c 128,-1,3
 1207 285 1207 285 1258 349.5 c 128,-1,4
 1309 414 1309 414 1343.5 486 c 128,-1,5
 1378 558 1378 558 1402 636 c 128,-1,6
 1426 714 1426 714 1437 788.5 c 128,-1,7
 1448 863 1448 863 1448 933 c 0,8,9
 1448 1129 1448 1129 1353 1242.5 c 128,-1,10
 1258 1356 1258 1356 1071 1356 c 0,11,12
 965 1356 965 1356 873.5 1319 c 128,-1,13
 782 1282 782 1282 716 1219 c 128,-1,14
 650 1156 650 1156 598.5 1075.5 c 128,-1,15
 547 995 547 995 516 905 c 128,-1,16
 485 815 485 815 469.5 727.5 c 128,-1,17
 454 640 454 640 454 559 c 0,18,19
 454 363 454 363 549.5 249 c 128,-1,20
 645 135 645 135 833 135 c 256,0,1
1663 953 m 0,21,22
 1663 903 1663 903 1657.5 847 c 128,-1,23
 1652 791 1652 791 1635.5 714.5 c 128,-1,24
 1619 638 1619 638 1593 564.5 c 128,-1,25
 1567 491 1567 491 1522.5 410.5 c 128,-1,26
 1478 330 1478 330 1421 261.5 c 128,-1,27
 1364 193 1364 193 1279.5 130.5 c 128,-1,28
 1195 68 1195 68 1095 27 c 1,29,-1
 1305 -264 l 1,30,-1
 1061 -264 l 1,31,-1
 886 -25 l 1,32,33
 818 -29 818 -29 801 -29 c 0,34,35
 532 -29 532 -29 385.5 122.5 c 128,-1,36
 239 274 239 274 239 538 c 0,37,38
 239 624 239 624 254.5 716 c 128,-1,39
 270 808 270 808 303 904.5 c 128,-1,40
 336 1001 336 1001 385 1089.5 c 128,-1,41
 434 1178 434 1178 505 1257 c 128,-1,42
 576 1336 576 1336 662 1394 c 128,-1,43
 748 1452 748 1452 861 1486 c 128,-1,44
 974 1520 974 1520 1102 1520 c 0,45,46
 1370 1520 1370 1520 1516.5 1368 c 128,-1,47
 1663 1216 1663 1216 1663 953 c 0,21,22
EndSplineSet
EndChar

StartChar: R
Encoding: 82 82 54
Width: 1423
Flags: W
HStem: 0 21G<201 406.899 1140.89 1364> 631 166<558 913.918> 1327 166<661 1090.19>
VStem: 1166 218<959.993 1257.39>
DStem2: 201 0 403 0 0.190809 0.981627<38.5434 681.42 850.476 1390.39> 1238 408 1030 383 0.295073 -0.955475<-258.779 362.982>
LayerCount: 3
Fore
SplineSet
1384 1177 m 0
 1384 1007 1307 772 1045 700 c 1
 1104 679 1177 616 1238 408 c 1
 1364 0 l 1
 1147 0 l 1
 1030 383 l 1
 977 564 918 631 746 631 c 2
 526 631 l 1
 403 0 l 1
 201 0 l 1
 491 1493 l 1
 947 1493 l 2
 1224 1493 1384 1400 1384 1177 c 0
812 797 m 2
 1114 797 1166 1025 1166 1133 c 0
 1166 1266 1076 1327 915 1327 c 2
 661 1327 l 1
 558 797 l 1
 812 797 l 2
EndSplineSet
Validated: 1
Layer: 2
SplineSet
1384 1177 m 0,0,1
 1384 1108 1384 1108 1367 1040 c 128,-1,2
 1350 972 1350 972 1313.5 903 c 128,-1,3
 1277 834 1277 834 1207.5 780 c 128,-1,4
 1138 726 1138 726 1045 700 c 1,5,6
 1165 657 1165 657 1238 408 c 2,7,-1
 1364 0 l 1,8,-1
 1147 0 l 1,9,-1
 1030 383 l 2,10,11
 989 523 989 523 930.5 577 c 128,-1,12
 872 631 872 631 746 631 c 2,13,-1
 526 631 l 1,14,-1
 403 0 l 1,15,-1
 201 0 l 1,16,-1
 491 1493 l 1,17,-1
 947 1493 l 2,18,19
 1384 1493 1384 1493 1384 1177 c 0,0,1
812 797 m 2,20,21
 898 797 898 797 964.5 822 c 128,-1,22
 1031 847 1031 847 1067.5 883.5 c 128,-1,23
 1104 920 1104 920 1127.5 968.5 c 128,-1,24
 1151 1017 1151 1017 1158.5 1056 c 128,-1,25
 1166 1095 1166 1095 1166 1133 c 0,26,27
 1166 1327 1166 1327 915 1327 c 2,28,-1
 661 1327 l 1,29,-1
 558 797 l 1,30,-1
 812 797 l 2,20,21
EndSplineSet
EndChar

StartChar: S
Encoding: 83 83 55
Width: 1300
Flags: W
HStem: -29 164<388.2 869.814> 1356 164<722.993 1191.24>
VStem: 338 210<957.54 1204.38> 1058 218<301.91 572.071>
DStem2: 794 879 696 686 0.980263 -0.1977<-224.819 268.687>
LayerCount: 3
Fore
SplineSet
338 1001 m 0
 338 1214 490 1520 954 1520 c 0
 1116 1520 1261 1485 1377 1444 c 1
 1338 1247 l 1
 1247 1295 1108 1356 946 1356 c 0
 627 1356 548 1176 548 1057 c 0
 548 956 623 916 794 879 c 2
 911 854 l 2
 1136 806 1276 709 1276 512 c 0
 1276 331 1181 -29 608 -29 c 0
 419 -29 248 29 154 66 c 1
 194 274 l 1
 300 207 451 135 640 135 c 0
 976 135 1058 327 1058 455 c 0
 1058 573 970 630 815 662 c 2
 696 686 l 2
 467 733 338 821 338 1001 c 0
EndSplineSet
Validated: 1
Layer: 2
SplineSet
338 1001 m 0,0,1
 338 1069 338 1069 357 1137 c 128,-1,2
 376 1205 376 1205 422 1275 c 128,-1,3
 468 1345 468 1345 536 1398.5 c 128,-1,4
 604 1452 604 1452 712.5 1486 c 128,-1,5
 821 1520 821 1520 954 1520 c 0,6,7
 1162 1520 1162 1520 1377 1444 c 1,8,-1
 1338 1247 l 1,9,10
 1131 1356 1131 1356 946 1356 c 0,11,12
 854 1356 854 1356 782.5 1336 c 128,-1,13
 711 1316 711 1316 668 1285.5 c 128,-1,14
 625 1255 625 1255 597 1213.5 c 128,-1,15
 569 1172 569 1172 558.5 1134 c 128,-1,16
 548 1096 548 1096 548 1057 c 0,17,18
 548 984 548 984 604 946 c 128,-1,19
 660 908 660 908 794 879 c 2,20,-1
 911 854 l 2,21,22
 1089 816 1089 816 1182.5 735 c 128,-1,23
 1276 654 1276 654 1276 512 c 0,24,25
 1276 469 1276 469 1269.5 425 c 128,-1,26
 1263 381 1263 381 1243.5 326 c 128,-1,27
 1224 271 1224 271 1193.5 222.5 c 128,-1,28
 1163 174 1163 174 1111 127 c 128,-1,29
 1059 80 1059 80 991.5 46.5 c 128,-1,30
 924 13 924 13 825 -8 c 128,-1,31
 726 -29 726 -29 608 -29 c 0,32,33
 395 -29 395 -29 154 66 c 1,34,-1
 194 274 l 1,35,36
 414 135 414 135 640 135 c 0,37,38
 736 135 736 135 812 156.5 c 128,-1,39
 888 178 888 178 933 210.5 c 128,-1,40
 978 243 978 243 1007 287 c 128,-1,41
 1036 331 1036 331 1047 372 c 128,-1,42
 1058 413 1058 413 1058 455 c 0,43,44
 1058 540 1058 540 997.5 588.5 c 128,-1,45
 937 637 937 637 815 662 c 2,46,-1
 696 686 l 2,47,48
 517 723 517 723 427.5 797 c 128,-1,49
 338 871 338 871 338 1001 c 0,0,1
EndSplineSet
EndChar

StartChar: T
Encoding: 84 84 56
Width: 1251
Flags: W
HStem: 0 21G<524 730.885> 1323 170<284 781 984 1514>
DStem2: 524 0 727 0 0.190809 0.981627<38.7342 1347.73>
LayerCount: 3
Fore
SplineSet
284 1493 m 1
 1547 1493 l 1
 1514 1323 l 1
 984 1323 l 1
 727 0 l 1
 524 0 l 1
 781 1323 l 1
 251 1323 l 1
 284 1493 l 1
EndSplineSet
Validated: 1
Layer: 2
SplineSet
284 1493 m 1,0,-1
 1547 1493 l 1,1,-1
 1514 1323 l 1,2,-1
 984 1323 l 1,3,-1
 727 0 l 1,4,-1
 524 0 l 1,5,-1
 781 1323 l 1,6,-1
 251 1323 l 1,7,-1
 284 1493 l 1,0,-1
EndSplineSet
EndChar

StartChar: U
Encoding: 85 85 57
Width: 1499
Flags: W
HStem: -29 164<581.243 986.283> 1473 20G<464.116 671 1404.12 1611>
VStem: 268 208<233.943 688.633>
DStem2: 172.316 -29 375.456 -29 0.190809 0.981627<493.151 1550.46> 1112.46 -29 1315.32 -29 0.190809 0.981627<343.814 1550.43>
LayerCount: 3
Fore
SplineSet
744 -29 m 0
 426 -29 268 113 268 384 c 0
 268 438 275 497 287 561 c 2
 468 1493 l 1
 671 1493 l 1
 495 586 l 2
 482 520 476 462 476 412 c 0
 476 204 586 135 776 135 c 0
 1057 135 1176 297 1232 586 c 2
 1408 1493 l 1
 1611 1493 l 1
 1430 561 l 2
 1355 175 1124 -29 744 -29 c 0
EndSplineSet
Validated: 1
Layer: 2
SplineSet
744 -29 m 0,0,1
 507 -29 507 -29 387.5 75.5 c 128,-1,2
 268 180 268 180 268 384 c 0,3,4
 268 460 268 460 287 561 c 2,5,-1
 468 1493 l 1,6,-1
 671 1493 l 1,7,-1
 495 586 l 2,8,9
 476 490 476 490 476 412 c 0,10,11
 476 262 476 262 551 198.5 c 128,-1,12
 626 135 626 135 776 135 c 0,13,14
 979 135 979 135 1083.5 246.5 c 128,-1,15
 1188 358 1188 358 1232 586 c 2,16,-1
 1408 1493 l 1,17,-1
 1611 1493 l 1,18,-1
 1430 561 l 2,19,20
 1374 270 1374 270 1201 120.5 c 128,-1,21
 1028 -29 1028 -29 744 -29 c 0,0,1
EndSplineSet
EndChar

StartChar: V
Encoding: 86 86 58
Width: 1401
Flags: W
HStem: 0 21G<582.249 826.507> 1473 20G<306 520.644 1452.58 1674>
DStem2: 517 1493 306 1493 0.184328 -0.982865<0 1277.67> 746 236 815 0 0.4987 0.866775<0 1447.6>
LayerCount: 3
Fore
SplineSet
586 0 m 1
 306 1493 l 1
 517 1493 l 1
 746 236 l 1
 1464 1493 l 1
 1674 1493 l 1
 815 0 l 1
 586 0 l 1
EndSplineSet
Validated: 1
Layer: 2
SplineSet
586 0 m 1,0,-1
 306 1493 l 1,1,-1
 517 1493 l 1,2,-1
 746 236 l 1,3,-1
 1464 1493 l 1,4,-1
 1674 1493 l 1,5,-1
 815 0 l 1,6,-1
 586 0 l 1,0,-1
EndSplineSet
EndChar

StartChar: W
Encoding: 87 87 59
Width: 2025
Flags: W
HStem: 0 21G<440.875 704.796 1328.03 1591.91> 1473 20G<358 563.094 1180.16 1417.09 2034.16 2248>
DStem2: 562 1493 358 1493 0.0561737 -0.998421<0 1263.88> 631 231 696 0 0.402597 0.915377<0 1230.53> 1485 231 1583 0 0.406876 0.913483<0 1379.85>
LayerCount: 3
Fore
SplineSet
358 1493 m 1
 562 1493 l 1
 631 231 l 1
 1189 1493 l 1
 1416 1493 l 1
 1485 231 l 1
 2043 1493 l 1
 2248 1493 l 1
 1583 0 l 1
 1329 0 l 1
 1266 1296 l 1
 696 0 l 1
 442 0 l 1
 358 1493 l 1
EndSplineSet
Validated: 1
Layer: 2
SplineSet
358 1493 m 1,0,-1
 562 1493 l 1,1,-1
 631 231 l 1,2,-1
 1189 1493 l 1,3,-1
 1416 1493 l 1,4,-1
 1485 231 l 1,5,-1
 2043 1493 l 1,6,-1
 2248 1493 l 1,7,-1
 1583 0 l 1,8,-1
 1329 0 l 1,9,-1
 1266 1296 l 1,10,-1
 696 0 l 1,11,-1
 442 0 l 1,12,-1
 358 1493 l 1,0,-1
EndSplineSet
EndChar

StartChar: X
Encoding: 88 88 60
Width: 1403
Flags: W
HStem: 0 21G<61 296.197 1112.65 1339> 1473 20G<419 645.477 1362.67 1597>
DStem2: 61 0 279 0 0.662086 0.749428<144.335 981.72 1257.79 1992.19> 636 1493 419 1493 0.426001 -0.904723<0 614.159 856.766 1557.79>
LayerCount: 3
Fore
SplineSet
419 1493 m 1
 636 1493 l 1
 899 938 l 1
 1380 1493 l 1
 1597 1493 l 1
 978 776 l 1
 1339 0 l 1
 1122 0 l 1
 825 635 l 1
 279 0 l 1
 61 0 l 1
 749 797 l 1
 419 1493 l 1
EndSplineSet
Validated: 1
Layer: 2
SplineSet
419 1493 m 1,0,-1
 636 1493 l 1,1,-1
 899 938 l 1,2,-1
 1380 1493 l 1,3,-1
 1597 1493 l 1,4,-1
 978 776 l 1,5,-1
 1339 0 l 1,6,-1
 1122 0 l 1,7,-1
 825 635 l 1,8,-1
 279 0 l 1,9,-1
 61 0 l 1,10,-1
 749 797 l 1,11,-1
 419 1493 l 1,0,-1
EndSplineSet
EndChar

StartChar: Y
Encoding: 89 89 61
Width: 1251
Flags: W
HStem: 0 21G<524 730.882> 1473 20G<286 512.609 1310.74 1545>
DStem2: 503 1493 286 1493 0.43333 -0.901235<0 681.191> 524 0 727 0 0.190809 0.981627<38.7342 724.269> 798 879 865 711 0.656179 0.754606<0 811.103>
LayerCount: 3
Fore
SplineSet
286 1493 m 1
 503 1493 l 1
 798 879 l 1
 1328 1493 l 1
 1545 1493 l 1
 865 711 l 1
 727 0 l 1
 524 0 l 1
 662 711 l 1
 286 1493 l 1
EndSplineSet
Validated: 1
Layer: 2
SplineSet
286 1493 m 1,0,-1
 503 1493 l 1,1,-1
 798 879 l 1,2,-1
 1328 1493 l 1,3,-1
 1545 1493 l 1,4,-1
 865 711 l 1,5,-1
 727 0 l 1,6,-1
 524 0 l 1,7,-1
 662 711 l 1,8,-1
 286 1493 l 1,0,-1
EndSplineSet
EndChar

StartChar: Z
Encoding: 90 90 62
Width: 1403
Flags: W
HStem: 0 170<377 1311> 1323 170<405 1293>
DStem2: 122 154 377 170 0.707711 0.706502<191.77 1654.63>
LayerCount: 3
Fore
SplineSet
405 1493 m 1
 1578 1493 l 1
 1548 1339 l 1
 377 170 l 1
 1344 170 l 1
 1311 0 l 1
 92 0 l 1
 122 154 l 1
 1293 1323 l 1
 372 1323 l 1
 405 1493 l 1
EndSplineSet
Validated: 1
Layer: 2
SplineSet
405 1493 m 1,0,-1
 1578 1493 l 1,1,-1
 1548 1339 l 1,2,-1
 377 170 l 1,3,-1
 1344 170 l 1,4,-1
 1311 0 l 1,5,-1
 92 0 l 1,6,-1
 122 154 l 1,7,-1
 1293 1323 l 1,8,-1
 372 1323 l 1,9,-1
 405 1493 l 1,0,-1
EndSplineSet
EndChar

StartChar: bracketleft
Encoding: 91 91 63
Width: 799
Flags: W
HStem: -270 143<335 548> 1413 143<635 875>
DStem2: 124 -270 307.204 -270 0.190809 0.981627<180.633 1749.58>
LayerCount: 3
Fore
SplineSet
478 1556 m 1
 902 1556 l 1
 875 1413 l 1
 635 1413 l 1
 335 -127 l 1
 575 -127 l 1
 548 -270 l 1
 124 -270 l 1
 478 1556 l 1
EndSplineSet
Validated: 1
Layer: 2
SplineSet
478 1556 m 1,0,-1
 902 1556 l 1,1,-1
 875 1413 l 1,2,-1
 635 1413 l 1,3,-1
 335 -127 l 1,4,-1
 575 -127 l 1,5,-1
 548 -270 l 1,6,-1
 124 -270 l 1,7,-1
 478 1556 l 1,0,-1
EndSplineSet
EndChar

StartChar: backslash
Encoding: 92 92 64
Width: 690
Flags: W
HStem: 1473 20G<290 462.294>
VStem: 290 363
DStem2: 460 1493 290 1493 0.113929 -0.993489<0 1674.66>
LayerCount: 3
Fore
SplineSet
460 1493 m 1
 653 -190 l 1
 483 -190 l 1
 290 1493 l 1
 460 1493 l 1
EndSplineSet
Validated: 1
Layer: 2
SplineSet
460 1493 m 1,0,-1
 653 -190 l 1,1,-1
 483 -190 l 1,2,-1
 290 1493 l 1,3,-1
 460 1493 l 1,0,-1
EndSplineSet
EndChar

StartChar: bracketright
Encoding: 93 93 65
Width: 799
Flags: W
HStem: -270 143<174 413> 1413 143<501 713>
DStem2: 385.204 -270 571 -270 0.190809 0.981627<145.676 1714.62>
LayerCount: 3
Fore
SplineSet
925 1556 m 1
 571 -270 l 1
 147 -270 l 1
 174 -127 l 1
 413 -127 l 1
 713 1413 l 1
 474 1413 l 1
 501 1556 l 1
 925 1556 l 1
EndSplineSet
Validated: 1
Layer: 2
SplineSet
925 1556 m 1,0,-1
 571 -270 l 1,1,-1
 147 -270 l 1,2,-1
 174 -127 l 1,3,-1
 413 -127 l 1,4,-1
 713 1413 l 1,5,-1
 474 1413 l 1,6,-1
 501 1556 l 1,7,-1
 925 1556 l 1,0,-1
EndSplineSet
EndChar

StartChar: asciicircum
Encoding: 94 94 66
Width: 1716
Flags: W
HStem: 936 557
LayerCount: 3
Fore
SplineSet
1246 1493 m 1
 1681 936 l 1
 1480 936 l 1
 1117 1331 l 1
 600 936 l 1
 399 936 l 1
 1050 1493 l 1
 1246 1493 l 1
EndSplineSet
Validated: 1
Layer: 2
SplineSet
1246 1493 m 1,0,-1
 1681 936 l 1,1,-1
 1480 936 l 1,2,-1
 1117 1331 l 1,3,-1
 600 936 l 1,4,-1
 399 936 l 1,5,-1
 1050 1493 l 1,6,-1
 1246 1493 l 1,0,-1
EndSplineSet
EndChar

StartChar: underscore
Encoding: 95 95 67
Width: 1024
Flags: W
HStem: -483 143<-86 950>
LayerCount: 3
Fore
SplineSet
978 -340 m 1
 950 -483 l 1
 -114 -483 l 1
 -86 -340 l 1
 978 -340 l 1
EndSplineSet
Validated: 1
Layer: 2
SplineSet
978 -340 m 1,0,-1
 950 -483 l 1,1,-1
 -114 -483 l 1,2,-1
 -86 -340 l 1,3,-1
 978 -340 l 1,0,-1
EndSplineSet
EndChar

StartChar: grave
Encoding: 96 96 68
Width: 1024
Flags: W
HStem: 1264 374
VStem: 488 407
LayerCount: 3
Fore
SplineSet
685 1638 m 1
 895 1264 l 1
 742 1264 l 1
 488 1638 l 1
 685 1638 l 1
EndSplineSet
Validated: 1
Layer: 2
SplineSet
685 1638 m 1,0,-1
 895 1264 l 1,1,-1
 742 1264 l 1,2,-1
 488 1638 l 1,3,-1
 685 1638 l 1,0,-1
EndSplineSet
EndChar

StartChar: a
Encoding: 97 97 69
Width: 1255
Flags: W
HStem: -29 154<421.337 720.488> 0 21G<885 1072.88> 563 144<522.024 994> 991 156<518.491 949.307>
VStem: 178 190<176.125 439.264> 1032 178<708.217 912.365>
DStem2: 879.363 -29 1063.36 -29 0.190809 0.981627<64.6516 202.716 331.75 602.997 749.694 828.665>
LayerCount: 3
Back
SplineSet
205 899 m 9
 205 1069 l 17
 308.333 1120.33 435.333 1146.33 586 1147 c 0
 746.687 1148.41 867.854 1106.25 949.5 1020.5 c 128
 1029.17 936.833 1069 809.667 1069 639 c 2
 1069 0 l 1
 885 0 l 1
 885 170 l 1
 843 102 790.667 51.8333 728 19.5 c 128
 665.333 -12.8333 588.667 -29 498 -29 c 0
 383.333 -29 292.167 3.16667 224.5 67.5 c 128
 156.833 131.833 123 218 123 326 c 0
 123 452 165.167 547 249.5 611 c 128
 333.833 675 459.667 707 627 707 c 2
 885 707 l 1
 885 725 l 2
 885 809.667 857.167 875.167 801.5 921.5 c 128
 746.491 967.285 668.325 990.452 567 991 c 8
 450.333 991.667 329.667 961 205 899 c 9
702 563 m 2
 553.333 563 450.333 546 393 512 c 128
 335.667 478 307 420 307 338 c 0
 307 272.667 328.5 220.833 371.5 182.5 c 128
 414.5 144.167 473 125 547 125 c 0
 649 125 730.833 161.167 792.5 233.5 c 128
 854.167 305.833 885 402 885 522 c 2
 885 563 l 1
 702 563 l 2
EndSplineSet
Fore
SplineSet
571 125 m 0xbc
 774 125 939 278 986 522 c 2
 994 563 l 1
 811 563 l 2
 579 563 368 527 368 289 c 0
 368 185 444 125 571 125 c 0xbc
1022 707 m 1
 1027 731 1032 755 1032 787 c 0
 1032 924 928 991 760 991 c 0
 651 991 520 968 380 899 c 1
 413 1069 l 1
 508 1103 657 1147 809 1147 c 0
 1115 1147 1210 996 1210 800 c 0
 1210 749 1204 694 1193 639 c 2
 1069 0 l 1
 885 0 l 1x7c
 918 170 l 1
 814 42 683 -29 492 -29 c 0
 291 -29 178 75 178 243 c 0
 178 400 258 707 764 707 c 2
 1022 707 l 1
EndSplineSet
Validated: 1
Layer: 2
SplineSet
571 125 m 0,0,1
 724 125 724 125 837.5 232.5 c 128,-1,2
 951 340 951 340 986 522 c 2,3,-1
 994 563 l 1,4,-1
 811 563 l 2,5,6
 734 563 734 563 675 557.5 c 128,-1,7
 616 552 616 552 555.5 535 c 128,-1,8
 495 518 495 518 456 488.5 c 128,-1,9
 417 459 417 459 392.5 408.5 c 128,-1,10
 368 358 368 358 368 289 c 0,11,12
 368 211 368 211 421.5 168 c 128,-1,13
 475 125 475 125 571 125 c 0,0,1
1022 707 m 1,14,15
 1032 755 1032 755 1032 787 c 0,16,17
 1032 888 1032 888 960.5 939.5 c 128,-1,18
 889 991 889 991 760 991 c 0,19,20
 567 991 567 991 380 899 c 1,21,-1
 413 1069 l 1,22,23
 631 1147 631 1147 809 1147 c 0,24,25
 1210 1147 1210 1147 1210 800 c 0,26,27
 1210 724 1210 724 1193 639 c 2,28,-1
 1069 0 l 1,29,-1
 885 0 l 1,30,-1
 918 170 l 1,31,32
 837 71 837 71 734 21 c 128,-1,33
 631 -29 631 -29 492 -29 c 0,34,35
 343 -29 343 -29 260.5 43.5 c 128,-1,36
 178 116 178 116 178 243 c 0,37,38
 178 281 178 281 183.5 318.5 c 128,-1,39
 189 356 189 356 206 403 c 128,-1,40
 223 450 223 450 249 491.5 c 128,-1,41
 275 533 275 533 321 573.5 c 128,-1,42
 367 614 367 614 426.5 643 c 128,-1,43
 486 672 486 672 572.5 689.5 c 128,-1,44
 659 707 659 707 764 707 c 2,45,-1
 1022 707 l 1,14,15
EndSplineSet
EndChar

StartChar: b
Encoding: 98 98 70
Width: 1300
Flags: W
HStem: -29 154<561.776 872.384> 0 21G<186 374.929> 993 154<740.399 1023.97> 1536 20G<484.118 673>
VStem: 1121 193<457.432 891.958>
DStem2: 180.363 -29 365.363 -29 0.190809 0.981627<64.8424 236.053 1032.69 1614.58>
LayerCount: 3
Fore
SplineSet
877 993 m 256xb8
 577 993 465 627 465 413 c 0
 465 244 537 125 708 125 c 256
 1023 125 1121 518 1121 704 c 0
 1121 873 1048 993 877 993 c 256xb8
1314 728 m 0
 1314 382 1095 -29 723 -29 c 0xb8
 547 -29 451 45 404 168 c 1
 371 0 l 1
 186 0 l 1x78
 488 1556 l 1
 673 1556 l 1
 556 950 l 1
 651 1073 776 1147 952 1147 c 0
 1180 1147 1314 985 1314 728 c 0
EndSplineSet
Validated: 1
Layer: 2
SplineSet
877 993 m 256,0,1
 791 993 791 993 719.5 953 c 128,-1,2
 648 913 648 913 602 850.5 c 128,-1,3
 556 788 556 788 524 709.5 c 128,-1,4
 492 631 492 631 478.5 556 c 128,-1,5
 465 481 465 481 465 413 c 0,6,7
 465 280 465 280 525 202.5 c 128,-1,8
 585 125 585 125 708 125 c 0,9,10
 783 125 783 125 847.5 154.5 c 128,-1,11
 912 184 912 184 955.5 234 c 128,-1,12
 999 284 999 284 1032.5 344.5 c 128,-1,13
 1066 405 1066 405 1084.5 471.5 c 128,-1,14
 1103 538 1103 538 1112 596 c 128,-1,15
 1121 654 1121 654 1121 704 c 0,16,17
 1121 837 1121 837 1060.5 915 c 128,-1,18
 1000 993 1000 993 877 993 c 256,0,1
1314 728 m 0,19,20
 1314 623 1314 623 1289 516.5 c 128,-1,21
 1264 410 1264 410 1213 312 c 128,-1,22
 1162 214 1162 214 1092.5 138 c 128,-1,23
 1023 62 1023 62 927 16.5 c 128,-1,24
 831 -29 831 -29 723 -29 c 0,25,26
 479 -29 479 -29 404 168 c 1,27,-1
 371 0 l 1,28,-1
 186 0 l 1,29,-1
 488 1556 l 1,30,-1
 673 1556 l 1,31,-1
 556 950 l 1,32,33
 708 1147 708 1147 952 1147 c 0,34,35
 1122 1147 1122 1147 1218 1034.5 c 128,-1,36
 1314 922 1314 922 1314 728 c 0,19,20
EndSplineSet
EndChar

StartChar: c
Encoding: 99 99 71
Width: 1126
Flags: W
HStem: -29 156<529.873 933.739> 991 156<678.227 1094.83>
VStem: 206 196<252.541 664.746>
LayerCount: 3
Fore
SplineSet
206 404 m 0
 206 677 371 1147 899 1147 c 0
 1028 1147 1128 1118 1208 1077 c 1
 1175 905 l 1
 1101 951 1003 991 877 991 c 0
 497 991 402 610 402 430 c 0
 402 242 504 127 709 127 c 0
 835 127 948 167 1040 213 c 1
 1007 43 l 1
 875 -14 759 -29 658 -29 c 0
 369 -29 206 135 206 404 c 0
EndSplineSet
Validated: 1
Layer: 2
SplineSet
206 404 m 0,0,1
 206 465 206 465 216.5 531 c 128,-1,2
 227 597 227 597 251.5 670.5 c 128,-1,3
 276 744 276 744 312.5 811.5 c 128,-1,4
 349 879 349 879 405 940.5 c 128,-1,5
 461 1002 461 1002 530.5 1047.5 c 128,-1,6
 600 1093 600 1093 695 1120 c 128,-1,7
 790 1147 790 1147 899 1147 c 0,8,9
 1071 1147 1071 1147 1208 1077 c 1,10,-1
 1175 905 l 1,11,12
 1037 991 1037 991 877 991 c 0,13,14
 798 991 798 991 731 969 c 128,-1,15
 664 947 664 947 616.5 911 c 128,-1,16
 569 875 569 875 531 826.5 c 128,-1,17
 493 778 493 778 469.5 726.5 c 128,-1,18
 446 675 446 675 430 619.5 c 128,-1,19
 414 564 414 564 408 517.5 c 128,-1,20
 402 471 402 471 402 430 c 0,21,22
 402 286 402 286 480 206.5 c 128,-1,23
 558 127 558 127 709 127 c 0,24,25
 868 127 868 127 1040 213 c 1,26,-1
 1007 43 l 1,27,28
 840 -29 840 -29 658 -29 c 0,29,30
 443 -29 443 -29 324.5 86 c 128,-1,31
 206 201 206 201 206 404 c 0,0,1
EndSplineSet
EndChar

StartChar: d
Encoding: 100 100 72
Width: 1300
Flags: W
HStem: -29 154<493.196 773.5> 0 21G<930 1117.88> 993 154<647.132 954.928> 1536 20G<1228.14 1416>
VStem: 204 193<225.297 666.643>
DStem2: 924.363 -29 1108.36 -29 0.190809 0.981627<64.6516 200.753 997.388 1614.58>
LayerCount: 3
Fore
SplineSet
204 388 m 0xb8
 204 729 419 1147 794 1147 c 0
 971 1147 1068 1073 1115 950 c 1
 1232 1556 l 1
 1416 1556 l 1
 1114 0 l 1
 930 0 l 1x78
 963 168 l 1
 867 45 742 -29 565 -29 c 0
 337 -29 204 133 204 388 c 0xb8
640 125 m 256xb8
 952 125 1054 511 1054 703 c 0
 1054 879 975 993 809 993 c 256
 509 993 397 627 397 413 c 0
 397 244 469 125 640 125 c 256xb8
EndSplineSet
Validated: 1
Layer: 2
SplineSet
204 388 m 0,0,1
 204 491 204 491 229 597.5 c 128,-1,2
 254 704 254 704 304.5 802.5 c 128,-1,3
 355 901 355 901 424 978 c 128,-1,4
 493 1055 493 1055 589 1101 c 128,-1,5
 685 1147 685 1147 794 1147 c 0,6,7
 1040 1147 1040 1147 1115 950 c 1,8,-1
 1232 1556 l 1,9,-1
 1416 1556 l 1,10,-1
 1114 0 l 1,11,-1
 930 0 l 1,12,-1
 963 168 l 1,13,14
 809 -29 809 -29 565 -29 c 0,15,16
 395 -29 395 -29 299.5 83 c 128,-1,17
 204 195 204 195 204 388 c 0,0,1
640 125 m 256,18,19
 729 125 729 125 802.5 167 c 128,-1,20
 876 209 876 209 921 273 c 128,-1,21
 966 337 966 337 997.5 417 c 128,-1,22
 1029 497 1029 497 1041.5 569 c 128,-1,23
 1054 641 1054 641 1054 703 c 0,24,25
 1054 839 1054 839 992 916 c 128,-1,26
 930 993 930 993 809 993 c 0,27,28
 723 993 723 993 651.5 953 c 128,-1,29
 580 913 580 913 534 850.5 c 128,-1,30
 488 788 488 788 456 709.5 c 128,-1,31
 424 631 424 631 410.5 556 c 128,-1,32
 397 481 397 481 397 413 c 0,33,34
 397 280 397 280 457 202.5 c 128,-1,35
 517 125 517 125 640 125 c 256,18,19
EndSplineSet
EndChar

StartChar: e
Encoding: 101 101 73
Width: 1260
Flags: W
HStem: -29 156<536.968 996.195> 516 144<439 1101> 991 156<662.19 1010.15>
VStem: 205 194<255.838 511.466> 1103 181<661.3 899.431>
LayerCount: 3
Fore
SplineSet
205 405 m 0
 205 707 406 1147 885 1147 c 0
 1144 1147 1284 997 1284 754 c 0
 1284 708 1279 658 1269 606 c 2
 1251 516 l 1
 405 516 l 1
 401 487 399 460 399 434 c 0
 399 238 507 127 730 127 c 0
 892 127 1034 174 1153 231 c 1
 1119 57 l 1
 1005 12 854 -29 688 -29 c 0
 377 -29 205 137 205 405 c 0
1095 660 m 1
 1100 690 1103 718 1103 744 c 0
 1103 898 1012 991 857 991 c 0
 645 991 497 865 439 660 c 1
 1095 660 l 1
EndSplineSet
Validated: 1
Layer: 2
SplineSet
205 405 m 0,0,1
 205 499 205 499 229 598 c 128,-1,2
 253 697 253 697 307 796.5 c 128,-1,3
 361 896 361 896 438 973 c 128,-1,4
 515 1050 515 1050 631 1098.5 c 128,-1,5
 747 1147 747 1147 885 1147 c 0,6,7
 1077 1147 1077 1147 1180.5 1042.5 c 128,-1,8
 1284 938 1284 938 1284 754 c 0,9,10
 1284 684 1284 684 1269 606 c 2,11,-1
 1251 516 l 1,12,-1
 405 516 l 1,13,14
 399 472 399 472 399 434 c 0,15,16
 399 285 399 285 482 206 c 128,-1,17
 565 127 565 127 730 127 c 0,18,19
 936 127 936 127 1153 231 c 1,20,-1
 1119 57 l 1,21,22
 901 -29 901 -29 688 -29 c 0,23,24
 457 -29 457 -29 331 86.5 c 128,-1,25
 205 202 205 202 205 405 c 0,0,1
1095 660 m 1,26,27
 1103 708 1103 708 1103 744 c 0,28,29
 1103 860 1103 860 1038 925.5 c 128,-1,30
 973 991 973 991 857 991 c 0,31,32
 700 991 700 991 591.5 903.5 c 128,-1,33
 483 816 483 816 439 660 c 1,34,-1
 1095 660 l 1,26,27
EndSplineSet
EndChar

StartChar: f
Encoding: 102 102 74
Width: 721
Flags: W
HStem: 0 21G<223 411.889> 977 143<265 413 626 901> 1403 153<711.483 1033>
DStem2: 223 0 408 0 0.190809 0.981627<35.2997 995.303 1176.32 1431.26>
LayerCount: 3
Fore
SplineSet
456 1198 m 2
 504 1445 635 1556 888 1556 c 2
 1062 1556 l 1
 1033 1403 l 1
 857 1403 l 2
 727 1403 672 1357 645 1219 c 2
 626 1120 l 1
 929 1120 l 1
 901 977 l 1
 598 977 l 1
 408 0 l 1
 223 0 l 1
 413 977 l 1
 237 977 l 1
 265 1120 l 1
 441 1120 l 1
 456 1198 l 2
EndSplineSet
Validated: 1
Layer: 2
SplineSet
456 1198 m 2,0,1
 492 1384 492 1384 595.5 1470 c 128,-1,2
 699 1556 699 1556 888 1556 c 2,3,-1
 1062 1556 l 1,4,-1
 1033 1403 l 1,5,-1
 857 1403 l 2,6,7
 759 1403 759 1403 712 1362.5 c 128,-1,8
 665 1322 665 1322 645 1219 c 2,9,-1
 626 1120 l 1,10,-1
 929 1120 l 1,11,-1
 901 977 l 1,12,-1
 598 977 l 1,13,-1
 408 0 l 1,14,-1
 223 0 l 1,15,-1
 413 977 l 1,16,-1
 237 977 l 1,17,-1
 265 1120 l 1,18,-1
 441 1120 l 1,19,-1
 456 1198 l 2,0,1
EndSplineSet
EndChar

StartChar: g
Encoding: 103 103 75
Width: 1300
Flags: W
HStem: -426 152<293.19 726.421> 0 154<495.932 782.126> 993 154<640.553 962.287> 1100 20G<1144.12 1332>
VStem: 207 193<253.259 679.036>
DStem2: 847.59 -426 1031.18 -426 0.190809 0.981627<315.868 634.529 1401.74 1574.92>
LayerCount: 3
Fore
SplineSet
809 993 m 0xe8
 481 993 400 597 400 434 c 0
 400 267 474 154 646 154 c 0
 974 154 1056 550 1056 715 c 0
 1056 881 982 993 809 993 c 0xe8
207 407 m 0
 207 732 410 1147 794 1147 c 0xe8
 972 1147 1068 1072 1115 950 c 1
 1148 1120 l 1
 1332 1120 l 1xd8
 1141 139 l 2
 1070 -228 876 -426 515 -426 c 0
 375 -426 268 -403 177 -367 c 1
 211 -188 l 1
 288 -234 388 -274 516 -274 c 0
 762 -274 902 -144 951 106 c 1
 968 197 l 1
 875 75 747 0 571 0 c 0
 342 0 207 154 207 407 c 0
EndSplineSet
Validated: 1
Layer: 2
SplineSet
809 993 m 0,0,1
 731 993 731 993 665.5 963.5 c 128,-1,2
 600 934 600 934 557 884 c 128,-1,3
 514 834 514 834 482 775 c 128,-1,4
 450 716 450 716 433 651 c 128,-1,5
 416 586 416 586 408 532.5 c 128,-1,6
 400 479 400 479 400 434 c 0,7,8
 400 303 400 303 461 228.5 c 128,-1,9
 522 154 522 154 646 154 c 0,10,11
 714 154 714 154 772 176.5 c 128,-1,12
 830 199 830 199 871 236 c 128,-1,13
 912 273 912 273 945 323 c 128,-1,14
 978 373 978 373 998 425 c 128,-1,15
 1018 477 1018 477 1031.5 532 c 128,-1,16
 1045 587 1045 587 1050.5 632 c 128,-1,17
 1056 677 1056 677 1056 715 c 0,18,19
 1056 845 1056 845 995 919 c 128,-1,20
 934 993 934 993 809 993 c 0,0,1
207 407 m 0,21,22
 207 489 207 489 224 574.5 c 128,-1,23
 241 660 241 660 273.5 743 c 128,-1,24
 306 826 306 826 357 899 c 128,-1,25
 408 972 408 972 471 1027.5 c 128,-1,26
 534 1083 534 1083 617.5 1115 c 128,-1,27
 701 1147 701 1147 794 1147 c 0,28,29
 1039 1147 1039 1147 1115 950 c 1,30,-1
 1148 1120 l 1,31,-1
 1332 1120 l 1,32,-1
 1141 139 l 2,33,34
 1087 -142 1087 -142 934 -284 c 128,-1,35
 781 -426 781 -426 515 -426 c 0,36,37
 326 -426 326 -426 177 -367 c 1,38,-1
 211 -188 l 1,39,40
 355 -274 355 -274 516 -274 c 0,41,42
 877 -274 877 -274 951 106 c 2,43,-1
 968 197 l 1,44,45
 818 0 818 0 571 0 c 0,46,47
 400 0 400 0 303.5 108.5 c 128,-1,48
 207 217 207 217 207 407 c 0,21,22
EndSplineSet
EndChar

StartChar: h
Encoding: 104 104 76
Width: 1298
Flags: W
HStem: 0 21G<186 374.886 940 1127.88> 987 160<753.714 1025.76> 1536 20G<484.118 673>
VStem: 1082 190<536.297 928.431>
DStem2: 186 0 371 0 0.190809 0.981627<35.2997 892.192 999.028 1585.04> 940 0 1124 0 0.190809 0.981627<35.1089 795.168>
LayerCount: 3
Fore
SplineSet
956 1147 m 0
 1085 1147 1272 1107 1272 834 c 0
 1272 788 1267 736 1255 676 c 2
 1124 0 l 1
 940 0 l 1
 1070 670 l 2
 1078 713 1082 751 1082 784 c 0
 1082 931 1005 987 884 987 c 0
 681 987 536 849 494 633 c 2
 371 0 l 1
 186 0 l 1
 488 1556 l 1
 673 1556 l 1
 555 946 l 1
 651 1059 777 1147 956 1147 c 0
EndSplineSet
Validated: 1
Layer: 2
SplineSet
956 1147 m 0,0,1
 1000 1147 1000 1147 1039 1141 c 128,-1,2
 1078 1135 1078 1135 1122.5 1115 c 128,-1,3
 1167 1095 1167 1095 1198.5 1062.5 c 128,-1,4
 1230 1030 1230 1030 1251 971 c 128,-1,5
 1272 912 1272 912 1272 834 c 0,6,7
 1272 761 1272 761 1255 676 c 2,8,-1
 1124 0 l 1,9,-1
 940 0 l 1,10,-1
 1070 670 l 2,11,12
 1082 734.5 1082 734.5 1082 784 c 0,13,14
 1082 987 1082 987 884 987 c 0,15,16
 733 987 733 987 629.5 891.5 c 128,-1,17
 526 796 526 796 494 633 c 2,18,-1
 371 0 l 1,19,-1
 186 0 l 1,20,-1
 488 1556 l 1,21,-1
 673 1556 l 1,22,-1
 555 946 l 1,23,24
 726 1147 726 1147 956 1147 c 0,0,1
EndSplineSet
EndChar

StartChar: i
Encoding: 105 105 77
Width: 569
Flags: W
HStem: 0 21G<193 380.893> 1100 20G<407.107 595> 1323 233<495 634>
VStem: 193 486
DStem2: 193 0 377 0 0.190809 0.981627<35.1089 1141.02 1382.84 1585.04>
LayerCount: 3
Fore
SplineSet
411 1120 m 1
 595 1120 l 1
 377 0 l 1
 193 0 l 1
 411 1120 l 1
495 1556 m 1
 679 1556 l 1
 634 1323 l 1
 450 1323 l 1
 495 1556 l 1
EndSplineSet
Validated: 1
Layer: 2
SplineSet
411 1120 m 1,0,-1
 595 1120 l 1,1,-1
 377 0 l 1,2,-1
 193 0 l 1,3,-1
 411 1120 l 1,0,-1
495 1556 m 1,4,-1
 679 1556 l 1,5,-1
 634 1323 l 1,6,-1
 450 1323 l 1,7,-1
 495 1556 l 1,4,-1
EndSplineSet
EndChar

StartChar: j
Encoding: 106 106 78
Width: 569
Flags: W
HStem: -426 156<-89 99.4885> 1100 20G<407.105 595> 1323 233<495 634>
DStem2: 110.082 -426 294.082 -426 0.190809 0.981627<192.873 1575.01 1816.83 2019.03>
LayerCount: 3
Fore
SplineSet
-40 -270 m 2
 102 -270 151 -215 189 -20 c 2
 411 1120 l 1
 595 1120 l 1
 373 -20 l 2
 322 -283 208 -426 -50 -426 c 2
 -120 -426 l 1
 -89 -270 l 1
 -40 -270 l 2
495 1556 m 1
 679 1556 l 1
 634 1323 l 1
 450 1323 l 1
 495 1556 l 1
EndSplineSet
Validated: 1
Layer: 2
SplineSet
-40 -270 m 2,0,1
 66 -270 66 -270 113 -218.5 c 128,-1,2
 160 -167 160 -167 189 -20 c 2,3,-1
 411 1120 l 1,4,-1
 595 1120 l 1,5,-1
 373 -20 l 2,6,7
 333 -225 333 -225 235 -325.5 c 128,-1,8
 137 -426 137 -426 -50 -426 c 2,9,-1
 -120 -426 l 1,10,-1
 -89 -270 l 1,11,-1
 -40 -270 l 2,0,1
495 1556 m 1,12,-1
 679 1556 l 1,13,-1
 634 1323 l 1,14,-1
 450 1323 l 1,15,-1
 495 1556 l 1,12,-1
EndSplineSet
EndChar

StartChar: k
Encoding: 107 107 79
Width: 1186
Flags: W
HStem: 0 21G<186 374.876 923.071 1180> 1100 20G<1111.37 1373> 1536 20G<484.118 673>
DStem2: 186 0 371 0 0.190809 0.981627<35.2997 592.475 684.256 1585.04> 677 596 477 547 0.644965 -0.764212<0 625.096> 495 637 677 596 0.798897 0.601468<120.739 804.2>
LayerCount: 3
Fore
SplineSet
488 1556 m 1
 673 1556 l 1
 495 637 l 1
 1138 1120 l 1
 1373 1120 l 1
 677 596 l 1
 1180 0 l 1
 940 0 l 1
 477 547 l 1
 371 0 l 1
 186 0 l 1
 488 1556 l 1
EndSplineSet
Validated: 1
Layer: 2
SplineSet
488 1556 m 1,0,-1
 673 1556 l 1,1,-1
 495 637 l 1,2,-1
 1138 1120 l 1,3,-1
 1373 1120 l 1,4,-1
 677 596 l 1,5,-1
 1180 0 l 1,6,-1
 940 0 l 1,7,-1
 477 547 l 1,8,-1
 371 0 l 1,9,-1
 186 0 l 1,10,-1
 488 1556 l 1,0,-1
EndSplineSet
EndChar

StartChar: l
Encoding: 108 108 80
Width: 569
Flags: W
HStem: 0 21G<193 380.882> 1536 20G<491.118 679>
VStem: 193 486
DStem2: 193 0 377 0 0.190809 0.981627<35.1089 1585.04>
LayerCount: 3
Fore
SplineSet
495 1556 m 1
 679 1556 l 1
 377 0 l 1
 193 0 l 1
 495 1556 l 1
EndSplineSet
Validated: 1
Layer: 2
SplineSet
495 1556 m 1,0,-1
 679 1556 l 1,1,-1
 377 0 l 1,2,-1
 193 0 l 1,3,-1
 495 1556 l 1,0,-1
EndSplineSet
EndChar

StartChar: m
Encoding: 109 109 81
Width: 1995
Flags: W
HStem: 0 21G<186 374.886 911 1099.89 1636 1824.88> 987 160<748.232 1001.51 1473.46 1726.79> 1100 20G<400.107 589>
VStem: 1779 190<536.297 934.951>
DStem2: 186 0 371 0 0.190809 0.981627<35.2997 897.438 999.028 1141.02> 911 0 1096 0 0.190809 0.981627<35.2997 805.228> 1636 0 1821 0 0.190809 0.981627<35.2997 804.009>
LayerCount: 3
Fore
SplineSet
954 1147 m 0xd0
 1154 1147 1223 1021 1241 905 c 1
 1342 1040 1477 1147 1679 1147 c 0
 1881 1147 1969 1023 1969 833 c 0
 1969 785 1963 732 1952 676 c 2
 1821 0 l 1
 1636 0 l 1
 1766 670 l 2
 1775 714 1779 756 1779 793 c 0
 1779 911 1730 987 1597 987 c 0
 1399 987 1260 846 1219 633 c 2
 1096 0 l 1
 911 0 l 1
 1041 670 l 2
 1050 717 1055 758 1055 794 c 0
 1055 937 982 987 870 987 c 0xd0
 675 987 535 844 494 633 c 2
 371 0 l 1
 186 0 l 1
 404 1120 l 1
 589 1120 l 1xb0
 555 946 l 1
 649 1063 771 1147 954 1147 c 0xd0
EndSplineSet
Validated: 1
Layer: 2
SplineSet
954 1147 m 0,0,1
 1012 1147 1012 1147 1059 1132.5 c 128,-1,2
 1106 1118 1106 1118 1136.5 1095 c 128,-1,3
 1167 1072 1167 1072 1189.5 1040 c 128,-1,4
 1212 1008 1212 1008 1223.5 975 c 128,-1,5
 1235 942 1235 942 1241 905 c 1,6,7
 1422 1147 1422 1147 1679 1147 c 0,8,9
 1826 1147 1826 1147 1897.5 1064 c 128,-1,10
 1969 981 1969 981 1969 833 c 0,11,12
 1969 763 1969 763 1952 676 c 2,13,-1
 1821 0 l 1,14,-1
 1636 0 l 1,15,-1
 1766 670 l 2,16,17
 1779 734 1779 734 1779 793 c 0,18,19
 1779 987 1779 987 1597 987 c 0,20,21
 1451 987 1451 987 1350.5 891 c 128,-1,22
 1250 795 1250 795 1219 633 c 2,23,-1
 1096 0 l 1,24,-1
 911 0 l 1,25,-1
 1041 670 l 2,26,27
 1055 743 1055 743 1055 794 c 0,28,29
 1055 987 1055 987 870 987 c 0,30,31
 726 987 726 987 625.5 890.5 c 128,-1,32
 525 794 525 794 494 633 c 2,33,-1
 371 0 l 1,34,-1
 186 0 l 1,35,-1
 404 1120 l 1,36,-1
 589 1120 l 1,37,-1
 555 946 l 1,38,39
 716 1147 716 1147 954 1147 c 0,0,1
EndSplineSet
EndChar

StartChar: n
Encoding: 110 110 82
Width: 1298
Flags: W
HStem: 0 21G<186 374.886 940 1127.88> 987 160<753.714 1025.76> 1100 20G<400.107 589>
VStem: 1082 190<536.297 928.431>
DStem2: 186 0 371 0 0.190809 0.981627<35.2997 892.192 999.028 1141.02> 940 0 1124 0 0.190809 0.981627<35.1089 795.168>
LayerCount: 3
Fore
SplineSet
956 1147 m 0xd0
 1085 1147 1272 1107 1272 834 c 0
 1272 788 1267 736 1255 676 c 2
 1124 0 l 1
 940 0 l 1
 1070 670 l 2
 1078 713 1082 751 1082 784 c 0
 1082 931 1005 987 884 987 c 0xd0
 681 987 536 849 494 633 c 2
 371 0 l 1
 186 0 l 1
 404 1120 l 1
 589 1120 l 1xb0
 555 946 l 1
 651 1059 777 1147 956 1147 c 0xd0
EndSplineSet
Validated: 1
Layer: 2
SplineSet
956 1147 m 0,0,1
 1000 1147 1000 1147 1039 1141 c 128,-1,2
 1078 1135 1078 1135 1122.5 1115 c 128,-1,3
 1167 1095 1167 1095 1198.5 1062.5 c 128,-1,4
 1230 1030 1230 1030 1251 971 c 128,-1,5
 1272 912 1272 912 1272 834 c 0,6,7
 1272 761 1272 761 1255 676 c 2,8,-1
 1124 0 l 1,9,-1
 940 0 l 1,10,-1
 1070 670 l 2,11,12
 1082 734.5 1082 734.5 1082 784 c 0,13,14
 1082 987 1082 987 884 987 c 0,15,16
 733 987 733 987 629.5 891.5 c 128,-1,17
 526 796 526 796 494 633 c 2,18,-1
 371 0 l 1,19,-1
 186 0 l 1,20,-1
 404 1120 l 1,21,-1
 589 1120 l 1,22,-1
 555 946 l 1,23,24
 726 1147 726 1147 956 1147 c 0,0,1
EndSplineSet
EndChar

StartChar: o
Encoding: 111 111 83
Width: 1253
Flags: W
HStem: -29 156<501.298 808.926> 991 156<653.341 968.359>
VStem: 204 197<233.959 655.916> 1069 198<453.767 883.909>
LayerCount: 3
Fore
SplineSet
652 127 m 0
 933 127 1069 455 1069 697 c 0
 1069 874 987 991 820 991 c 0
 503 991 401 607 401 418 c 0
 401 247 478 127 652 127 c 0
204 388 m 0
 204 625 333 1147 850 1147 c 0
 1126 1147 1267 987 1267 728 c 0
 1267 425 1091 -29 621 -29 c 0
 345 -29 204 131 204 388 c 0
EndSplineSet
Validated: 1
Layer: 2
SplineSet
652 127 m 0,0,1
 752 127 752 127 834.5 181.5 c 128,-1,2
 917 236 917 236 966.5 322 c 128,-1,3
 1016 408 1016 408 1042.5 505.5 c 128,-1,4
 1069 603 1069 603 1069 697 c 0,5,6
 1069 834 1069 834 1005.5 912.5 c 128,-1,7
 942 991 942 991 820 991 c 0,8,9
 730 991 730 991 655.5 949 c 128,-1,10
 581 907 581 907 535 844 c 128,-1,11
 489 781 489 781 457.5 701 c 128,-1,12
 426 621 426 621 413.5 550 c 128,-1,13
 401 479 401 479 401 418 c 0,14,15
 401 284 401 284 463.5 205.5 c 128,-1,16
 526 127 526 127 652 127 c 0,0,1
204 388 m 0,17,18
 204 443 204 443 212.5 505 c 128,-1,19
 221 567 221 567 242 642 c 128,-1,20
 263 717 263 717 295 786.5 c 128,-1,21
 327 856 327 856 379 922.5 c 128,-1,22
 431 989 431 989 495.5 1038 c 128,-1,23
 560 1087 560 1087 651.5 1117 c 128,-1,24
 743 1147 743 1147 850 1147 c 0,25,26
 1054 1147 1054 1147 1160.5 1036.5 c 128,-1,27
 1267 926 1267 926 1267 728 c 0,28,29
 1267 633 1267 633 1245.5 533 c 128,-1,30
 1224 433 1224 433 1174 331 c 128,-1,31
 1124 229 1124 229 1052 150 c 128,-1,32
 980 71 980 71 868 21 c 128,-1,33
 756 -29 756 -29 621 -29 c 0,34,35
 417 -29 417 -29 310.5 81.5 c 128,-1,36
 204 192 204 192 204 388 c 0,17,18
EndSplineSet
EndChar

StartChar: p
Encoding: 112 112 84
Width: 1300
Flags: W
HStem: -426 21G<103 291.906> -29 154<561.776 872.384> 993 154<740.399 1023.97> 1100 20G<400.106 589>
VStem: 1121 193<457.432 891.958>
DStem2: 103 -426 288 -426 0.190809 0.981627<35.2997 640.52 1437.16 1575.03>
LayerCount: 3
Fore
SplineSet
1314 728 m 0xe8
 1314 382 1095 -29 723 -29 c 0
 547 -29 451 45 404 168 c 1
 288 -426 l 1
 103 -426 l 1
 404 1120 l 1
 589 1120 l 1xd8
 556 950 l 1
 651 1073 776 1147 952 1147 c 0
 1180 1147 1314 985 1314 728 c 0xe8
877 993 m 256xe8
 577 993 465 627 465 413 c 0
 465 244 537 125 708 125 c 256
 1023 125 1121 518 1121 704 c 0
 1121 873 1048 993 877 993 c 256xe8
EndSplineSet
Validated: 1
Layer: 2
SplineSet
1314 728 m 0,0,1
 1314 623 1314 623 1289 516.5 c 128,-1,2
 1264 410 1264 410 1213 312 c 128,-1,3
 1162 214 1162 214 1092.5 138 c 128,-1,4
 1023 62 1023 62 927 16.5 c 128,-1,5
 831 -29 831 -29 723 -29 c 0,6,7
 479 -29 479 -29 404 168 c 1,8,-1
 288 -426 l 1,9,-1
 103 -426 l 1,10,-1
 404 1120 l 1,11,-1
 589 1120 l 1,12,-1
 556 950 l 1,13,14
 708 1147 708 1147 952 1147 c 0,15,16
 1122 1147 1122 1147 1218 1034.5 c 128,-1,17
 1314 922 1314 922 1314 728 c 0,0,1
877 993 m 256,18,19
 791 993 791 993 719.5 953 c 128,-1,20
 648 913 648 913 602 850.5 c 128,-1,21
 556 788 556 788 524 709.5 c 128,-1,22
 492 631 492 631 478.5 556 c 128,-1,23
 465 481 465 481 465 413 c 0,24,25
 465 280 465 280 525 202.5 c 128,-1,26
 585 125 585 125 708 125 c 0,27,28
 783 125 783 125 847.5 154.5 c 128,-1,29
 912 184 912 184 955.5 234 c 128,-1,30
 999 284 999 284 1032.5 344.5 c 128,-1,31
 1066 405 1066 405 1084.5 471.5 c 128,-1,32
 1103 538 1103 538 1112 596 c 128,-1,33
 1121 654 1121 654 1121 704 c 0,34,35
 1121 837 1121 837 1060.5 915 c 128,-1,36
 1000 993 1000 993 877 993 c 256,18,19
EndSplineSet
EndChar

StartChar: q
Encoding: 113 113 85
Width: 1300
Flags: W
HStem: -426 21G<847 1034.89> -29 154<493.196 773.5> 993 154<647.132 954.928> 1100 20G<1144.12 1332>
VStem: 204 193<225.297 666.643>
DStem2: 847 -426 1031 -426 0.190809 0.981627<35.1089 605.22 1401.86 1575.03>
LayerCount: 3
Fore
SplineSet
640 125 m 256xe8
 952 125 1054 511 1054 703 c 0
 1054 879 975 993 809 993 c 256
 509 993 397 627 397 413 c 0
 397 244 469 125 640 125 c 256xe8
204 388 m 0
 204 729 419 1147 794 1147 c 0xe8
 971 1147 1068 1073 1115 950 c 1
 1148 1120 l 1
 1332 1120 l 1xd8
 1031 -426 l 1
 847 -426 l 1
 963 168 l 1
 867 45 742 -29 565 -29 c 0
 337 -29 204 133 204 388 c 0
EndSplineSet
Validated: 1
Layer: 2
SplineSet
640 125 m 256,0,1
 729 125 729 125 802.5 167 c 128,-1,2
 876 209 876 209 921 273 c 128,-1,3
 966 337 966 337 997.5 417 c 128,-1,4
 1029 497 1029 497 1041.5 569 c 128,-1,5
 1054 641 1054 641 1054 703 c 0,6,7
 1054 839 1054 839 992 916 c 128,-1,8
 930 993 930 993 809 993 c 0,9,10
 723 993 723 993 651.5 953 c 128,-1,11
 580 913 580 913 534 850.5 c 128,-1,12
 488 788 488 788 456 709.5 c 128,-1,13
 424 631 424 631 410.5 556 c 128,-1,14
 397 481 397 481 397 413 c 0,15,16
 397 280 397 280 457 202.5 c 128,-1,17
 517 125 517 125 640 125 c 256,0,1
204 388 m 0,18,19
 204 491 204 491 229 597.5 c 128,-1,20
 254 704 254 704 304.5 802.5 c 128,-1,21
 355 901 355 901 424 978 c 128,-1,22
 493 1055 493 1055 589 1101 c 128,-1,23
 685 1147 685 1147 794 1147 c 0,24,25
 1040 1147 1040 1147 1115 950 c 1,26,-1
 1148 1120 l 1,27,-1
 1332 1120 l 1,28,-1
 1031 -426 l 1,29,-1
 847 -426 l 1,30,-1
 963 168 l 1,31,32
 809 -29 809 -29 565 -29 c 0,33,34
 395 -29 395 -29 299.5 83 c 128,-1,35
 204 195 204 195 204 388 c 0,18,19
EndSplineSet
EndChar

StartChar: r
Encoding: 114 114 86
Width: 842
Flags: W
HStem: 0 21G<186 374.898> 983 164<750.729 1030.91> 1100 20G<400.107 589>
DStem2: 186 0 371 0 0.190809 0.981627<35.2997 877.961 999.028 1141.02>
LayerCount: 3
Fore
SplineSet
555 946 m 1xa0
 653 1074 783 1147 971 1147 c 0
 990 1147 1018 1145 1062 1137 c 1
 1025 948 l 1
 981 977 929 983 885 983 c 0xc0
 664 983 532 828 486 590 c 2
 371 0 l 1
 186 0 l 1
 404 1120 l 1
 589 1120 l 1
 555 946 l 1xa0
EndSplineSet
Validated: 1
Layer: 2
SplineSet
555 946 m 1,0,1
 709 1147 709 1147 971 1147 c 0,2,3
 1007 1147 1007 1147 1062 1137 c 1,4,-1
 1025 948 l 1,5,6
 972 983 972 983 885 983 c 0,7,8
 724 983 724 983 623 878.5 c 128,-1,9
 522 774 522 774 486 590 c 2,10,-1
 371 0 l 1,11,-1
 186 0 l 1,12,-1
 404 1120 l 1,13,-1
 589 1120 l 1,14,-1
 555 946 l 1,0,1
EndSplineSet
EndChar

StartChar: s
Encoding: 115 115 87
Width: 1067
Flags: W
HStem: -29 154<289.306 739.412> 993 154<550.266 1008.88>
VStem: 271 183<718.711 909.811> 839 196<217.429 416.22>
DStem2: 670 655 540 502 0.971072 -0.238788<-221.507 212.129>
LayerCount: 3
Fore
SplineSet
271 746 m 0
 271 906 376 1147 772 1147 c 0
 910 1147 1026 1126 1118 1087 c 1
 1084 913 l 1
 977 974 865 993 764 993 c 0
 497 993 454 867 454 797 c 0
 454 718 533 687 670 655 c 2
 731 641 l 2
 925 597 1035 529 1035 382 c 0
 1035 152 841 -29 498 -29 c 0
 419 -29 295 -20 119 41 c 1
 156 231 l 1
 288 155 413 125 532 125 c 0
 784 125 839 250 839 334 c 0
 839 413 774 444 601 487 c 2
 540 502 l 2
 371 544 271 606 271 746 c 0
EndSplineSet
Validated: 1
Layer: 2
SplineSet
271 746 m 0,0,1
 271 798 271 798 284.5 849.5 c 128,-1,2
 298 901 298 901 334 956 c 128,-1,3
 370 1011 370 1011 424 1052.5 c 128,-1,4
 478 1094 478 1094 568 1120.5 c 128,-1,5
 658 1147 658 1147 772 1147 c 0,6,7
 976 1147 976 1147 1118 1087 c 1,8,-1
 1084 913 l 1,9,10
 944 993 944 993 764 993 c 0,11,12
 688 993 688 993 630 979 c 128,-1,13
 572 965 572 965 539.5 944.5 c 128,-1,14
 507 924 507 924 486.5 896 c 128,-1,15
 466 868 466 868 460 844.5 c 128,-1,16
 454 821 454 821 454 797 c 0,17,18
 454 742 454 742 505 712 c 128,-1,19
 556 682 556 682 670 655 c 2,20,-1
 731 641 l 2,21,22
 885 606 885 606 960 547 c 128,-1,23
 1035 488 1035 488 1035 382 c 0,24,25
 1035 204 1035 204 891.5 87.5 c 128,-1,26
 748 -29 748 -29 498 -29 c 0,27,28
 321 -29 321 -29 119 41 c 1,29,-1
 156 231 l 1,30,31
 340 125 340 125 532 125 c 0,32,33
 621 125 621 125 685 145 c 128,-1,34
 749 165 749 165 780.5 198.5 c 128,-1,35
 812 232 812 232 825.5 265 c 128,-1,36
 839 298 839 298 839 334 c 0,37,38
 839 391 839 391 788 422 c 128,-1,39
 737 453 737 453 601 487 c 2,40,-1
 540 502 l 2,41,42
 404 536 404 536 337.5 591 c 128,-1,43
 271 646 271 646 271 746 c 0,0,1
EndSplineSet
EndChar

StartChar: t
Encoding: 116 116 88
Width: 803
Flags: W
HStem: 0 154<451.639 754> 977 143<273 380 593 944>
VStem: 246 189<173.312 511.5>
DStem2: 190.274 0 375.274 0 0.190809 0.981627<306.159 995.251 1176.27 1464.95>
LayerCount: 3
Fore
SplineSet
435 263 m 0
 435 198 448 154 595 154 c 2
 784 154 l 1
 754 0 l 1
 565 0 l 2
 339 0 246 60 246 226 c 0
 246 267 251 314 262 369 c 2
 380 977 l 1
 245 977 l 1
 273 1120 l 1
 408 1120 l 1
 470 1438 l 1
 655 1438 l 1
 593 1120 l 1
 972 1120 l 1
 944 977 l 1
 565 977 l 1
 447 369 l 2
 439 327 435 291 435 263 c 0
EndSplineSet
Validated: 1
Layer: 2
SplineSet
435 263 m 0,0,1
 435 235 435 235 439.5 218 c 128,-1,2
 444 201 444 201 459.5 185 c 128,-1,3
 475 169 475 169 508.5 161.5 c 128,-1,4
 542 154 542 154 595 154 c 2,5,-1
 784 154 l 1,6,-1
 754 0 l 1,7,-1
 565 0 l 2,8,9
 394 0 394 0 320 51.5 c 128,-1,10
 246 103 246 103 246 226 c 0,11,12
 246 289 246 289 262 369 c 2,13,-1
 380 977 l 1,14,-1
 245 977 l 1,15,-1
 273 1120 l 1,16,-1
 408 1120 l 1,17,-1
 470 1438 l 1,18,-1
 655 1438 l 1,19,-1
 593 1120 l 1,20,-1
 972 1120 l 1,21,-1
 944 977 l 1,22,-1
 565 977 l 1,23,-1
 447 369 l 2,24,25
 435 306 435 306 435 263 c 0,0,1
EndSplineSet
EndChar

StartChar: u
Encoding: 117 117 89
Width: 1298
Flags: W
HStem: -29 160<490.162 765.426> 0 21G<928 1115.89> 1100 20G<388.106 576 1142.09 1330>
VStem: 243 190<190.239 582.508>
DStem2: 168.447 -29 352.086 -29 0.190809 0.981627<408.378 1170.55> 922.363 -29 1106.36 -29 0.190809 0.981627<64.6516 204.679 311.459 1170.56>
LayerCount: 3
Fore
SplineSet
561 -29 m 0xb0
 432 -29 243 11 243 286 c 0
 243 331 248 383 260 442 c 2
 392 1120 l 1
 576 1120 l 1
 445 449 l 2
 437 406 433 368 433 334 c 0
 433 187 510 131 631 131 c 0xb0
 834 131 980 269 1022 485 c 2
 1146 1120 l 1
 1330 1120 l 1
 1112 0 l 1
 928 0 l 1x70
 961 172 l 1
 864 58 741 -29 561 -29 c 0xb0
EndSplineSet
Validated: 1
Layer: 2
SplineSet
561 -29 m 0,0,1
 517 -29 517 -29 478 -23 c 128,-1,2
 439 -17 439 -17 394 3 c 128,-1,3
 349 23 349 23 317.5 56 c 128,-1,4
 286 89 286 89 264.5 148 c 128,-1,5
 243 207 243 207 243 286 c 0,6,7
 243 358 243 358 260 442 c 2,8,-1
 392 1120 l 1,9,-1
 576 1120 l 1,10,-1
 445 449 l 2,11,12
 433 384 433 384 433 334 c 0,13,14
 433 131 433 131 631 131 c 0,15,16
 782 131 782 131 886 226.5 c 128,-1,17
 990 322 990 322 1022 485 c 2,18,-1
 1146 1120 l 1,19,-1
 1330 1120 l 1,20,-1
 1112 0 l 1,21,-1
 928 0 l 1,22,-1
 961 172 l 1,23,24
 790 -29 790 -29 561 -29 c 0,0,1
EndSplineSet
EndChar

StartChar: v
Encoding: 118 118 90
Width: 1212
Flags: W
HStem: 0 21G<477.393 742.393> 1100 20G<279 477.553 1162.66 1369>
DStem2: 474 1120 279 1120 0.177493 -0.984122<0 954.716> 641 180 731 0 0.494969 0.868911<0 1080.59>
LayerCount: 3
Fore
SplineSet
279 1120 m 1
 474 1120 l 1
 641 180 l 1
 1174 1120 l 1
 1369 1120 l 1
 731 0 l 1
 481 0 l 1
 279 1120 l 1
EndSplineSet
Validated: 1
Layer: 2
SplineSet
279 1120 m 1,0,-1
 474 1120 l 1,1,-1
 641 180 l 1,2,-1
 1174 1120 l 1,3,-1
 1369 1120 l 1,4,-1
 731 0 l 1,5,-1
 481 0 l 1,6,-1
 279 1120 l 1,0,-1
EndSplineSet
EndChar

StartChar: w
Encoding: 119 119 91
Width: 1675
Flags: W
HStem: 0 21G<377.661 605.15 1077.63 1305.12> 1100 20G<304 489.373 937.87 1165.37 1613.87 1807>
DStem2: 488 1120 304 1120 0.0668146 -0.997765<0 876.056> 548 246 596 0 0.416041 0.909346<0 805.788> 1164 1120 1016 918 0.0684664 -0.997653<191.393 876.057> 1224 246 1296 0 0.415088 0.909781<0 960.769>
LayerCount: 3
Fore
SplineSet
304 1120 m 1
 488 1120 l 1
 548 246 l 1
 947 1120 l 1
 1164 1120 l 1
 1224 246 l 1
 1623 1120 l 1
 1807 1120 l 1
 1296 0 l 1
 1079 0 l 1
 1016 918 l 1
 596 0 l 1
 379 0 l 1
 304 1120 l 1
EndSplineSet
Validated: 1
Layer: 2
SplineSet
304 1120 m 1,0,-1
 488 1120 l 1,1,-1
 548 246 l 1,2,-1
 947 1120 l 1,3,-1
 1164 1120 l 1,4,-1
 1224 246 l 1,5,-1
 1623 1120 l 1,6,-1
 1807 1120 l 1,7,-1
 1296 0 l 1,8,-1
 1079 0 l 1,9,-1
 1016 918 l 1,10,-1
 596 0 l 1,11,-1
 379 0 l 1,12,-1
 304 1120 l 1,0,-1
EndSplineSet
EndChar

StartChar: x
Encoding: 120 120 92
Width: 1212
Flags: W
HStem: 0 21G<59 294.727 917.091 1145> 1100 20G<314 541.977 1106.2 1342>
DStem2: 59 0 276 0 0.689429 0.724353<149.606 752.366 998.654 1546.21> 531 1120 314 1120 0.480716 -0.876876<0 455.15 671.748 1172.95>
LayerCount: 3
Fore
SplineSet
1342 1120 m 1
 831 575 l 1
 1145 0 l 1
 928 0 l 1
 688 440 l 1
 276 0 l 1
 59 0 l 1
 608 586 l 1
 314 1120 l 1
 531 1120 l 1
 750 721 l 1
 1125 1120 l 1
 1342 1120 l 1
EndSplineSet
Validated: 1
Layer: 2
SplineSet
1342 1120 m 1,0,-1
 831 575 l 1,1,-1
 1145 0 l 1,2,-1
 928 0 l 1,3,-1
 688 440 l 1,4,-1
 276 0 l 1,5,-1
 59 0 l 1,6,-1
 608 586 l 1,7,-1
 314 1120 l 1,8,-1
 531 1120 l 1,9,-1
 750 721 l 1,10,-1
 1125 1120 l 1,11,-1
 1342 1120 l 1,0,-1
EndSplineSet
EndChar

StartChar: y
Encoding: 121 121 93
Width: 1212
Flags: W
HStem: -426 154<109 349.497> 1100 20G<279 478.087 1162.1 1369>
DStem2: 474 1120 279 1120 0.211104 -0.977464<0 894.046> 468 -66 639 -104 0.512224 0.858852<-243.967 97.2425 361.006 1380.23>
LayerCount: 3
Fore
SplineSet
639 -104 m 1
 507 -331 415 -426 226 -426 c 2
 79 -426 l 1
 109 -272 l 1
 217 -272 l 2
 333 -272 380 -218 468 -66 c 2
 517 18 l 1
 279 1120 l 1
 474 1120 l 1
 653 244 l 1
 1174 1120 l 1
 1369 1120 l 1
 639 -104 l 1
EndSplineSet
Validated: 1
Layer: 2
SplineSet
639 -104 m 1,0,1
 569 -225 569 -225 514 -290.5 c 128,-1,2
 459 -356 459 -356 389 -391 c 128,-1,3
 319 -426 319 -426 226 -426 c 2,4,-1
 79 -426 l 1,5,-1
 109 -272 l 1,6,-1
 217 -272 l 2,7,8
 300 -272 300 -272 349 -229.5 c 128,-1,9
 398 -187 398 -187 468 -66 c 2,10,-1
 517 18 l 1,11,-1
 279 1120 l 1,12,-1
 474 1120 l 1,13,-1
 653 244 l 1,14,-1
 1174 1120 l 1,15,-1
 1369 1120 l 1,16,-1
 639 -104 l 1,0,1
EndSplineSet
EndChar

StartChar: z
Encoding: 122 122 94
Width: 1075
Flags: W
HStem: 0 147<324 987> 973 147<331 969>
DStem2: 121 168 324 147 0.725256 0.68848<132.769 1169.24>
LayerCount: 3
Fore
SplineSet
331 1120 m 1
 1205 1120 l 1
 1172 952 l 1
 324 147 l 1
 1016 147 l 1
 987 0 l 1
 88 0 l 1
 121 168 l 1
 969 973 l 1
 302 973 l 1
 331 1120 l 1
EndSplineSet
Validated: 1
Layer: 2
SplineSet
331 1120 m 1,0,-1
 1205 1120 l 1,1,-1
 1172 952 l 1,2,-1
 324 147 l 1,3,-1
 1016 147 l 1,4,-1
 987 0 l 1,5,-1
 88 0 l 1,6,-1
 121 168 l 1,7,-1
 969 973 l 1,8,-1
 302 973 l 1,9,-1
 331 1120 l 1,0,-1
EndSplineSet
EndChar

StartChar: braceleft
Encoding: 123 123 95
Width: 1303
Flags: W
HStem: -334 144<777.3 982> 541 143<389 591.914> 1413 143<1065.32 1322>
VStem: 557 190<-164.769 179.57> 632 191<132.047 500.001>
DStem2: 502.274 -334 687.496 -334 0.190809 0.981627<309.149 726.168 1103.81 1776.37>
LayerCount: 3
Fore
SplineSet
920 -334 m 2xf0
 597 -334 557 -245 557 -112 c 0xf0
 557 -70 563 -21 574 35 c 2
 620 274 l 2
 628 316 632 351 632 382 c 0
 632 498 571 541 422 541 c 2
 361 541 l 1
 389 684 l 1
 450 684 l 2
 634 684 712 747 751 948 c 2
 798 1188 l 2
 826 1335 874 1434 940 1482 c 1
 1006 1532 1121 1556 1287 1556 c 2
 1349 1556 l 1
 1322 1413 l 1
 1254 1413 l 2
 1059 1413 1015 1358 982 1184 c 2
 934 936 l 2
 891 714 811 643 670 612 c 1
 769 587 823 539 823 418 c 0xe8
 823 382 818 338 808 287 c 2
 760 39 l 2
 751 -3 747 -39 747 -68 c 0
 747 -147 774 -190 942 -190 c 2
 1010 -190 l 1
 982 -334 l 1
 920 -334 l 2xf0
EndSplineSet
Validated: 1
Layer: 2
SplineSet
920 -334 m 2,0,1
 825 -334 825 -334 758 -323 c 128,-1,2
 691 -312 691 -312 652.5 -294.5 c 128,-1,3
 614 -277 614 -277 592 -247 c 128,-1,4
 570 -217 570 -217 563.5 -186.5 c 128,-1,5
 557 -156 557 -156 557 -112 c 0,6,7
 557 -52 557 -52 574 35 c 2,8,-1
 620 274 l 2,9,10
 632 337 632 337 632 382 c 0,11,12
 632 468 632 468 583.5 504.5 c 128,-1,13
 535 541 535 541 422 541 c 2,14,-1
 361 541 l 1,15,-1
 389 684 l 1,16,-1
 450 684 l 2,17,18
 589 684 589 684 655.5 741.5 c 128,-1,19
 722 799 722 799 751 948 c 2,20,-1
 798 1188 l 2,21,22
 840 1409 840 1409 940 1482 c 0,23,24
 1038 1556 1038 1556 1287 1556 c 2,25,-1
 1349 1556 l 1,26,-1
 1322 1413 l 1,27,-1
 1254 1413 l 2,28,29
 1180 1413 1180 1413 1134 1402.5 c 128,-1,30
 1088 1392 1088 1392 1057.5 1363 c 128,-1,31
 1027 1334 1027 1334 1011 1294 c 128,-1,32
 995 1254 995 1254 982 1184 c 2,33,-1
 934 936 l 2,34,35
 903 776 903 776 842 706 c 128,-1,36
 781 636 781 636 670 612 c 1,37,38
 748 592 748 592 785.5 548.5 c 128,-1,39
 823 505 823 505 823 418 c 0,40,41
 823 364 823 364 808 287 c 2,42,-1
 760 39 l 2,43,44
 747 -22 747 -22 747 -68 c 0,45,46
 747 -111 747 -111 760 -135.5 c 128,-1,47
 773 -160 773 -160 817 -175 c 128,-1,48
 861 -190 861 -190 942 -190 c 2,49,-1
 1010 -190 l 1,50,-1
 982 -334 l 1,51,-1
 920 -334 l 2,0,1
EndSplineSet
EndChar

StartChar: bar
Encoding: 124 124 96
Width: 690
Flags: W
VStem: 166 568
DStem2: 166 -483 336 -483 0.190809 0.981627<32.4375 2086.31>
LayerCount: 3
Fore
SplineSet
734 1565 m 1
 336 -483 l 1
 166 -483 l 1
 564 1565 l 1
 734 1565 l 1
EndSplineSet
Validated: 1
Layer: 2
SplineSet
734 1565 m 1,0,-1
 336 -483 l 1,1,-1
 166 -483 l 1,2,-1
 564 1565 l 1,3,-1
 734 1565 l 1,0,-1
EndSplineSet
EndChar

StartChar: braceright
Encoding: 125 125 97
Width: 1303
Flags: W
HStem: -334 144<219 476.079> 541 143<947.516 1152> 1413 143<558 771.191>
VStem: 718 189<724.996 1090.75> 793 189<1041.19 1388.26>
DStem2: 486.496 -334 670.274 -334 0.190809 0.981627<182.382 863.28 1237 1651.31>
LayerCount: 3
Fore
SplineSet
793 1290 m 0xe8
 793 1367 774 1413 601 1413 c 2
 531 1413 l 1
 558 1556 l 1
 621 1556 l 2
 787 1556 894 1532 940 1482 c 0
 968 1452 982 1404 982 1336 c 0xe8
 982 1294 977 1245 966 1188 c 2
 919 948 l 2
 911 908 907 873 907 843 c 0
 907 726 969 684 1118 684 c 2
 1180 684 l 1
 1152 541 l 1
 1090 541 l 2
 906 541 828 477 788 274 c 2
 742 35 l 2
 713 -112 666 -211 601 -260 c 0
 536 -309 420 -334 254 -334 c 2
 191 -334 l 1
 219 -190 l 1
 289 -190 l 2
 479 -190 523 -142 559 39 c 2
 607 287 l 2
 650 509 729 579 871 612 c 1
 771 636 718 682 718 803 c 0xf0
 718 840 723 884 733 936 c 2
 781 1184 l 2
 789 1226 793 1261 793 1290 c 0xe8
EndSplineSet
Validated: 1
Layer: 2
SplineSet
793 1290 m 0,0,1
 793 1323 793 1323 787 1342.5 c 128,-1,2
 781 1362 781 1362 762 1379.5 c 128,-1,3
 743 1397 743 1397 703.5 1405 c 128,-1,4
 664 1413 664 1413 601 1413 c 2,5,-1
 531 1413 l 1,6,-1
 558 1556 l 1,7,-1
 621 1556 l 2,8,9
 872 1556 872 1556 940 1482 c 0,10,11
 982 1437 982 1437 982 1336 c 0,12,13
 982 1271 982 1271 966 1188 c 2,14,-1
 919 948 l 2,15,16
 907 888 907 888 907 843 c 0,17,18
 907 756 907 756 956 720 c 128,-1,19
 1005 684 1005 684 1118 684 c 2,20,-1
 1180 684 l 1,21,-1
 1152 541 l 1,22,-1
 1090 541 l 2,23,24
 951 541 951 541 884.5 483 c 128,-1,25
 818 425 818 425 788 274 c 2,26,-1
 742 35 l 2,27,28
 698 -187 698 -187 601 -260 c 0,29,30
 503 -334 503 -334 254 -334 c 2,31,-1
 191 -334 l 1,32,-1
 219 -190 l 1,33,-1
 289 -190 l 2,34,35
 386 -190 386 -190 437 -169.5 c 128,-1,36
 488 -149 488 -149 514 -102.5 c 128,-1,37
 540 -56 540 -56 559 39 c 2,38,-1
 607 287 l 2,39,40
 638 447 638 447 698.5 516.5 c 128,-1,41
 759 586 759 586 871 612 c 1,42,43
 792 631 792 631 755 673.5 c 128,-1,44
 718 716 718 716 718 803 c 0,45,46
 718 858 718 858 733 936 c 2,47,-1
 781 1184 l 2,48,49
 793 1247 793 1247 793 1290 c 0,0,1
EndSplineSet
EndChar

StartChar: asciitilde
Encoding: 126 126 98
Width: 1716
Flags: W
HStem: 492 165<1089.57 1433.27> 627 166<536.437 888.654>
LayerCount: 3
Fore
SplineSet
1269 657 m 0x80
 1412 657 1547 739 1658 817 c 1
 1623 639 l 1
 1497 556 1366 492 1214 492 c 0x80
 1016 492 873 627 697 627 c 0
 554 627 422 550 308 467 c 1
 342 645 l 1
 470 728 600 793 752 793 c 0x40
 968 793 1100 657 1269 657 c 0x80
EndSplineSet
Validated: 1
Layer: 2
SplineSet
1269 657 m 0,0,1
 1366 657 1366 657 1460 700.5 c 128,-1,2
 1554 744 1554 744 1658 817 c 1,3,-1
 1623 639 l 1,4,5
 1400 492 1400 492 1214 492 c 0,6,7
 1148 492 1148 492 1074.5 513 c 128,-1,8
 1001 534 1001 534 947 559.5 c 128,-1,9
 893 585 893 585 824 606 c 128,-1,10
 755 627 755 627 697 627 c 0,11,12
 528 627 528 627 308 467 c 1,13,-1
 342 645 l 1,14,15
 452 716 452 716 549.5 754.5 c 128,-1,16
 647 793 647 793 752 793 c 0,17,18
 824 793 824 793 899.5 771.5 c 128,-1,19
 975 750 975 750 1028 725 c 128,-1,20
 1081 700 1081 700 1147 678.5 c 128,-1,21
 1213 657 1213 657 1269 657 c 0,0,1
EndSplineSet
EndChar

StartChar: exclamdown
Encoding: 161 161 100
Width: 821
Flags: W
HStem: 0 21G<309 515.878> 1239 254<599 753>
VStem: 527 162<955.759 1012>
DStem2: 309 0 512 0 0.190809 0.981627<38.7342 705.933 1300.96 1520.9>
LayerCount: 3
Fore
SplineSet
753 1239 m 1
 550 1239 l 1
 599 1493 l 1
 802 1493 l 1
 753 1239 l 1
512 0 m 1
 309 0 l 1
 436 655 l 1
 527 1012 l 1
 689 1012 l 1
 639 655 l 1
 512 0 l 1
EndSplineSet
Validated: 1
Layer: 2
SplineSet
753 1239 m 1,0,-1
 550 1239 l 1,1,-1
 599 1493 l 1,2,-1
 802 1493 l 1,3,-1
 753 1239 l 1,0,-1
512 0 m 1,4,-1
 309 0 l 1,5,-1
 436 655 l 1,6,-1
 527 1012 l 1,7,-1
 689 1012 l 1,8,-1
 639 655 l 1,9,-1
 512 0 l 1,4,-1
EndSplineSet
EndChar

StartChar: cent
Encoding: 162 162 101
Width: 1303
Flags: W
HStem: -25 156<580.246 673> 987 158<734.867 870 1003 1163.87>
VStem: 265 198<250.001 666.663>
DStem2: 617 -313 719 -313 0.190809 0.981627<19.4625 293.394 467.788 1324.39 1504.86 1777.62>
LayerCount: 3
Fore
SplineSet
870 987 m 1
 570 951 463 636 463 430 c 0
 463 261 543 150 703 131 c 1
 870 987 l 1
265 402 m 0
 265 570 344 1095 901 1145 c 1
 956 1432 l 1
 1058 1432 l 1
 1003 1145 l 1
 1113 1139 1198 1112 1268 1077 c 1
 1235 905 l 1
 1170 945 1083 986 973 991 c 1
 805 127 l 1
 916 135 1014 171 1100 213 c 1
 1067 43 l 1
 983 7 889 -19 774 -29 c 1
 719 -313 l 1
 617 -313 l 1
 673 -25 l 1
 411 -3 265 148 265 402 c 0
EndSplineSet
Validated: 1
Layer: 2
SplineSet
870 987 m 1,0,1
 784 977 784 977 713 935 c 128,-1,2
 642 893 642 893 596.5 835 c 128,-1,3
 551 777 551 777 520 704.5 c 128,-1,4
 489 632 489 632 476 563.5 c 128,-1,5
 463 495 463 495 463 430 c 0,6,7
 463 301 463 301 524 223 c 128,-1,8
 585 145 585 145 703 131 c 1,9,-1
 870 987 l 1,0,1
265 402 m 0,10,11
 265 444 265 444 270.5 494 c 128,-1,12
 276 544 276 544 294 614 c 128,-1,13
 312 684 312 684 339.5 749.5 c 128,-1,14
 367 815 367 815 417 884 c 128,-1,15
 467 953 467 953 531 1005.5 c 128,-1,16
 595 1058 595 1058 690.5 1096.5 c 128,-1,17
 786 1135 786 1135 901 1145 c 1,18,-1
 956 1432 l 1,19,-1
 1058 1432 l 1,20,-1
 1003 1145 l 1,21,22
 1148 1137 1148 1137 1268 1077 c 1,23,-1
 1235 905 l 1,24,25
 1105 985 1105 985 973 991 c 1,26,-1
 805 127 l 1,27,28
 944 137 944 137 1100 213 c 1,29,-1
 1067 43 l 1,30,31
 931 -15 931 -15 774 -29 c 1,32,-1
 719 -313 l 1,33,-1
 617 -313 l 1,34,-1
 673 -25 l 1,35,36
 476 -8 476 -8 370.5 102 c 128,-1,37
 265 212 265 212 265 402 c 0,10,11
EndSplineSet
EndChar

StartChar: sterling
Encoding: 163 163 102
Width: 1303
Flags: W
HStem: 0 170<162 398 598 1122> 635 143<317 488 716 1079> 1360 160<916.6 1279.62>
DStem2: 364.955 0 564.955 0 0.190809 0.981627<211.344 646.811 830.688 1321.49>
LayerCount: 3
Fore
SplineSet
1106 1520 m 0
 1164 1520 1264 1508 1386 1460 c 1
 1350 1278 l 1
 1219 1358 1127 1360 1093 1360 c 0
 888 1360 810 1258 758 993 c 2
 716 778 l 1
 1107 778 l 1
 1079 635 l 1
 688 635 l 1
 598 170 l 1
 1155 170 l 1
 1122 0 l 1
 129 0 l 1
 162 170 l 1
 398 170 l 1
 488 635 l 1
 289 635 l 1
 317 778 l 1
 516 778 l 1
 562 1016 l 2
 626 1345 782 1520 1106 1520 c 0
EndSplineSet
Validated: 1
Layer: 2
SplineSet
1106 1520 m 0,0,1
 1234 1520 1234 1520 1386 1460 c 1,2,-1
 1350 1278 l 1,3,4
 1216 1360 1216 1360 1093 1360 c 0,5,6
 942 1360 942 1360 870 1278 c 128,-1,7
 798 1196 798 1196 758 993 c 2,8,-1
 716 778 l 1,9,-1
 1107 778 l 1,10,-1
 1079 635 l 1,11,-1
 688 635 l 1,12,-1
 598 170 l 1,13,-1
 1155 170 l 1,14,-1
 1122 0 l 1,15,-1
 129 0 l 1,16,-1
 162 170 l 1,17,-1
 398 170 l 1,18,-1
 488 635 l 1,19,-1
 289 635 l 1,20,-1
 317 778 l 1,21,-1
 516 778 l 1,22,-1
 562 1016 l 2,23,24
 611 1270 611 1270 740 1395 c 128,-1,25
 869 1520 869 1520 1106 1520 c 0,0,1
EndSplineSet
EndChar

StartChar: currency
Encoding: 164 164 103
Width: 1303
Flags: W
HStem: 215 158<585.245 880.712> 909 158<671.642 972.046> 1182 20G<1308.27 1347.83>
VStem: 345 157<453.71 741.786> 1052 159<541.865 830.19>
DStem2: 132 197 223 82 0.766648 0.642068<0 332.385 1227.14 1561.18> 444 1198 307 1083 0.627448 -0.778659<3.58541 272.21 1012.1 1282.98>
LayerCount: 3
Fore
SplineSet
345 567 m 0
 345 705 417 812 473 877 c 1
 307 1083 l 1
 444 1198 l 1
 611 991 l 1
 679 1034 760 1067 860 1067 c 0
 958 1067 1032 1030 1084 993 c 1
 1332 1202 l 1
 1423 1087 l 1
 1177 881 l 1
 1203 819 1211 764 1211 719 c 0
 1211 594 1155 490 1080 406 c 1
 1249 199 l 1
 1113 86 l 1
 946 293 l 1
 872 249 789 215 695 215 c 0
 599 215 525 251 470 289 c 1
 223 82 l 1
 132 197 l 1
 379 403 l 1
 361 447 345 503 345 567 c 0
830 909 m 0
 660 909 502 761 502 588 c 0
 502 459 597 373 726 373 c 256
 903 373 1052 531 1052 697 c 0
 1052 819 966 909 830 909 c 0
EndSplineSet
Validated: 1
Layer: 2
SplineSet
345 567 m 0,0,1
 345 728 345 728 473 877 c 1,2,-1
 307 1083 l 1,3,-1
 444 1198 l 1,4,-1
 611 991 l 1,5,6
 731 1067 731 1067 860 1067 c 0,7,8
 980 1067 980 1067 1084 993 c 1,9,-1
 1332 1202 l 1,10,-1
 1423 1087 l 1,11,-1
 1177 881 l 1,12,13
 1211 800 1211 800 1211 719 c 0,14,15
 1211 553 1211 553 1080 406 c 1,16,-1
 1249 199 l 1,17,-1
 1113 86 l 1,18,-1
 946 293 l 1,19,20
 815 215 815 215 695 215 c 0,21,22
 577 215 577 215 470 289 c 1,23,-1
 223 82 l 1,24,-1
 132 197 l 1,25,-1
 379 403 l 1,26,27
 345 486 345 486 345 567 c 0,0,1
830 909 m 0,28,29
 701 909 701 909 601.5 813 c 128,-1,30
 502 717 502 717 502 588 c 0,31,32
 502 492 502 492 565 432.5 c 128,-1,33
 628 373 628 373 726 373 c 0,34,35
 857 373 857 373 954.5 472 c 128,-1,36
 1052 571 1052 571 1052 697 c 0,37,38
 1052 790 1052 790 991.5 849.5 c 128,-1,39
 931 909 931 909 830 909 c 0,28,29
EndSplineSet
EndChar

StartChar: yen
Encoding: 165 165 104
Width: 1303
Flags: W
HStem: 0 21G<551 755.868> 455 123<247 639 862 1253> 784 123<311 575 1077 1317> 1473 20G<372 568.943 1303.34 1509>
DStem2: 562 1493 372 1493 0.328987 -0.944335<0 557.657 688.285 740.978> 551 0 752 0 0.190809 0.981627<38.3526 463.432 626.722 640.722> 805 793 872 629 0.593421 0.804892<0 100.165 253.168 867.849>
LayerCount: 3
Fore
SplineSet
1253 455 m 1
 840 455 l 1
 752 0 l 1
 551 0 l 1
 639 455 l 1
 223 455 l 1
 247 578 l 1
 663 578 l 1
 673 629 l 1
 619 784 l 1
 287 784 l 1
 311 907 l 1
 575 907 l 1
 372 1493 l 1
 562 1493 l 1
 805 793 l 1
 1318 1493 l 1
 1509 1493 l 1
 1077 907 l 1
 1341 907 l 1
 1317 784 l 1
 986 784 l 1
 872 629 l 1
 862 578 l 1
 1277 578 l 1
 1253 455 l 1
EndSplineSet
Validated: 1
Layer: 2
SplineSet
1253 455 m 1,0,-1
 840 455 l 1,1,-1
 752 0 l 1,2,-1
 551 0 l 1,3,-1
 639 455 l 1,4,-1
 223 455 l 1,5,-1
 247 578 l 1,6,-1
 663 578 l 1,7,-1
 673 629 l 1,8,-1
 619 784 l 1,9,-1
 287 784 l 1,10,-1
 311 907 l 1,11,-1
 575 907 l 1,12,-1
 372 1493 l 1,13,-1
 562 1493 l 1,14,-1
 805 793 l 1,15,-1
 1318 1493 l 1,16,-1
 1509 1493 l 1,17,-1
 1077 907 l 1,18,-1
 1341 907 l 1,19,-1
 1317 784 l 1,20,-1
 986 784 l 1,21,-1
 872 629 l 1,22,-1
 862 578 l 1,23,-1
 1277 578 l 1,24,-1
 1253 455 l 1,0,-1
EndSplineSet
EndChar

StartChar: brokenbar
Encoding: 166 166 105
Width: 690
Flags: W
VStem: 192 516
DStem2: 192 -350 362 -350 0.190809 0.981627<32.4375 772.122 1075.59 1815.28>
LayerCount: 3
Fore
SplineSet
509 408 m 1
 362 -350 l 1
 192 -350 l 1
 339 408 l 1
 509 408 l 1
708 1432 m 1
 561 674 l 1
 391 674 l 1
 538 1432 l 1
 708 1432 l 1
EndSplineSet
Validated: 1
Layer: 2
SplineSet
509 408 m 1,0,-1
 362 -350 l 1,1,-1
 192 -350 l 1,2,-1
 339 408 l 1,3,-1
 509 408 l 1,0,-1
708 1432 m 1,4,-1
 561 674 l 1,5,-1
 391 674 l 1,6,-1
 538 1432 l 1,7,-1
 708 1432 l 1,4,-1
EndSplineSet
EndChar

StartChar: section
Encoding: 167 167 106
Width: 1024
Flags: W
HStem: -195 144<254.941 622.053> 1376 144<650.244 1010.91>
VStem: 227 171<615.086 827.607> 391 187<1117.66 1308.8> 703 188<23.6867 225.271> 887 170<518.936 728.354>
LayerCount: 3
Fore
SplineSet
561 936 m 1xe4
 448 864 398 798 398 721 c 0
 398 620 500 545 723 410 c 1
 823 472 887 541 887 628 c 0
 887 705 824 777 561 936 c 1xe4
391 1175 m 0xd0
 391 1313 507 1520 819 1520 c 0
 933 1520 1034 1493 1113 1462 c 1
 1081 1298 l 1
 1046 1317 927 1376 814 1376 c 0
 626 1376 578 1261 578 1209 c 0
 578 1153 635 1090 746 1020 c 2
 782 997 l 2
 973 876 1057 796 1057 680 c 0xd4
 1057 565 992 432 811 340 c 1
 851 300 891 245 891 166 c 0
 891 21 770 -195 449 -195 c 0
 331 -195 226 -165 145 -137 c 1
 177 27 l 1
 215 9 338 -51 455 -51 c 0
 639 -51 703 56 703 128 c 0
 703 191 643 259 524 334 c 2
 502 348 l 1
 310 468 227 546 227 664 c 0xe8
 227 779 291 918 472 1006 c 1
 426 1045 391 1098 391 1175 c 0xd0
EndSplineSet
Validated: 1
Layer: 2
SplineSet
561 936 m 1,0,1
 476 882 476 882 437 830.5 c 128,-1,2
 398 779 398 779 398 721 c 0,3,4
 398 650 398 650 469.5 585 c 128,-1,5
 541 520 541 520 723 410 c 1,6,7
 887 512 887 512 887 628 c 0,8,9
 887 688 887 688 819 754.5 c 128,-1,10
 751 821 751 821 561 936 c 1,0,1
391 1175 m 0,11,12
 391 1230 391 1230 415 1287.5 c 128,-1,13
 439 1345 439 1345 487 1398.5 c 128,-1,14
 535 1452 535 1452 621.5 1486 c 128,-1,15
 708 1520 708 1520 819 1520 c 0,16,17
 965 1520 965 1520 1113 1462 c 1,18,-1
 1081 1298 l 1,19,20
 937 1376 937 1376 814 1376 c 0,21,22
 748 1376 748 1376 698.5 1357.5 c 128,-1,23
 649 1339 649 1339 624.5 1311 c 128,-1,24
 600 1283 600 1283 589 1257.5 c 128,-1,25
 578 1232 578 1232 578 1209 c 0,26,27
 578 1126 578 1126 746 1020 c 2,28,-1
 782 997 l 2,29,30
 932 902 932 902 994.5 833 c 128,-1,31
 1057 764 1057 764 1057 680 c 0,32,33
 1057 585 1057 585 997.5 495 c 128,-1,34
 938 405 938 405 811 340 c 1,35,36
 891 260 891 260 891 166 c 0,37,38
 891 120 891 120 876.5 72.5 c 128,-1,39
 862 25 862 25 827.5 -23.5 c 128,-1,40
 793 -72 793 -72 743.5 -110 c 128,-1,41
 694 -148 694 -148 617.5 -171.5 c 128,-1,42
 541 -195 541 -195 449 -195 c 0,43,44
 313 -195 313 -195 145 -137 c 1,45,-1
 177 27 l 1,46,47
 342 -51 342 -51 455 -51 c 0,48,49
 520 -51 520 -51 570.5 -33.5 c 128,-1,50
 621 -16 621 -16 648.5 12 c 128,-1,51
 676 40 676 40 689.5 69.5 c 128,-1,52
 703 99 703 99 703 128 c 0,53,54
 703 221 703 221 524 334 c 2,55,-1
 502 348 l 2,56,57
 351 442 351 442 289 510.5 c 128,-1,58
 227 579 227 579 227 664 c 0,59,60
 227 760 227 760 286 852 c 128,-1,61
 345 944 345 944 472 1006 c 1,62,63
 391 1075 391 1075 391 1175 c 0,11,12
EndSplineSet
EndChar

StartChar: dieresis
Encoding: 168 168 107
Width: 1024
Flags: W
HStem: 1350 202<517 680 908 1071>
VStem: 477 634
LayerCount: 3
Fore
SplineSet
908 1552 m 1
 1111 1552 l 1
 1071 1350 l 1
 868 1350 l 1
 908 1552 l 1
517 1552 m 1
 720 1552 l 1
 680 1350 l 1
 477 1350 l 1
 517 1552 l 1
EndSplineSet
Validated: 1
Layer: 2
SplineSet
908 1552 m 1,0,-1
 1111 1552 l 1,1,-1
 1071 1350 l 1,2,-1
 868 1350 l 1,3,-1
 908 1552 l 1,0,-1
517 1552 m 1,4,-1
 720 1552 l 1,5,-1
 680 1350 l 1,6,-1
 477 1350 l 1,7,-1
 517 1552 l 1,4,-1
EndSplineSet
EndChar

StartChar: copyright
Encoding: 169 169 108
Width: 2048
Flags: W
HStem: 0 102<817.398 1275.98> 289 119<974.266 1354.66> 1073 119<1084.08 1476.57> 1382 103<1061.77 1519.29>
VStem: 413 101<399.416 849.804> 715 165<501.728 850.948> 1820 103<633.721 1083.78>
LayerCount: 3
Fore
SplineSet
413 598 m 0
 413 1057 848 1485 1313 1485 c 256
 1674 1485 1923 1226 1923 885 c 0
 1923 427 1492 0 1024 0 c 256
 663 0 413 257 413 598 c 0
1044 102 m 0
 1463 102 1820 473 1820 870 c 0
 1820 1166 1609 1382 1293 1382 c 0
 876 1382 514 1011 514 613 c 0
 514 317 728 102 1044 102 c 0
715 630 m 0
 715 881 883 1192 1281 1192 c 0
 1363 1192 1451 1179 1544 1137 c 1
 1519 1008 l 1
 1455 1043 1375 1073 1270 1073 c 0
 958 1073 880 790 880 650 c 0
 880 494 975 408 1150 408 c 0
 1207 408 1291 415 1415 473 c 1
 1390 346 l 1
 1281 302 1187 289 1105 289 c 0
 855 289 715 418 715 630 c 0
EndSplineSet
Validated: 1
Layer: 2
SplineSet
413 598 m 0,0,1
 413 733 413 733 461.5 866 c 128,-1,2
 510 999 510 999 596.5 1109 c 128,-1,3
 683 1219 683 1219 794.5 1304.5 c 128,-1,4
 906 1390 906 1390 1041 1437.5 c 128,-1,5
 1176 1485 1176 1485 1313 1485 c 0,6,7
 1446 1485 1446 1485 1560 1439 c 128,-1,8
 1674 1393 1674 1393 1753.5 1313 c 128,-1,9
 1833 1233 1833 1233 1878 1122.5 c 128,-1,10
 1923 1012 1923 1012 1923 885 c 0,11,12
 1923 717 1923 717 1847.5 554 c 128,-1,13
 1772 391 1772 391 1649.5 270 c 128,-1,14
 1527 149 1527 149 1361.5 74.5 c 128,-1,15
 1196 0 1196 0 1024 0 c 0,16,17
 847 0 847 0 707 78 c 128,-1,18
 567 156 567 156 490 292.5 c 128,-1,19
 413 429 413 429 413 598 c 0,0,1
1044 102 m 0,20,21
 1197 102 1197 102 1341 166.5 c 128,-1,22
 1485 231 1485 231 1589.5 336.5 c 128,-1,23
 1694 442 1694 442 1757 583 c 128,-1,24
 1820 724 1820 724 1820 870 c 0,25,26
 1820 1094 1820 1094 1674 1238 c 128,-1,27
 1528 1382 1528 1382 1293 1382 c 0,28,29
 1140 1382 1140 1382 996 1317.5 c 128,-1,30
 852 1253 852 1253 746.5 1147.5 c 128,-1,31
 641 1042 641 1042 577.5 901 c 128,-1,32
 514 760 514 760 514 613 c 0,33,34
 514 389 514 389 661.5 245.5 c 128,-1,35
 809 102 809 102 1044 102 c 0,20,21
715 630 m 0,36,37
 715 708 715 708 735 785 c 128,-1,38
 755 862 755 862 800 936 c 128,-1,39
 845 1010 845 1010 909.5 1066.5 c 128,-1,40
 974 1123 974 1123 1070 1157.5 c 128,-1,41
 1166 1192 1166 1192 1281 1192 c 0,42,43
 1422 1192 1422 1192 1544 1137 c 1,44,-1
 1519 1008 l 1,45,46
 1400 1073 1400 1073 1270 1073 c 0,47,48
 1181 1073 1181 1073 1110 1042 c 128,-1,49
 1039 1011 1039 1011 997.5 964.5 c 128,-1,50
 956 918 956 918 928 859 c 128,-1,51
 900 800 900 800 890 748.5 c 128,-1,52
 880 697 880 697 880 650 c 0,53,54
 880 533 880 533 949.5 470.5 c 128,-1,55
 1019 408 1019 408 1150 408 c 0,56,57
 1276 408 1276 408 1415 473 c 1,58,-1
 1390 346 l 1,59,60
 1249 289 1249 289 1105 289 c 0,61,62
 919 289 919 289 817 379.5 c 128,-1,63
 715 470 715 470 715 630 c 0,36,37
EndSplineSet
EndChar

StartChar: ordfeminine
Encoding: 170 170 109
Width: 965
Flags: W
HStem: 469 123<254 918> 698 119<471.344 722.451> 1104 115<516.61 891> 1405 115<493.845 877.03>
VStem: 294 151<847.137 1037.83> 918 145<1219.63 1362.51>
DStem2: 766.794 469 915.794 469 0.190809 0.981627<281.072 366.782 447.71 647.033 764.118 811.315>
LayerCount: 3
Fore
SplineSet
254 592 m 1
 942 592 l 1
 918 469 l 1
 230 469 l 1
 254 592 l 1
913 1219 m 1
 915 1228 918 1248 918 1267 c 0
 918 1366 839 1405 715 1405 c 0
 614 1405 514 1372 436 1337 c 1
 461 1464 l 1
 545 1494 651 1520 758 1520 c 0
 924 1520 1063 1468 1063 1272 c 0
 1063 1240 1059 1205 1051 1165 c 2
 964 717 l 1
 815 717 l 1
 837 829 l 1
 795 782 700 698 531 698 c 0
 385 698 294 769 294 892 c 0
 294 1002 354 1219 731 1219 c 2
 913 1219 l 1
764 1104 m 2
 584 1104 445 1075 445 931 c 0
 445 861 501 817 601 817 c 0
 741 817 855 923 885 1075 c 1
 891 1104 l 1
 764 1104 l 2
EndSplineSet
Validated: 1
Layer: 2
SplineSet
254 592 m 1,0,-1
 942 592 l 1,1,-1
 918 469 l 1,2,-1
 230 469 l 1,3,-1
 254 592 l 1,0,-1
913 1219 m 1,4,5
 918 1242 918 1242 918 1267 c 0,6,7
 918 1405 918 1405 715 1405 c 0,8,9
 588 1405 588 1405 436 1337 c 1,10,-1
 461 1464 l 1,11,12
 618 1520 618 1520 758 1520 c 0,13,14
 1063 1520 1063 1520 1063 1272 c 0,15,16
 1063 1225 1063 1225 1051 1165 c 2,17,-1
 964 717 l 1,18,-1
 815 717 l 1,19,-1
 837 829 l 1,20,21
 720 698 720 698 531 698 c 0,22,23
 421 698 421 698 357.5 749 c 128,-1,24
 294 800 294 800 294 892 c 0,25,26
 294 930 294 930 302.5 968.5 c 128,-1,27
 311 1007 311 1007 339.5 1054 c 128,-1,28
 368 1101 368 1101 413.5 1136 c 128,-1,29
 459 1171 459 1171 541 1195 c 128,-1,30
 623 1219 623 1219 731 1219 c 2,31,-1
 913 1219 l 1,4,5
764 1104 m 2,32,33
 691 1104 691 1104 637.5 1097 c 128,-1,34
 584 1090 584 1090 538 1072 c 128,-1,35
 492 1054 492 1054 468.5 1018.5 c 128,-1,36
 445 983 445 983 445 931 c 0,37,38
 445 878 445 878 486 847.5 c 128,-1,39
 527 817 527 817 601 817 c 0,40,41
 706 817 706 817 784 888.5 c 128,-1,42
 862 960 862 960 885 1075 c 2,43,-1
 891 1104 l 1,44,-1
 764 1104 l 2,32,33
EndSplineSet
EndChar

StartChar: guillemotleft
Encoding: 171 171 110
Width: 1253
Flags: W
DStem2: 443 600 267 559 0.679373 -0.733793<0 365.82> 283 641 443 600 0.796162 0.605083<102.578 545.785> 877 600 701 559 0.679373 -0.733793<0 365.82> 717 641 877 600 0.796162 0.605083<102.578 545.785>
LayerCount: 3
Fore
SplineSet
1267 1059 m 1
 1230 868 l 1
 877 600 l 1
 1126 332 l 1
 1088 141 l 1
 701 559 l 1
 717 641 l 1
 1267 1059 l 1
833 1059 m 1
 796 868 l 1
 443 600 l 1
 692 332 l 1
 654 141 l 1
 267 559 l 1
 283 641 l 1
 833 1059 l 1
EndSplineSet
Validated: 1
Layer: 2
SplineSet
1267 1059 m 1,0,-1
 1230 868 l 1,1,-1
 877 600 l 1,2,-1
 1126 332 l 1,3,-1
 1088 141 l 1,4,-1
 701 559 l 1,5,-1
 717 641 l 1,6,-1
 1267 1059 l 1,0,-1
833 1059 m 1,7,-1
 796 868 l 1,8,-1
 443 600 l 1,9,-1
 692 332 l 1,10,-1
 654 141 l 1,11,-1
 267 559 l 1,12,-1
 283 641 l 1,13,-1
 833 1059 l 1,7,-1
EndSplineSet
EndChar

StartChar: logicalnot
Encoding: 172 172 111
Width: 1716
Flags: W
HStem: 692 170<385 1466>
DStem2: 1387 287 1555 287 0.190809 0.981627<32.0559 412.633>
LayerCount: 3
Fore
SplineSet
385 862 m 1
 1667 862 l 1
 1555 287 l 1
 1387 287 l 1
 1466 692 l 1
 352 692 l 1
 385 862 l 1
EndSplineSet
Validated: 1
Layer: 2
SplineSet
385 862 m 1,0,-1
 1667 862 l 1,1,-1
 1555 287 l 1,2,-1
 1387 287 l 1,3,-1
 1466 692 l 1,4,-1
 352 692 l 1,5,-1
 385 862 l 1,0,-1
EndSplineSet
EndChar

StartChar: uni00AD
Encoding: 173 173 112
Width: 739
Flags: W
HStem: 479 164<225 732>
VStem: 193 571
LayerCount: 3
Fore
SplineSet
225 643 m 1
 764 643 l 1
 732 479 l 1
 193 479 l 1
 225 643 l 1
EndSplineSet
Validated: 1
Layer: 2
SplineSet
225 643 m 1,0,-1
 764 643 l 1,1,-1
 732 479 l 1,2,-1
 193 479 l 1,3,-1
 225 643 l 1,0,-1
EndSplineSet
EndChar

StartChar: registered
Encoding: 174 174 113
Width: 2048
Flags: W
HStem: 0 102<818.99 1279.5> 694 101<1029 1177.32> 1071 103<1082 1360.13> 1382 103<1056.5 1510.38>
VStem: 413 102<410.63 852.081> 1379 163<847.825 1048.34> 1819 104<638.663 1079.83>
DStem2: 719.299 0 874.299 0 0.190809 0.981627<373.902 736.527 839.487 1120.53> 1493 338 1232 547 0.388426 -0.92148<-427.679 -66.8093>
LayerCount: 3
Fore
SplineSet
1044 102 m 0
 1435 102 1819 464 1819 862 c 0
 1819 1155 1602 1382 1293 1382 c 0
 895 1382 515 1011 515 622 c 0
 515 328 735 102 1044 102 c 0
413 598 m 0
 413 1057 848 1485 1313 1485 c 256
 1674 1485 1923 1226 1923 885 c 0
 1923 427 1492 0 1024 0 c 256
 663 0 413 257 413 598 c 0
1152 795 m 2
 1246 795 1379 808 1379 971 c 0
 1379 1050 1316 1071 1205 1071 c 2
 1082 1071 l 1
 1029 795 l 1
 1152 795 l 2
1542 988 m 0
 1542 937 1521 757 1293 719 c 1
 1325 708 1360 651 1399 561 c 2
 1493 338 l 1
 1321 338 l 1
 1232 547 l 1
 1188 653 1160 694 1075 694 c 2
 1009 694 l 1
 940 338 l 1
 785 338 l 1
 947 1174 l 1
 1232 1174 l 2
 1457 1174 1542 1102 1542 988 c 0
EndSplineSet
Validated: 1
Layer: 2
SplineSet
1044 102 m 0,0,1
 1188 102 1188 102 1329.5 165.5 c 128,-1,2
 1471 229 1471 229 1578.5 332 c 128,-1,3
 1686 435 1686 435 1752.5 575.5 c 128,-1,4
 1819 716 1819 716 1819 862 c 0,5,6
 1819 1007 1819 1007 1752.5 1126 c 128,-1,7
 1686 1245 1686 1245 1565.5 1313.5 c 128,-1,8
 1445 1382 1445 1382 1293 1382 c 0,9,10
 1147 1382 1147 1382 1004 1317.5 c 128,-1,11
 861 1253 861 1253 754 1148.5 c 128,-1,12
 647 1044 647 1044 581 904.5 c 128,-1,13
 515 765 515 765 515 622 c 0,14,15
 515 400 515 400 664.5 251 c 128,-1,16
 814 102 814 102 1044 102 c 0,0,1
413 598 m 0,17,18
 413 733 413 733 461.5 866 c 128,-1,19
 510 999 510 999 596.5 1109 c 128,-1,20
 683 1219 683 1219 794.5 1304.5 c 128,-1,21
 906 1390 906 1390 1041 1437.5 c 128,-1,22
 1176 1485 1176 1485 1313 1485 c 0,23,24
 1446 1485 1446 1485 1560 1439 c 128,-1,25
 1674 1393 1674 1393 1753.5 1313 c 128,-1,26
 1833 1233 1833 1233 1878 1122.5 c 128,-1,27
 1923 1012 1923 1012 1923 885 c 0,28,29
 1923 717 1923 717 1847.5 554 c 128,-1,30
 1772 391 1772 391 1649.5 270 c 128,-1,31
 1527 149 1527 149 1361.5 74.5 c 128,-1,32
 1196 0 1196 0 1024 0 c 0,33,34
 847 0 847 0 707 78 c 128,-1,35
 567 156 567 156 490 292.5 c 128,-1,36
 413 429 413 429 413 598 c 0,17,18
1152 795 m 2,37,38
 1186 795 1186 795 1212.5 797.5 c 128,-1,39
 1239 800 1239 800 1272 810.5 c 128,-1,40
 1305 821 1305 821 1327 838.5 c 128,-1,41
 1349 856 1349 856 1364 890 c 128,-1,42
 1379 924 1379 924 1379 971 c 0,43,44
 1379 1027 1379 1027 1336.5 1049 c 128,-1,45
 1294 1071 1294 1071 1205 1071 c 2,46,-1
 1082 1071 l 1,47,-1
 1029 795 l 1,48,-1
 1152 795 l 2,37,38
1542 988 m 0,49,50
 1542 967 1542 967 1538.5 943.5 c 128,-1,51
 1535 920 1535 920 1519.5 882.5 c 128,-1,52
 1504 845 1504 845 1479.5 815 c 128,-1,53
 1455 785 1455 785 1406.5 757.5 c 128,-1,54
 1358 730 1358 730 1293 719 c 1,55,56
 1337 704 1337 704 1399 561 c 2,57,-1
 1493 338 l 1,58,-1
 1321 338 l 1,59,-1
 1232 547 l 2,60,61
 1197 632 1197 632 1166.5 663 c 128,-1,62
 1136 694 1136 694 1075 694 c 2,63,-1
 1009 694 l 1,64,-1
 940 338 l 1,65,-1
 785 338 l 1,66,-1
 947 1174 l 1,67,-1
 1232 1174 l 2,68,69
 1542 1174 1542 1174 1542 988 c 0,49,50
EndSplineSet
EndChar

StartChar: macron
Encoding: 175 175 114
Width: 1024
Flags: W
HStem: 1378 148<510 1079>
VStem: 481 627
LayerCount: 3
Fore
SplineSet
510 1526 m 1
 1108 1526 l 1
 1079 1378 l 1
 481 1378 l 1
 510 1526 l 1
EndSplineSet
Validated: 1
Layer: 2
SplineSet
510 1526 m 1,0,-1
 1108 1526 l 1,1,-1
 1079 1378 l 1,2,-1
 481 1378 l 1,3,-1
 510 1526 l 1,0,-1
EndSplineSet
EndChar

StartChar: degree
Encoding: 176 176 115
Width: 1024
Flags: W
HStem: 885 127<592.89 841.976> 1391 129<651.727 895.902>
VStem: 421 130<1055.76 1288.5> 939 130<1113.86 1347.44>
LayerCount: 3
Fore
SplineSet
709 1012 m 256
 838 1012 939 1125 939 1238 c 0
 939 1327 874 1391 782 1391 c 0
 653 1391 551 1275 551 1163 c 0
 551 1077 612 1012 709 1012 c 256
421 1133 m 0
 421 1337 601 1520 807 1520 c 0
 951 1520 1069 1421 1069 1266 c 0
 1069 1070 895 885 682 885 c 0
 522 885 421 988 421 1133 c 0
EndSplineSet
Validated: 1
Layer: 2
SplineSet
709 1012 m 256,0,1
 803 1012 803 1012 871 1081.5 c 128,-1,2
 939 1151 939 1151 939 1238 c 0,3,4
 939 1305 939 1305 895 1348 c 128,-1,5
 851 1391 851 1391 782 1391 c 0,6,7
 688 1391 688 1391 619.5 1320.5 c 128,-1,8
 551 1250 551 1250 551 1163 c 0,9,10
 551 1097 551 1097 594 1054.5 c 128,-1,11
 637 1012 637 1012 709 1012 c 256,0,1
421 1133 m 0,12,13
 421 1286 421 1286 537 1403 c 128,-1,14
 653 1520 653 1520 807 1520 c 0,15,16
 918 1520 918 1520 993.5 1450 c 128,-1,17
 1069 1380 1069 1380 1069 1266 c 0,18,19
 1069 1117 1069 1117 954 1001 c 128,-1,20
 839 885 839 885 682 885 c 0,21,22
 563 885 563 885 492 954 c 128,-1,23
 421 1023 421 1023 421 1133 c 0,12,13
EndSplineSet
EndChar

StartChar: plusminus
Encoding: 177 177 116
Width: 1716
Flags: W
HStem: 0 170<250 1499> 727 170<391 915 1116 1640>
DStem2: 773.911 0 941.911 0 0.190809 0.981627<378.42 740.564 945.793 1308.13>
LayerCount: 3
Fore
SplineSet
1192 1284 m 1
 1116 897 l 1
 1673 897 l 1
 1640 727 l 1
 1083 727 l 1
 1008 340 l 1
 840 340 l 1
 915 727 l 1
 358 727 l 1
 391 897 l 1
 948 897 l 1
 1024 1284 l 1
 1192 1284 l 1
250 170 m 1
 1532 170 l 1
 1499 0 l 1
 217 0 l 1
 250 170 l 1
EndSplineSet
Validated: 1
Layer: 2
SplineSet
1192 1284 m 1,0,-1
 1116 897 l 1,1,-1
 1673 897 l 1,2,-1
 1640 727 l 1,3,-1
 1083 727 l 1,4,-1
 1008 340 l 1,5,-1
 840 340 l 1,6,-1
 915 727 l 1,7,-1
 358 727 l 1,8,-1
 391 897 l 1,9,-1
 948 897 l 1,10,-1
 1024 1284 l 1,11,-1
 1192 1284 l 1,0,-1
250 170 m 1,12,-1
 1532 170 l 1,13,-1
 1499 0 l 1,14,-1
 217 0 l 1,15,-1
 250 170 l 1,12,-1
EndSplineSet
EndChar

StartChar: uni00B2
Encoding: 178 178 117
Width: 821
Flags: W
HStem: 668 114<420 822> 1411 109<422.245 752.702>
VStem: 784 155<1197.08 1377.84>
DStem2: 359 865 420 782 0.794951 0.606673<-1.86186 445.43>
LayerCount: 3
Fore
SplineSet
662 1520 m 0
 837 1520 939 1443 939 1325 c 0
 939 1231 878 1119 522 857 c 2
 420 782 l 1
 844 782 l 1
 822 668 l 1
 224 668 l 1
 245 778 l 1
 359 865 l 1
 737 1150 784 1231 784 1292 c 0
 784 1364 723 1411 620 1411 c 0
 522 1411 410 1363 361 1341 c 1
 385 1464 l 1
 439 1482 555 1520 662 1520 c 0
EndSplineSet
Validated: 1
Layer: 2
SplineSet
662 1520 m 0,0,1
 792 1520 792 1520 865.5 1467 c 128,-1,2
 939 1414 939 1414 939 1325 c 0,3,4
 939 1286 939 1286 923 1248 c 128,-1,5
 907 1210 907 1210 864.5 1155 c 128,-1,6
 822 1100 822 1100 736.5 1026 c 128,-1,7
 651 952 651 952 522 857 c 2,8,-1
 420 782 l 1,9,-1
 844 782 l 1,10,-1
 822 668 l 1,11,-1
 224 668 l 1,12,-1
 245 778 l 1,13,-1
 359 865 l 2,14,15
 496 968 496 968 584 1042 c 128,-1,16
 672 1116 672 1116 714 1163.5 c 128,-1,17
 756 1211 756 1211 770 1238.5 c 128,-1,18
 784 1266 784 1266 784 1292 c 0,19,20
 784 1346 784 1346 740.5 1378.5 c 128,-1,21
 697 1411 697 1411 620 1411 c 0,22,23
 517 1411 517 1411 361 1341 c 1,24,-1
 385 1464 l 1,25,26
 553 1520 553 1520 662 1520 c 0,0,1
EndSplineSet
EndChar

StartChar: uni00B3
Encoding: 179 179 118
Width: 821
Flags: W
HStem: 653 109<255.679 665.076> 1061 108<487 714.855> 1411 109<419.043 778.482>
VStem: 745 154<833.809 1027.62> 798 155<1218.98 1384.4>
LayerCount: 3
Fore
SplineSet
953 1340 m 0xe8
 953 1252 894 1152 742 1120 c 1
 833 1101 899 1049 899 956 c 0
 899 835 810 653 477 653 c 0
 427 653 348 659 233 694 c 1
 256 815 l 1
 315 781 389 762 484 762 c 0
 693 762 745 870 745 943 c 0xf0
 745 1015 689 1061 552 1061 c 2
 466 1061 l 1
 487 1169 l 1
 581 1169 l 2
 759 1169 798 1257 798 1315 c 0
 798 1388 718 1411 624 1411 c 0
 579 1411 520 1404 393 1370 c 1
 416 1485 l 1
 546 1514 627 1520 678 1520 c 0
 880 1520 953 1433 953 1340 c 0xe8
EndSplineSet
Validated: 1
Layer: 2
SplineSet
953 1340 m 0,0,1
 953 1266 953 1266 900.5 1204 c 128,-1,2
 848 1142 848 1142 742 1120 c 1,3,4
 814 1105 814 1105 856.5 1064 c 128,-1,5
 899 1023 899 1023 899 956 c 0,6,7
 899 917 899 917 887.5 878 c 128,-1,8
 876 839 876 839 846 797.5 c 128,-1,9
 816 756 816 756 770 724.5 c 128,-1,10
 724 693 724 693 648.5 673 c 128,-1,11
 573 653 573 653 477 653 c 0,12,13
 368 653 368 653 233 694 c 1,14,-1
 256 815 l 1,15,16
 348 762 348 762 484 762 c 0,17,18
 558 762 558 762 612 779.5 c 128,-1,19
 666 797 666 797 693.5 825.5 c 128,-1,20
 721 854 721 854 733 883 c 128,-1,21
 745 912 745 912 745 943 c 0,22,23
 745 1061 745 1061 552 1061 c 2,24,-1
 466 1061 l 1,25,-1
 487 1169 l 1,26,-1
 581 1169 l 2,27,28
 644 1169 644 1169 689.5 1183 c 128,-1,29
 735 1197 735 1197 757 1220.5 c 128,-1,30
 779 1244 779 1244 788.5 1267 c 128,-1,31
 798 1290 798 1290 798 1315 c 0,32,33
 798 1411 798 1411 624 1411 c 0,34,35
 546 1411 546 1411 393 1370 c 1,36,-1
 416 1485 l 1,37,38
 573 1520 573 1520 678 1520 c 0,39,40
 819 1520 819 1520 886 1468.5 c 128,-1,41
 953 1417 953 1417 953 1340 c 0,0,1
EndSplineSet
EndChar

StartChar: acute
Encoding: 180 180 119
Width: 1024
Flags: W
HStem: 1262 376
VStem: 616 552
LayerCount: 3
Fore
SplineSet
969 1638 m 1
 1168 1638 l 1
 769 1262 l 1
 616 1262 l 1
 969 1638 l 1
EndSplineSet
Validated: 1
Layer: 2
SplineSet
969 1638 m 1,0,-1
 1168 1638 l 1,1,-1
 769 1262 l 1,2,-1
 616 1262 l 1,3,-1
 969 1638 l 1,0,-1
EndSplineSet
EndChar

StartChar: micro
Encoding: 181 181 120
Width: 1303
Flags: W
HStem: -426 21G<91 278.906> -29 160<497.976 824.789 1079.02 1254.54> 1100 20G<388.106 576 1142.11 1330>
DStem2: 91 -426 275 -426 0.190809 0.981627<35.1089 598.556 813.138 1575.03> 845.418 -426 1029.04 -426 0.190809 0.981627<690.098 1574.95>
LayerCount: 3
Fore
SplineSet
639 -29 m 0
 467 -29 408 55 383 127 c 1
 275 -426 l 1
 91 -426 l 1
 392 1120 l 1
 576 1120 l 1
 440 424 l 2
 434 392 431 362 431 335 c 0
 431 203 504 131 656 131 c 0
 834 131 971 222 1019 467 c 2
 1146 1120 l 1
 1330 1120 l 1
 1162 258 l 2
 1159 239 1156 222 1156 206 c 0
 1156 167 1170 141 1211 141 c 0
 1225 141 1256 153 1285 164 c 1
 1256 16 l 1
 1212 -6 1158 -29 1098 -29 c 0
 998 -29 963 32 963 129 c 1
 886 36 784 -29 639 -29 c 0
EndSplineSet
Validated: 1
Layer: 2
SplineSet
639 -29 m 0,0,1
 437 -29 437 -29 383 127 c 1,2,-1
 275 -426 l 1,3,-1
 91 -426 l 1,4,-1
 392 1120 l 1,5,-1
 576 1120 l 1,6,-1
 440 424 l 2,7,8
 431 376 431 376 431 335 c 0,9,10
 431 131 431 131 656 131 c 0,11,12
 953 131 953 131 1019 467 c 2,13,-1
 1146 1120 l 1,14,-1
 1330 1120 l 1,15,-1
 1162 258 l 2,16,17
 1156 220 1156 220 1156 206 c 0,18,19
 1156 141 1156 141 1211 141 c 0,20,21
 1224 141 1224 141 1285 164 c 1,22,-1
 1256 16 l 1,23,24
 1166 -29 1166 -29 1098 -29 c 0,25,26
 963 -29 963 -29 963 129 c 1,27,28
 832 -29 832 -29 639 -29 c 0,0,1
EndSplineSet
EndChar

StartChar: paragraph
Encoding: 182 182 121
Width: 1303
Flags: W
HStem: 1370 123<1016 1206>
DStem2: 570 -197 712 -197 0.190809 0.981627<27.0949 861.749> 902 -197 1043 -197 0.190809 0.981627<26.9041 1596.22>
LayerCount: 3
Fore
SplineSet
356 977 m 0
 356 1220 545 1493 923 1493 c 2
 1371 1493 l 1
 1043 -197 l 1
 902 -197 l 1
 1206 1370 l 1
 1016 1370 l 1
 712 -197 l 1
 570 -197 l 1
 734 649 l 1
 495 668 356 782 356 977 c 0
EndSplineSet
Validated: 1
Layer: 2
SplineSet
356 977 m 0,0,1
 356 1051 356 1051 378 1124 c 128,-1,2
 400 1197 400 1197 447 1263.5 c 128,-1,3
 494 1330 494 1330 559.5 1381 c 128,-1,4
 625 1432 625 1432 719 1462.5 c 128,-1,5
 813 1493 813 1493 923 1493 c 2,6,-1
 1371 1493 l 1,7,-1
 1043 -197 l 1,8,-1
 902 -197 l 1,9,-1
 1206 1370 l 1,10,-1
 1016 1370 l 1,11,-1
 712 -197 l 1,12,-1
 570 -197 l 1,13,-1
 734 649 l 1,14,15
 553 663 553 663 454.5 747.5 c 128,-1,16
 356 832 356 832 356 977 c 0,0,1
EndSplineSet
EndChar

StartChar: periodcentered
Encoding: 183 183 122
Width: 651
Flags: W
HStem: 584 254<382 544>
VStem: 333 260
LayerCount: 3
Fore
SplineSet
382 838 m 1
 593 838 l 1
 544 584 l 1
 333 584 l 1
 382 838 l 1
EndSplineSet
Validated: 1
Layer: 2
SplineSet
382 838 m 1,0,-1
 593 838 l 1,1,-1
 544 584 l 1,2,-1
 333 584 l 1,3,-1
 382 838 l 1,0,-1
EndSplineSet
EndChar

StartChar: cedilla
Encoding: 184 184 123
Width: 1024
Flags: W
HStem: -395 123<238.679 506.389> -20 20G<477 617.5>
VStem: 532 134<-245.513 -39.6138>
LayerCount: 3
Fore
SplineSet
393 -272 m 0
 507 -272 532 -202 532 -157 c 0
 532 -122 518 -75 477 0 c 1
 596 0 l 1
 639 -61 666 -121 666 -180 c 0
 666 -251 628 -395 390 -395 c 0
 324 -395 270 -386 219 -371 c 1
 244 -240 l 1
 294 -267 346 -272 393 -272 c 0
EndSplineSet
Validated: 1
Layer: 2
SplineSet
393 -272 m 0,0,1
 469 -272 469 -272 500.5 -236.5 c 128,-1,2
 532 -201 532 -201 532 -157 c 0,3,4
 532 -101 532 -101 477 0 c 1,5,-1
 596 0 l 1,6,7
 666 -99 666 -99 666 -180 c 0,8,9
 666 -205 666 -205 660.5 -230 c 128,-1,10
 655 -255 655 -255 637 -286 c 128,-1,11
 619 -317 619 -317 590.5 -340 c 128,-1,12
 562 -363 562 -363 510 -379 c 128,-1,13
 458 -395 458 -395 390 -395 c 0,14,15
 301 -395 301 -395 219 -371 c 1,16,-1
 244 -240 l 1,17,18
 303 -272 303 -272 393 -272 c 0,0,1
EndSplineSet
EndChar

StartChar: uni0E01
Encoding: 3585 3585 124
Width: 1340
Flags: W
HStem: 0 21G<200 387.871 964 1149.89> 1072 160<632.293 1036.62>
VStem: 1120 186<688.262 986.175>
DStem2: 200 0 384 0 0.190809 0.981627<35.1089 653.409> 964 0 1146 0 0.190809 0.981627<34.7272 859.682>
LayerCount: 3
Back
SplineSet
104.5 1046.5 m 13
 105 843.5 l 5
 342.5 751 l 5
 288.061 723.613 245.584 681.353 215.068 624.22 c 132
 184.527 567.041 169.269 510.968 169.294 456 c 6
 169.5 0 l 5
 354.5 0 l 5
 354.294 456 l 6
 354.27 508.919 368.377 554.728 396.614 593.427 c 132
 424.827 632.084 463.456 660.609 512.5 679 c 5
 512 826.5 l 5
 260.608 940.811 l 5
 309.117 977.608 365.992 1007.49 431.233 1030.45 c 132
 496.474 1053.41 563.563 1064.26 632.5 1063 c 4
 733.784 1061.2 809.272 1033.41 858.963 979.636 c 132
 908.654 925.863 933.5 842.985 933.5 731 c 6
 933.5 0 l 5
 1116.5 0 l 5
 1116.5 747 l 6
 1116.5 905.919 1071.32 1025.04 980.974 1104.37 c 132
 890.623 1183.69 774.465 1223.23 632.5 1223 c 4
 533.315 1222.84 439.217 1208.91 350.205 1181.2 c 132
 261.193 1153.49 179.291 1108.59 104.5 1046.5 c 13
EndSplineSet
Fore
SplineSet
339 1056 m 17
 397 1097 586 1232 905 1232 c 0
 1085 1232 1306 1158 1306 881 c 0
 1306 843 1302 802 1293 756 c 2
 1146 0 l 1
 964 0 l 1
 1108 740 l 2
 1115 777 1120 814 1120 847 c 0
 1120 977 1057 1072 859 1072 c 0
 715 1072 573 1015 476 950 c 1
 705 836 l 1
 676 688 l 1
 581 654 497 579 474 465 c 2
 384 0 l 1
 200 0 l 1
 292 472 l 2
 305 542 377 694 520 760 c 1
 302 862 l 1
 339 1056 l 17
EndSplineSet
Validated: 1
Layer: 2
SplineSet
339 1056 m 17,0,1
 588 1232 588 1232 905 1232 c 0,2,3
 963 1232 963 1232 1016.5 1222.5 c 128,-1,4
 1070 1213 1070 1213 1124 1188 c 128,-1,5
 1178 1163 1178 1163 1217 1124.5 c 128,-1,6
 1256 1086 1256 1086 1281 1023.5 c 128,-1,7
 1306 961 1306 961 1306 881 c 0,8,9
 1306 822 1306 822 1293 756 c 2,10,-1
 1146 0 l 1,11,-1
 964 0 l 1,12,-1
 1108 740 l 2,13,14
 1120 803 1120 803 1120 847 c 0,15,16
 1120 1072 1120 1072 859 1072 c 0,17,18
 757 1072 757 1072 656 1037.5 c 128,-1,19
 555 1003 555 1003 476 950 c 1,20,-1
 705 836 l 1,21,-1
 676 688 l 1,22,23
 600 661 600 661 545 604 c 128,-1,24
 490 547 490 547 474 465 c 2,25,-1
 384 0 l 1,26,-1
 200 0 l 1,27,-1
 292 472 l 2,28,29
 300 513 300 513 324.5 563.5 c 128,-1,30
 349 614 349 614 401.5 672 c 128,-1,31
 454 730 454 730 520 760 c 1,32,-1
 302 862 l 1,33,-1
 339 1056 l 17,0,1
EndSplineSet
EndChar

StartChar: uni0E02
Encoding: 3586 3586 125
Width: 1220
Flags: W
HStem: 0 154<560 868.422> 761 106<370.09 508.239> 1085 135<593.667 673.523> 1182 20G<1076.1 1262>
VStem: 253 115<871.079 1000.25> 523 115<881.755 1013.79> 707 184<815.866 1053.51>
DStem2: 341 0 530.065 0 0.190809 0.981627<192.958 640.824> 845.85 0 1027.9 0 0.190809 0.981627<164.526 1224.59>
LayerCount: 3
Back
SplineSet
1315 927 m 132
 1315 953.667 1324.33 976.333 1343 995 c 132
 1361.67 1013.67 1384.33 1023 1411 1023 c 132
 1437.67 1023 1460.33 1013.67 1479 995 c 132
 1497.67 976.333 1507 953.667 1507 927 c 132
 1507 900.333 1497.67 877.667 1479 859 c 132
 1460.33 840.333 1437.67 831 1411 831 c 132
 1384.33 831 1361.67 840.333 1343 859 c 132
 1324.33 877.667 1315 900.333 1315 927 c 132
1303.5 1118.5 m 132
 1243.83 1062.83 1215.67 999 1219 927 c 4
 1221.67 871.667 1241.17 825.833 1277.5 789.5 c 132
 1313.83 753.167 1358.33 735 1411 735 c 132
 1463.67 735 1508.83 753.833 1546.5 791.5 c 132
 1584.17 829.167 1603 874.333 1603 927 c 260
 1603 987 1584.33 1032 1547 1062 c 5
 1595 1058.67 1631.5 1039.17 1656.5 1003.5 c 132
 1681.39 967.833 1693.55 934.333 1693 903 c 4
 1691.91 856.779 1684.07 820.752 1669.46 794.919 c 132
 1654.86 769.086 1631.47 735.808 1599.28 695.085 c 132
 1567.09 654.362 1542.33 610 1525 562 c 132
 1507.67 514 1499 468.333 1499 425 c 6
 1499 0 l 5
 1917 0 l 6
 2014.33 0 2084 19.5 2126 58.5 c 132
 2168.05 97.564 2189.05 142.731 2189 194 c 6
 2188 1202 l 5
 1998 1202 l 5
 1998 261 l 6
 1998 227.667 1989.83 202.5 1973.5 185.5 c 132
 1957.17 168.5 1932.33 160 1899 160 c 6
 1691 160 l 5
 1691 425 l 6
 1691 464.403 1696.51 500.743 1707.54 534.021 c 132
 1718.57 567.299 1741.07 605.615 1775.04 648.97 c 132
 1809.01 692.323 1832.17 731 1844.5 765 c 132
 1856.83 799 1863 839 1863 885 c 4
 1861.67 981.667 1827 1059 1759 1117 c 132
 1691 1175 1613 1203.67 1525 1203 c 132
 1437 1202.33 1363.17 1174.17 1303.5 1118.5 c 132
564 875 m 0
 564 926.333 549.167 970.333 519.5 1007 c 128
 489.833 1043.67 446.333 1064 389 1068 c 1
 412.333 1056 430.833 1037.33 444.5 1012 c 128
 458.167 986.667 465 956.333 465 921 c 0
 465 874.333 447.5 832.833 412.5 796.5 c 128
 377.5 760.167 334 742.667 282 744 c 0
 225.333 745.333 179 763.5 143 798.5 c 128
 107 833.5 88.6667 877.667 88 931 c 0
 86.6667 1005.67 115.333 1069.67 174 1123 c 128
 232.667 1176.33 306.667 1203 396 1203 c 128
 485.333 1203 563.665 1174.12 630.995 1116.36 c 128
 698.325 1058.61 732.66 981.487 734 885 c 0
 734.667 837 729.5 796.167 718.5 762.5 c 128
 707.5 728.833 683.167 689 645.5 643 c 128
 607.833 597 583.5 557.667 572.5 525 c 128
 561.5 492.333 556 459 556 425 c 2
 556 154 l 9
 761 154 l 2
 794.333 154 819.167 162.5 835.5 179.5 c 128
 851.833 196.5 860 221.667 860 255 c 2
 860 1202 l 1
 1039 1202 l 1
 1040 194 l 2
 1040.05 142.649 1019.05 97.482 977 58.5 c 128
 935 19.5 865.333 0 768 0 c 2
 367 0 l 1
 366 425 l 18
 365.841 492.331 374.135 545.331 390.881 584 c 128
 407.627 622.667 435.381 664.314 474.143 708.943 c 128
 512.905 753.571 537.465 785.898 547.823 805.925 c 128
 558.182 825.952 563.574 848.977 564 875 c 0
281.5 999.5 m 152
 260.5 999.833 242.167 993 226.5 979 c 128
 210.833 965 202.667 947.5 202 926.5 c 128
 201.333 905.5 208.333 887.667 223 873 c 128
 237.667 858.333 255.5 850.833 276.5 850.5 c 128
 297.5 850.167 315.5 857 330.5 871 c 128
 345.5 885 353.333 902.333 354 923 c 128
 354.667 943.667 348 961.5 334 976.5 c 128
 320 991.5 302.5 999.167 281.5 999.5 c 152
EndSplineSet
Fore
SplineSet
253 911 m 0xee
 253 1055 405 1220 613 1220 c 0xee
 810 1220 891 1089 891 966 c 0
 891 912 878 837 785 716 c 1
 715 623 l 2
 682 579 625 490 608 402 c 2
 560 154 l 1
 775 154 l 2
 842 154 883 190 896 258 c 2
 1080 1202 l 25
 1262 1202 l 9xde
 1066 196 l 2
 1041 65 932 0 740 0 c 2
 341 0 l 1
 429 452 l 2
 445 535 488 607 532 658 c 1
 601 735 l 2
 631 768 707 853 707 950 c 0
 707 1031 654 1082 585 1085 c 1
 619 1059 638 1040 638 994 c 0
 638 841 495 761 419 761 c 0
 329 761 253 812 253 911 c 0xee
460 1016 m 0
 411 1016 368 971 368 927 c 0
 368 893 395 867 434 867 c 0
 481 867 523 912 523 957 c 0
 523 991 498 1016 460 1016 c 0
EndSplineSet
Validated: 1
Layer: 2
SplineSet
253 911 m 0,0,1
 253 1025 253 1025 358.5 1122.5 c 128,-1,2
 464 1220 464 1220 613 1220 c 0,3,4
 750 1220 750 1220 820.5 1144.5 c 128,-1,5
 891 1069 891 1069 891 966 c 0,6,7
 891 854 891 854 785 716 c 2,8,-1
 715 623 l 2,9,10
 628 508 628 508 608 402 c 2,11,-1
 560 154 l 1,12,-1
 775 154 l 2,13,14
 876 154 876 154 896 258 c 2,15,-1
 1080 1202 l 1,16,-1
 1262 1202 l 1,17,-1
 1066 196 l 2,18,19
 1029 0 1029 0 740 0 c 2,20,-1
 341 0 l 1,21,-1
 429 452 l 2,22,23
 451 564 451 564 532 658 c 2,24,-1
 601 735 l 2,25,26
 707 852 707 852 707 950 c 0,27,28
 707 1009 707 1009 672.5 1046 c 128,-1,29
 638 1083 638 1083 585 1085 c 1,30,31
 614 1063 614 1063 626 1044.5 c 128,-1,32
 638 1026 638 1026 638 994 c 0,33,34
 638 940 638 940 614.5 893.5 c 128,-1,35
 591 847 591 847 556.5 819.5 c 128,-1,36
 522 792 522 792 485.5 776.5 c 128,-1,37
 449 761 449 761 419 761 c 0,38,39
 348 761 348 761 300.5 800.5 c 128,-1,40
 253 840 253 840 253 911 c 0,0,1
460 1016 m 0,41,42
 424 1016 424 1016 396 988.5 c 128,-1,43
 368 961 368 961 368 927 c 0,44,45
 368 901 368 901 386.5 884 c 128,-1,46
 405 867 405 867 434 867 c 0,47,48
 469 867 469 867 496 895 c 128,-1,49
 523 923 523 923 523 957 c 0,50,51
 523 983 523 983 505.5 999.5 c 128,-1,52
 488 1016 488 1016 460 1016 c 0,41,42
EndSplineSet
EndChar

StartChar: uni0E03
Encoding: 3587 3587 126
Width: 1310
Flags: W
HStem: 0 154<664 971.422> 637 108<371.945 509.354> 894 107<413.696 522.003> 1202 4G<464.5 585.343 748.419 859.5 1179.1 1365>
VStem: 240 129<748.442 876.587> 523 114<757.66 892.349> 826 177<822.004 1079.62>
DStem2: 444 0 634.065 0 0.190809 0.981627<193.149 639.525> 948.85 0 1130.9 0 0.190809 0.981627<164.526 1224.59>
LayerCount: 3
Fore
SplineSet
465 894 m 0
 410 894 369 845 369 805 c 0
 369 780 384 745 435 745 c 0
 487 745 523 792 523 837 c 0
 523 867 506 894 465 894 c 0
637 855 m 0
 637 729 506 637 406 637 c 0
 358 637 240 658 240 822 c 0
 240 1015 375 1180 554 1226 c 1
 659 1159 l 1
 791 1221 l 1
 928 1195 1003 1082 1003 960 c 0
 1003 910 993 828 894 711 c 1
 821 623 l 1
 783 574 730 494 713 408 c 2
 664 154 l 1
 873 154 l 2
 944 154 986 189 999 258 c 2
 1183 1202 l 1
 1365 1202 l 1
 1169 196 l 18
 1144 65 1035 0 843 0 c 2
 444 0 l 1
 533 458 l 2
 549 538 591 608 640 659 c 2
 710 730 l 2
 768 788 826 873 826 969 c 0
 826 1023 805 1066 773 1086 c 1
 629 1026 l 1
 511 1088 l 1
 459 1065 427 1032 413 987 c 1
 413 987 484 1001 489 1001 c 0
 597 1001 637 927 637 855 c 0
EndSplineSet
Validated: 1
Layer: 2
SplineSet
465 894 m 0,0,1
 426 894 426 894 397.5 865.5 c 128,-1,2
 369 837 369 837 369 805 c 0,3,4
 369 782 369 782 384.5 763.5 c 128,-1,5
 400 745 400 745 435 745 c 0,6,7
 473 745 473 745 498 773.5 c 128,-1,8
 523 802 523 802 523 837 c 0,9,10
 523 861 523 861 508.5 877.5 c 128,-1,11
 494 894 494 894 465 894 c 0,0,1
637 855 m 0,12,13
 637 766 637 766 562 701.5 c 128,-1,14
 487 637 487 637 406 637 c 0,15,16
 383 637 383 637 359 643.5 c 128,-1,17
 335 650 335 650 306 667.5 c 128,-1,18
 277 685 277 685 258.5 725 c 128,-1,19
 240 765 240 765 240 822 c 0,20,21
 240 965 240 965 329 1078 c 128,-1,22
 418 1191 418 1191 554 1226 c 1,23,-1
 659 1159 l 1,24,-1
 791 1221 l 1,25,26
 890 1202 890 1202 946.5 1128.5 c 128,-1,27
 1003 1055 1003 1055 1003 960 c 0,28,29
 1003 840 1003 840 894 711 c 2,30,-1
 821 623 l 1,31,32
 733 510 733 510 713 408 c 2,33,-1
 664 154 l 1,34,-1
 873 154 l 2,35,36
 979 154 979 154 999 258 c 2,37,-1
 1183 1202 l 1,38,-1
 1365 1202 l 1,39,-1
 1169 196 l 2,40,41
 1132 0 1132 0 843 0 c 2,42,-1
 444 0 l 1,43,-1
 533 458 l 2,44,45
 556 571 556 571 640 659 c 2,46,-1
 710 730 l 2,47,48
 826 846 826 846 826 969 c 0,49,50
 826 1053 826 1053 773 1086 c 1,51,-1
 629 1026 l 1,52,-1
 511 1088 l 1,53,54
 434 1054 434 1054 413 987 c 1,55,56
 484 1001 484 1001 489 1001 c 0,57,58
 564 1001 564 1001 600.5 958.5 c 128,-1,59
 637 916 637 916 637 855 c 0,12,13
EndSplineSet
EndChar

StartChar: uni0E04
Encoding: 3588 3588 127
Width: 1340
Flags: W
HStem: 0 21G<205 405.678 973 1160.89> 461 132<698.346 830.292> 737 132<709.25 842.196> 1072 160<658.491 1043.36>
VStem: 844 134<606.232 735.173> 1129 186<584.031 990.968>
DStem2: 973 0 1157 0 0.190809 0.981627<35.1089 858.795>
LayerCount: 3
Back
SplineSet
378 0 m 1
 195 0 l 1
 118 757.885 l 2
 114.361 793.704 119.893 837.177 134.597 888.306 c 128
 149.301 939.435 170.495 984.893 198.178 1024.68 c 128
 225.861 1064.47 259.635 1099.06 299.502 1128.46 c 128
 339.369 1157.85 388.133 1181.11 445.794 1198.22 c 128
 503.455 1215.33 566.857 1223.89 636 1223.89 c 0
 702.043 1223.89 762.777 1215.34 818.203 1198.25 c 128
 873.629 1181.15 920.64 1157.9 959.237 1128.5 c 128
 997.832 1099.09 1030.61 1064.57 1057.56 1024.92 c 128
 1084.51 985.266 1104.53 942.348 1117.6 896.166 c 128
 1130.67 849.984 1137.14 778.262 1137 681 c 2
 1136 0 l 1
 953 0 l 1
 953 742.886 l 2
 953 790.849 947.445 833.726 936.336 871.518 c 128
 925.227 909.31 907.743 942.916 883.882 972.335 c 128
 860.022 1001.75 827.528 1024.37 786.399 1040.18 c 128
 745.27 1055.99 696.47 1063.89 640 1063.89 c 0
 581.045 1063.89 528.983 1055.49 483.814 1038.7 c 128
 438.645 1021.91 402.527 998.627 375.46 968.862 c 128
 348.393 939.099 328.636 904.599 316.191 865.363 c 128
 303.746 826.126 299.015 783.301 302 736.886 c 2
 322 425.886 l 1
 328.235 443.701 335.915 472.139 345.039 511.202 c 128
 354.162 550.264 364.249 586.669 375.3 620.417 c 128
 386.351 654.166 399.917 683.322 416 707.886 c 0
 437.563 740.819 457.847 767.295 476.853 787.314 c 128
 495.858 807.333 519.962 824.225 549.164 837.99 c 128
 578.366 851.755 611.332 858.868 648.062 859.329 c 0
 699.763 859.978 743.276 842.361 778.6 806.479 c 128
 813.925 770.597 832.225 727.399 833.5 676.886 c 0
 834.801 625.394 816.578 582.521 778.832 548.267 c 0
 742.602 515.388 700.325 498.261 652 496.886 c 0
 623.076 496.063 598.964 498.883 579.663 505.346 c 128
 560.363 511.809 546.042 519.594 536.699 528.7 c 128
 527.356 537.805 516.79 551.201 505 568.886 c 1
 442.333 437.629 400 248 378 0 c 1
649 600.886 m 24
 669.922 600.886 687.952 607.934 703.089 622.031 c 128
 718.226 636.128 725.863 653.413 726 673.886 c 0
 726.14 694.812 718.756 712.71 703.848 727.581 c 128
 688.94 742.451 670.991 749.886 650 749.886 c 128
 629.074 749.886 611.211 742.467 596.411 727.629 c 128
 581.611 712.791 574.141 694.877 574 673.886 c 0
 573.865 653.631 581.188 636.4 595.971 622.194 c 128
 610.754 607.989 628.43 600.886 649 600.886 c 24
EndSplineSet
Fore
SplineSet
978 705 m 0
 978 576 860 461 731 461 c 0
 675 461 630 481 598 521 c 9
 398 0 l 17
 205 0 l 1
 281 686 l 1
 298 867 404 1232 895 1232 c 0
 1220 1232 1315 1022 1315 882 c 0
 1315 836 1307 772 1291 689 c 2
 1157 0 l 1
 973 0 l 1
 1119 751 l 2
 1125 783 1129 815 1129 846 c 0
 1129 970 1069 1072 868 1072 c 0
 519 1072 477 796 467 745 c 2
 356 168 l 1
 403 317 540 713 634 800 c 0
 683 846 743 869 810 869 c 0
 910 869 978 799 978 705 c 0
756 593 m 0
 804 593 844 636 844 680 c 0
 844 715 817 737 784 737 c 0
 737 737 697 695 697 651 c 0
 697 616 722 593 756 593 c 0
EndSplineSet
Validated: 1
Layer: 2
SplineSet
978 705 m 0,0,1
 978 609 978 609 903 535 c 128,-1,2
 828 461 828 461 731 461 c 0,3,4
 646 461 646 461 598 521 c 1,5,-1
 398 0 l 1,6,-1
 205 0 l 1,7,-1
 281 686 l 2,8,9
 285 730 285 730 294.5 773.5 c 128,-1,10
 304 817 304 817 324.5 873 c 128,-1,11
 345 929 345 929 375 977.5 c 128,-1,12
 405 1026 405 1026 453 1074 c 128,-1,13
 501 1122 501 1122 561 1156 c 128,-1,14
 621 1190 621 1190 707.5 1211 c 128,-1,15
 794 1232 794 1232 895 1232 c 0,16,17
 988 1232 988 1232 1063 1209 c 128,-1,18
 1138 1186 1138 1186 1184 1149.5 c 128,-1,19
 1230 1113 1230 1113 1260.5 1065.5 c 128,-1,20
 1291 1018 1291 1018 1303 972.5 c 128,-1,21
 1315 927 1315 927 1315 882 c 0,22,23
 1315 814 1315 814 1291 689 c 2,24,-1
 1157 0 l 1,25,-1
 973 0 l 1,26,-1
 1119 751 l 2,27,28
 1129 804 1129 804 1129 846 c 0,29,30
 1129 1072 1129 1072 868 1072 c 0,31,32
 798 1072 798 1072 739.5 1056.5 c 128,-1,33
 681 1041 681 1041 642.5 1019.5 c 128,-1,34
 604 998 604 998 572 964 c 128,-1,35
 540 930 540 930 523.5 903.5 c 128,-1,36
 507 877 507 877 493.5 840.5 c 128,-1,37
 480 804 480 804 476 788 c 128,-1,38
 472 772 472 772 467.958159191 749.996226346 c 0,39,40
 467 746 467 746 467 745 c 2,41,-1
 356 168 l 1,42,43
 412 345 412 345 492.5 544 c 128,-1,44
 573 743 573 743 634 800 c 0,45,46
 708 869 708 869 810 869 c 0,47,48
 884 869 884 869 931 822.5 c 128,-1,49
 978 776 978 776 978 705 c 0,0,1
756 593 m 0,50,51
 791 593 791 593 817.5 619.5 c 128,-1,52
 844 646 844 646 844 680 c 0,53,54
 844 706 844 706 826.5 721.5 c 128,-1,55
 809 737 809 737 784 737 c 0,56,57
 749 737 749 737 723 710.5 c 128,-1,58
 697 684 697 684 697 651 c 0,59,60
 697 625 697 625 713.5 609 c 128,-1,61
 730 593 730 593 756 593 c 0,50,51
EndSplineSet
EndChar

StartChar: uni0E05
Encoding: 3589 3589 128
Width: 1340
Flags: W
HStem: 0 21G<225 437.5 981 1167.9> 450 132<706.974 838.95> 726 132<718.583 850.196> 1212 20G<586 733.457 1057.92 1155>
VStem: 852 134<595.71 724.173> 1143 185<720.942 1019.43>
DStem2: 299 789 441 447 0.0933798 0.995631<-775.374 -595.759 -327.246 144.092> 981 0 1164 0 0.190809 0.981627<34.918 893.268>
LayerCount: 3
Fore
SplineSet
764 582 m 0
 810 582 852 621 852 669 c 0
 852 704 825 726 792 726 c 0
 746 726 705 687 705 639 c 0
 705 604 731 582 764 582 c 0
986 694 m 0
 986 554 858 450 738 450 c 256
 682 450 638 470 606 510 c 1
 533 393 467 223 408 0 c 1
 225 0 l 1
 299 789 l 2
 316 971 460 1157 712 1232 c 1
 874 1081 l 1
 1086 1232 l 1
 1224 1184 1328 1069 1328 891 c 0
 1328 859 1325 826 1318 790 c 2
 1164 0 l 1
 981 0 l 1
 1131 774 l 2
 1139 813 1143 848 1143 880 c 0
 1143 969 1113 1029 1054 1061 c 1
 884 947 l 1
 817 947 l 1
 687 1061 l 1
 614 1026 498 931 479 768 c 2
 441 447 l 1
 452 506 597 858 818 858 c 0
 918 858 986 788 986 694 c 0
EndSplineSet
Validated: 1
Layer: 2
SplineSet
764 582 m 0,0,1
 799 582 799 582 825.5 607.5 c 128,-1,2
 852 633 852 633 852 669 c 0,3,4
 852 695 852 695 834.5 710.5 c 128,-1,5
 817 726 817 726 792 726 c 0,6,7
 757 726 757 726 731 700.5 c 128,-1,8
 705 675 705 675 705 639 c 0,9,10
 705 613 705 613 722 597.5 c 128,-1,11
 739 582 739 582 764 582 c 0,0,1
986 694 m 0,12,13
 986 593 986 593 909 521.5 c 128,-1,14
 832 450 832 450 738 450 c 0,15,16
 654 450 654 450 606 510 c 1,17,18
 496.5 334.5 496.5 334.5 408 0 c 1,19,-1
 225 0 l 1,20,-1
 299 789 l 2,21,22
 312 932 312 932 421 1055 c 128,-1,23
 530 1178 530 1178 712 1232 c 1,24,-1
 874 1081 l 1,25,-1
 1086 1232 l 1,26,27
 1195 1194 1195 1194 1261.5 1106.5 c 128,-1,28
 1328 1019 1328 1019 1328 891 c 0,29,30
 1328 841 1328 841 1318 790 c 2,31,-1
 1164 0 l 1,32,-1
 981 0 l 1,33,-1
 1131 774 l 2,34,35
 1143 832 1143 832 1143 880 c 0,36,37
 1143 1013 1143 1013 1054 1061 c 1,38,-1
 884 947 l 1,39,-1
 817 947 l 1,40,-1
 687 1061 l 1,41,42
 617 1027 617 1027 554.5 952 c 128,-1,43
 492 877 492 877 479 768 c 2,44,-1
 441 447 l 2,45,46
 445 468 445 468 463 512.5 c 128,-1,47
 481 557 481 557 515.5 617 c 128,-1,48
 550 677 550 677 592.5 730.5 c 128,-1,49
 635 784 635 784 695.5 821 c 128,-1,50
 756 858 756 858 818 858 c 0,51,52
 892 858 892 858 939 811.5 c 128,-1,53
 986 765 986 765 986 694 c 0,12,13
EndSplineSet
EndChar

StartChar: uni0E06
Encoding: 3590 3590 129
Width: 1360
Flags: W
HStem: -10 142<319.731 452.897> 276 143<333.024 463.237> 637 108<351.71 489.354> 894 107<393.696 502.003> 1202 4G<443 565.343 728.419 839.5 1218.11 1404>
VStem: 183 135<135.205 262.142> 219 130<749.497 874.611> 503 114<757.66 892.349> 806 177<822.004 1079.62>
DStem2: 986.264 -10 1168.06 -10 0.190809 0.981627<229.211 1234.71>
LayerCount: 3
Fore
SplineSet
183 156 m 0xfd80
 183 293 303 419 437 419 c 0
 454 419 478 419 504 414 c 9
 513 458 l 2
 529 538 571 608 620 659 c 2
 690 730 l 2
 748 788 806 873 806 969 c 0
 806 1023 785 1066 753 1086 c 1
 609 1026 l 1
 491 1088 l 1
 439 1065 407 1032 393 987 c 1
 393 987 464 1001 469 1001 c 0
 577 1001 617 927 617 855 c 0
 617 729 486 637 386 637 c 0
 328 637 219 672 219 817 c 0xfb80
 219 1014 352 1180 534 1226 c 1
 639 1159 l 1
 771 1221 l 1
 908 1195 983 1082 983 960 c 0
 983 910 973 828 874 711 c 1
 804 626 l 1
 767 579 710 495 693 408 c 9
 688 379 l 17
 816 341 932 286 1030 215 c 1
 1222 1202 l 1
 1404 1202 l 1
 1170 0 l 1
 980 0 l 1
 888 99 781 173 658 224 c 1
 639 130 554 -10 350 -10 c 0
 257 -10 183 51 183 156 c 0xfd80
445 894 m 0
 390 894 349 845 349 805 c 0
 349 780 364 745 415 745 c 0
 467 745 503 792 503 837 c 0
 503 867 486 894 445 894 c 0
378 132 m 0
 425 132 465 174 465 218 c 0
 465 253 440 276 406 276 c 0
 358 276 318 233 318 189 c 0xfd80
 318 154 345 132 378 132 c 0
EndSplineSet
Validated: 1
Layer: 2
SplineSet
183 156 m 0,0,1
 183 259 183 259 260 339 c 128,-1,2
 337 419 337 419 437 419 c 0,3,4
 478 419 478 419 504 414 c 1,5,-1
 513 458 l 2,6,7
 536 571 536 571 620 659 c 2,8,-1
 690 730 l 2,9,10
 806 846 806 846 806 969 c 0,11,12
 806 1053 806 1053 753 1086 c 1,13,-1
 609 1026 l 1,14,-1
 491 1088 l 1,15,16
 414 1054 414 1054 393 987 c 1,17,18
 464 1001 464 1001 469 1001 c 0,19,20
 544 1001 544 1001 580.5 958.5 c 128,-1,21
 617 916 617 916 617 855 c 0,22,23
 617 766 617 766 542 701.5 c 128,-1,24
 467 637 467 637 386 637 c 0,25,26
 361 637 361 637 335 645.5 c 128,-1,27
 309 654 309 654 281.5 672.5 c 128,-1,28
 254 691 254 691 236.5 728.5 c 128,-1,29
 219 766 219 766 219 817 c 0,30,31
 219 964 219 964 307.5 1077.5 c 128,-1,32
 396 1191 396 1191 534 1226 c 1,33,-1
 639 1159 l 1,34,-1
 771 1221 l 1,35,36
 870 1202 870 1202 926.5 1128.5 c 128,-1,37
 983 1055 983 1055 983 960 c 0,38,39
 983 840 983 840 874 711 c 2,40,-1
 804 626 l 2,41,42
 713 510 713 510 693 408 c 2,43,-1
 688 379 l 1,44,45
 884 321 884 321 1030 215 c 1,46,-1
 1222 1202 l 1,47,-1
 1404 1202 l 1,48,-1
 1170 0 l 1,49,-1
 980 0 l 1,50,51
 843 147 843 147 658 224 c 1,52,53
 650 185 650 185 629.5 147 c 128,-1,54
 609 109 609 109 574 72 c 128,-1,55
 539 35 539 35 480.5 12.5 c 128,-1,56
 422 -10 422 -10 350 -10 c 128,-1,57
 278 -10 278 -10 230.5 34.5 c 128,-1,58
 183 79 183 79 183 156 c 0,0,1
445 894 m 0,59,60
 406 894 406 894 377.5 865.5 c 128,-1,61
 349 837 349 837 349 805 c 0,62,63
 349 782 349 782 364.5 763.5 c 128,-1,64
 380 745 380 745 415 745 c 0,65,66
 453 745 453 745 478 773.5 c 128,-1,67
 503 802 503 802 503 837 c 0,68,69
 503 861 503 861 488.5 877.5 c 128,-1,70
 474 894 474 894 445 894 c 0,59,60
378 132 m 0,71,72
 413 132 413 132 439 158.5 c 128,-1,73
 465 185 465 185 465 218 c 0,74,75
 465 244 465 244 448.5 260 c 128,-1,76
 432 276 432 276 406 276 c 0,77,78
 371 276 371 276 344.5 249.5 c 128,-1,79
 318 223 318 223 318 189 c 0,80,81
 318 163 318 163 335.5 147.5 c 128,-1,82
 353 132 353 132 378 132 c 0,71,72
EndSplineSet
EndChar

StartChar: uni0E07
Encoding: 3591 3591 130
Width: 1050
Flags: W
HStem: 0 21G<563 833.884> 804 132<714.411 800.39> 1080 132<727.129 857.433>
VStem: 578 135<937.86 1067.22> 859 164<948.161 1076.98>
DStem2: 643.686 0 830 0 0.190809 0.981627<305.615 822.19>
LayerCount: 3
Back
SplineSet
586 922.902 m 24
 606.922 922.902 624.952 929.95 640.089 944.047 c 128
 655.226 958.143 662.863 975.427 663 995.9 c 0
 663.14 1016.83 655.756 1034.73 640.849 1049.6 c 128
 625.941 1064.47 607.991 1071.9 587 1071.9 c 128
 566.073 1071.9 548.21 1064.48 533.411 1049.64 c 128
 518.611 1034.81 511.141 1016.89 511 995.9 c 0
 510.864 975.647 518.188 958.417 532.971 944.211 c 128
 547.754 930.005 565.431 922.902 586 922.902 c 24
643.821 800.898 m 9
 644 300 l 1
 533.615 462.551 369.225 616.185 150.83 760.902 c 1
 91.8301 640.902 l 1
 161.415 591.613 249.587 500.398 356.346 367.257 c 128
 463.105 234.117 548.989 111.698 614 0 c 1
 830 0 l 1
 829.83 952.902 l 18
 829.816 1031.37 807.581 1092.59 763.126 1136.57 c 128
 718.671 1180.55 666.629 1202.66 607 1202.9 c 0
 539.959 1203.17 484.759 1184.44 441.401 1146.7 c 128
 398.044 1108.96 376.91 1056.03 378 987.9 c 0
 378.944 928.91 400.033 881.907 441.267 846.892 c 128
 482.501 811.877 529.412 794.214 582 793.902 c 0
 608.445 793.745 629.052 796.077 643.821 800.898 c 9
EndSplineSet
Fore
SplineSet
772 936 m 0
 820 936 859 979 859 1022 c 0
 859 1057 834 1080 800 1080 c 0
 752 1080 713 1037 713 994 c 0
 713 959 738 936 772 936 c 0
578 968 m 0
 578 1099 700 1212 826 1212 c 0
 966 1212 1023 1122 1023 1020 c 0
 1023 1001 1021 982 1017 963 c 10
 830 0 l 1
 604 0 l 1
 522 204 400 476 217 641 c 1
 299 761 l 1
 462 633 611 479 702 300 c 1
 801 807 l 17
 799 805 781 804 746 804 c 0
 646 804 578 874 578 968 c 0
EndSplineSet
Validated: 1
Layer: 2
SplineSet
772 936 m 0,0,1
 807 936 807 936 833 962.5 c 128,-1,2
 859 989 859 989 859 1022 c 0,3,4
 859 1048 859 1048 842.5 1064 c 128,-1,5
 826 1080 826 1080 800 1080 c 0,6,7
 765 1080 765 1080 739 1053.5 c 128,-1,8
 713 1027 713 1027 713 994 c 0,9,10
 713 968 713 968 729.5 952 c 128,-1,11
 746 936 746 936 772 936 c 0,0,1
578 968 m 0,12,13
 578 1065 578 1065 654 1138.5 c 128,-1,14
 730 1212 730 1212 826 1212 c 0,15,16
 925 1212 925 1212 974 1157.5 c 128,-1,17
 1023 1103 1023 1103 1023 1020 c 0,18,19
 1023 991.5 1023 991.5 1017 963 c 2,20,-1
 830 0 l 1,21,-1
 604 0 l 1,22,23
 567 91 567 91 533 166 c 128,-1,24
 499 241 499 241 450 332.5 c 128,-1,25
 401 424 401 424 341.5 503 c 128,-1,26
 282 582 282 582 217 641 c 1,27,-1
 299 761 l 1,28,29
 580 541 580 541 702 300 c 1,30,-1
 801 807 l 2,31,32
 798 804 798 804 746 804 c 0,33,34
 672 804 672 804 625 850.5 c 128,-1,35
 578 897 578 897 578 968 c 0,12,13
EndSplineSet
EndChar

StartChar: uni0E08
Encoding: 3592 3592 131
Width: 1140
Flags: W
HStem: 0 21G<680 872.534> 449 126<443.469 582.405> 724 126<457.176 592.794> 1076 156<431.935 861.533>
VStem: 308 133<577.923 710.155> 692 124<326 521.452> 949 188<695.367 996.646>
LayerCount: 3
Back
SplineSet
946 723 m 10
 946 0 l 1
 760 0 l 1
 733.333 128 702.43 240.5 667.289 337.5 c 128
 632.148 434.5 596.219 497.333 559.5 526 c 1
 551.876 509.725 535.543 492.841 510.502 475.348 c 128
 485.461 457.855 448.96 449.093 401 449.06 c 8
 341.135 449.019 292.545 467.128 255.23 503.388 c 128
 217.915 539.648 198.505 585.872 197 642.06 c 0
 195.275 706.452 215.318 757.164 257.129 794.196 c 128
 298.94 831.229 353.23 849.517 420 849.06 c 0
 469.687 849.043 512.608 836.528 548.765 811.517 c 128
 584.922 786.506 614.345 759.895 637.036 731.685 c 128
 659.726 703.475 684.061 665.912 710.041 618.996 c 128
 736.021 572.081 753.341 529.749 762 492 c 1
 762 810 l 2
 762 894.667 734.167 960.167 678.5 1006.5 c 128
 622.833 1052.83 544.667 1076 444 1076 c 0
 380 1076 317.667 1068.33 257 1053 c 128
 196.333 1037.67 138 1014.67 82 984 c 1
 82 1154 l 1
 149.333 1180 214.667 1199.5 278 1212.5 c 128
 341.333 1225.5 403 1232 463 1232 c 0
 625 1232 746 1190 826 1106 c 128
 906 1022 946 894.333 946 723 c 10
401 575.06 m 24
 421.922 575.06 439.952 582.108 455.089 596.205 c 128
 470.226 610.302 477.863 627.587 478 648.06 c 0
 478.14 668.986 470.756 686.884 455.848 701.755 c 128
 440.94 716.625 422.991 724.06 402 724.06 c 128
 381.074 724.06 363.211 716.641 348.411 701.803 c 128
 333.611 686.965 326.141 669.051 326 648.06 c 0
 325.865 627.804 333.188 610.573 347.971 596.368 c 128
 362.754 582.163 380.43 575.06 401 575.06 c 24
EndSplineSet
Fore
SplineSet
308 603 m 0
 308 740 421 850 566 850 c 0
 657 850 746 804 780 707 c 0
 800 650 816 537 816 406 c 0
 816 380 815 353 814 326 c 1
 939 810 l 1
 945 829 949 856 949 878 c 0
 949 1007 836 1076 673 1076 c 0
 564 1076 434 1053 293 984 c 1
 326 1154 l 1
 422 1188 570 1232 722 1232 c 0
 1021 1232 1137 1064 1137 894 c 0
 1137 841 1127 795 1112 753 c 9
 866 0 l 1
 680 0 l 1
 688 79 692 152 692 220 c 0
 692 330 680 429 652 526 c 1
 620 477 549 449 481 449 c 0
 393 449 308 496 308 603 c 0
533 724 m 0
 478 724 441 674 441 634 c 0
 441 601 464 575 503 575 c 8
 552 575 596 616 596 664 c 0
 596 701 569 724 533 724 c 0
EndSplineSet
Validated: 1
Layer: 2
SplineSet
308 603 m 0,0,1
 308 706 308 706 383 778 c 128,-1,2
 458 850 458 850 566 850 c 0,3,4
 638 850 638 850 697 813.5 c 128,-1,5
 756 777 756 777 780 707 c 0,6,7
 816 604 816 604 816 406 c 0,8,9
 816 380 816 380 814 326 c 1,10,-1
 939 810 l 2,11,12
 949 842 949 842 949 878 c 0,13,14
 949 973 949 973 873.5 1024.5 c 128,-1,15
 798 1076 798 1076 673 1076 c 0,16,17
 481 1076 481 1076 293 984 c 1,18,-1
 326 1154 l 1,19,20
 546 1232 546 1232 722 1232 c 0,21,22
 830 1232 830 1232 912.5 1203.5 c 128,-1,23
 995 1175 995 1175 1042.5 1126.5 c 128,-1,24
 1090 1078 1090 1078 1113.5 1019 c 128,-1,25
 1137 960 1137 960 1137 894 c 0,26,27
 1137 823 1137 823 1112 753 c 2,28,-1
 866 0 l 1,29,-1
 680 0 l 1,30,31
 692 118 692 118 692 220 c 0,32,33
 692 387 692 387 652 526 c 1,34,35
 629 490 629 490 581.5 469.5 c 128,-1,36
 534 449 534 449 481 449 c 0,37,38
 409 449 409 449 358.5 488.5 c 128,-1,39
 308 528 308 528 308 603 c 0,0,1
533 724 m 0,40,41
 494 724 494 724 467.5 695 c 128,-1,42
 441 666 441 666 441 634 c 0,43,44
 441 608 441 608 457.5 591.5 c 128,-1,45
 474 575 474 575 503 575 c 0,46,47
 540 575 540 575 568 601.5 c 128,-1,48
 596 628 596 628 596 664 c 0,49,50
 596 691 596 691 578.5 707.5 c 128,-1,51
 561 724 561 724 533 724 c 0,40,41
EndSplineSet
EndChar

StartChar: uni0E09
Encoding: 3593 3593 132
Width: 1300
Flags: W
HStem: 0 132<970.804 1101.69> 424 132<338.411 424.412> 700 132<351.129 481.433> 1076 156<542.181 972.402>
VStem: 202 135<557.86 687.215> 483 164<569.81 696.976> 835 134<133.827 203.346> 1061 179<613.336 998.401> 1116 135<144.215 274.345>
DStem2: 897.997 0 1081.58 0 0.190809 0.981627<415.609 886.069>
AnchorPoint: "AboveBase" 1369 1340 basechar 0
LayerCount: 3
Fore
SplineSet
202 588 m 0xfe80
 202 719 324 832 450 832 c 0
 590 832 647 742 647 640 c 0
 647 621 645 602 641 583 c 2
 568 207 l 1
 696 308 831 369 974 391 c 9
 1055 810 l 2
 1059 829 1061 850 1061 872 c 0
 1061 969 1009 1076 779 1076 c 0
 622 1076 494 1032 365 964 c 1
 398 1134 l 1
 614 1226 725 1232 828 1232 c 0
 1057 1232 1240 1158 1240 883 c 0xff
 1240 836 1235 783 1223 723 c 10
 1157 388 l 17
 1204 373 1251 321 1251 243 c 0
 1251 124 1139 0 1003 0 c 0
 903 0 835 70 835 164 c 0
 835 177 836 190 839 204 c 1
 705 155 600 87 524 0 c 1
 342 0 l 1
 425 427 l 2
 424 425 405 424 370 424 c 0
 270 424 202 494 202 588 c 0xfe80
1029 132 m 0
 1076 132 1116 174 1116 218 c 0xfe80
 1116 253 1091 276 1057 276 c 0
 1009 276 969 233 969 189 c 0
 969 154 996 132 1029 132 c 0
396 556 m 0
 444 556 483 599 483 642 c 0
 483 677 458 700 424 700 c 0
 376 700 337 657 337 614 c 0
 337 579 362 556 396 556 c 0
EndSplineSet
Validated: 1
Layer: 2
SplineSet
202 588 m 0,0,1
 202 685 202 685 278 758.5 c 128,-1,2
 354 832 354 832 450 832 c 0,3,4
 549 832 549 832 598 777.5 c 128,-1,5
 647 723 647 723 647 640 c 0,6,7
 647 611.5 647 611.5 641 583 c 2,8,-1
 568 207 l 1,9,10
 759 358 759 358 974 391 c 1,11,-1
 1055 810 l 2,12,13
 1061 838 1061 838 1061 872 c 0,14,15
 1061 912 1061 912 1048.5 945.5 c 128,-1,16
 1036 979 1036 979 1007 1010 c 128,-1,17
 978 1041 978 1041 919.5 1058.5 c 128,-1,18
 861 1076 861 1076 779 1076 c 0,19,20
 577 1076 577 1076 365 964 c 1,21,-1
 398 1134 l 1,22,23
 544 1196 544 1196 637.5 1214 c 128,-1,24
 731 1232 731 1232 828 1232 c 0,25,26
 919 1232 919 1232 989.5 1215.5 c 128,-1,27
 1060 1199 1060 1199 1118.5 1161 c 128,-1,28
 1177 1123 1177 1123 1208.5 1053 c 128,-1,29
 1240 983 1240 983 1240 883 c 0,30,31
 1240 808 1240 808 1223 723 c 2,32,-1
 1157 388 l 1,33,34
 1195 376 1195 376 1223 337 c 128,-1,35
 1251 298 1251 298 1251 243 c 0,36,37
 1251 151 1251 151 1177 75.5 c 128,-1,38
 1103 0 1103 0 1003 0 c 0,39,40
 929 0 929 0 882 46.5 c 128,-1,41
 835 93 835 93 835 164 c 0,42,43
 835 185 835 185 839 204 c 1,44,45
 638 130.5 638 130.5 524 0 c 1,46,-1
 342 0 l 1,47,-1
 425 427 l 2,48,49
 424 424 424 424 370 424 c 0,50,51
 296 424 296 424 249 470.5 c 128,-1,52
 202 517 202 517 202 588 c 0,0,1
1029 132 m 0,53,54
 1064 132 1064 132 1090 158.5 c 128,-1,55
 1116 185 1116 185 1116 218 c 0,56,57
 1116 244 1116 244 1099.5 260 c 128,-1,58
 1083 276 1083 276 1057 276 c 0,59,60
 1022 276 1022 276 995.5 249.5 c 128,-1,61
 969 223 969 223 969 189 c 0,62,63
 969 163 969 163 986.5 147.5 c 128,-1,64
 1004 132 1004 132 1029 132 c 0,53,54
396 556 m 0,65,66
 431 556 431 556 457 582.5 c 128,-1,67
 483 609 483 609 483 642 c 0,68,69
 483 668 483 668 466.5 684 c 128,-1,70
 450 700 450 700 424 700 c 0,71,72
 389 700 389 700 363 673.5 c 128,-1,73
 337 647 337 647 337 614 c 0,74,75
 337 588 337 588 353.5 572 c 128,-1,76
 370 556 370 556 396 556 c 0,65,66
EndSplineSet
EndChar

StartChar: uni0E0A
Encoding: 3594 3594 133
Width: 1260
Flags: W
HStem: 0 154<570 878.422> 761 106<380.827 516.433> 1085 135<603.403 683.523>
VStem: 263 115<870.513 1000.14> 533 116<881.725 1013.81> 717 184<816.079 1057.8> 1000 184<525.211 888.819> 1239 180<1240.99 1392>
DStem2: 351 0 540.065 0 0.190809 0.981627<192.958 641.215> 855.85 0 1037.9 0 0.190809 0.981627<164.526 783.464>
LayerCount: 3
Fore
SplineSet
263 912 m 0
 263 1053 412 1220 623 1220 c 0
 820 1220 901 1089 901 966 c 0
 901 912 888 837 795 716 c 1
 725 623 l 2
 688 574 635 490 618 402 c 2
 570 154 l 1
 785 154 l 2
 852 154 893 190 906 258 c 2
 994 709 l 2
 998 731 1000 752 1000 771 c 0
 1000 828 982 870 945 898 c 1
 969 1024 l 1
 1137 1061 1207 1227 1239 1392 c 1
 1419 1392 l 1
 1392 1253 1350 1151 1293 1084 c 0
 1237 1018 1180 970 1123 940 c 1
 1166 905 1184 853 1184 790 c 0
 1184 764 1181 737 1176 709 c 2
 1076 196 l 2
 1051 65 942 0 750 0 c 2
 351 0 l 1
 439 452 l 2
 455 535 498 607 542 658 c 1
 611 735 l 2
 657 785 717 864 717 950 c 0
 717 1024 672 1085 595 1085 c 1
 628 1071 649 1044 649 994 c 0
 649 875 555 761 424 761 c 0
 329 761 263 819 263 912 c 0
444 867 m 0
 491 867 533 912 533 957 c 0
 533 991 508 1016 470 1016 c 0
 418 1016 378 966 378 927 c 0
 378 892 405 867 444 867 c 0
EndSplineSet
Validated: 1
Layer: 2
SplineSet
263 912 m 0,0,1
 263 965 263 965 290 1019.5 c 128,-1,2
 317 1074 317 1074 363.5 1118.5 c 128,-1,3
 410 1163 410 1163 478.5 1191.5 c 128,-1,4
 547 1220 547 1220 623 1220 c 0,5,6
 760 1220 760 1220 830.5 1144.5 c 128,-1,7
 901 1069 901 1069 901 966 c 0,8,9
 901 854 901 854 795 716 c 2,10,-1
 725 623 l 2,11,12
 639 509 639 509 618 402 c 2,13,-1
 570 154 l 1,14,-1
 785 154 l 2,15,16
 886 154 886 154 906 258 c 2,17,-1
 994 709 l 2,18,19
 1000 742 1000 742 1000 771 c 0,20,21
 1000 856 1000 856 945 898 c 1,22,-1
 969 1024 l 1,23,24
 1176 1070 1176 1070 1239 1392 c 1,25,-1
 1419 1392 l 1,26,27
 1379 1185 1379 1185 1293 1084 c 0,28,29
 1209 985 1209 985 1123 940 c 1,30,31
 1184 890 1184 890 1184 790 c 0,32,33
 1184 754 1184 754 1176 709 c 2,34,-1
 1076 196 l 2,35,36
 1039 0 1039 0 750 0 c 2,37,-1
 351 0 l 1,38,-1
 439 452 l 2,39,40
 461 564 461 564 542 658 c 2,41,-1
 611 735 l 2,42,43
 717 850 717 850 717 950 c 0,44,45
 717 1008 717 1008 684 1046.5 c 128,-1,46
 651 1085 651 1085 595 1085 c 1,47,48
 649 1062 649 1062 649 994 c 0,49,50
 649 902 649 902 584.5 831.5 c 128,-1,51
 520 761 520 761 424 761 c 0,52,53
 352 761 352 761 307.5 802 c 128,-1,54
 263 843 263 843 263 912 c 0,0,1
444 867 m 0,55,56
 479 867 479 867 506 895 c 128,-1,57
 533 923 533 923 533 957 c 0,58,59
 533 983 533 983 515.5 999.5 c 128,-1,60
 498 1016 498 1016 470 1016 c 0,61,62
 433 1016 433 1016 405.5 987 c 128,-1,63
 378 958 378 958 378 927 c 0,64,65
 378 901 378 901 396.5 884 c 128,-1,66
 415 867 415 867 444 867 c 0,55,56
EndSplineSet
EndChar

StartChar: uni0E0B
Encoding: 3595 3595 134
Width: 1370
Flags: W
HStem: 0 154<674 990.422> 637 108<381.945 519.554> 894 107<423.696 532.06> 1206 20G<474.5 595.343 758.419 869.5>
VStem: 250 129<748.442 876.703> 534 113<760.885 892.137> 836 177<822.004 1079.62> 1109 185<511.664 873.878> 1347 180<1229.42 1382>
DStem2: 454 0 644.065 0 0.190809 0.981627<193.149 639.525> 967.85 0 1149.9 0 0.190809 0.981627<164.526 759.472>
LayerCount: 3
Fore
SplineSet
647 855 m 0
 647 729 516 637 416 637 c 0
 368 637 250 658 250 822 c 0
 250 1016 385 1180 564 1226 c 1
 669 1159 l 1
 801 1221 l 1
 938 1195 1013 1082 1013 960 c 0
 1013 910 1003 828 904 711 c 1
 831 623 l 1
 793 574 740 494 723 408 c 2
 674 154 l 1
 892 154 l 2
 963 154 1005 189 1018 258 c 2
 1104 699 l 2
 1107 715 1109 731 1109 747 c 0
 1109 799 1090 846 1054 888 c 1
 1078 1014 l 1
 1246 1052 1314 1213 1347 1382 c 1
 1527 1382 l 1
 1515 1320 1485 1173 1403 1074 c 1
 1346 1008 1290 960 1233 930 c 1
 1273 897 1294 845 1294 777 c 0
 1294 753 1292 727 1286 699 c 2
 1188 196 l 2
 1163 65 1054 0 862 0 c 10
 454 0 l 17
 543 458 l 2
 559 538 601 608 650 659 c 2
 720 730 l 2
 778 788 836 873 836 969 c 0
 836 1023 815 1066 783 1086 c 1
 639 1026 l 1
 521 1088 l 1
 469 1065 437 1032 423 987 c 1
 423 987 494 1001 499 1001 c 0
 607 1001 647 927 647 855 c 0
445 745 m 0
 491 745 534 789 534 835 c 0
 534 865 512 894 475 894 c 0
 420 894 379 845 379 805 c 0
 379 780 394 745 445 745 c 0
EndSplineSet
Validated: 1
Layer: 2
SplineSet
647 855 m 0,0,1
 647 766 647 766 572 701.5 c 128,-1,2
 497 637 497 637 416 637 c 0,3,4
 393 637 393 637 369 643.5 c 128,-1,5
 345 650 345 650 316 667.5 c 128,-1,6
 287 685 287 685 268.5 725 c 128,-1,7
 250 765 250 765 250 822 c 0,8,9
 250 966 250 966 339 1078.5 c 128,-1,10
 428 1191 428 1191 564 1226 c 1,11,-1
 669 1159 l 1,12,-1
 801 1221 l 1,13,14
 900 1202 900 1202 956.5 1128.5 c 128,-1,15
 1013 1055 1013 1055 1013 960 c 0,16,17
 1013 840 1013 840 904 711 c 2,18,-1
 831 623 l 1,19,20
 743 510 743 510 723 408 c 2,21,-1
 674 154 l 1,22,-1
 892 154 l 2,23,24
 998 154 998 154 1018 258 c 2,25,-1
 1104 699 l 2,26,27
 1109 726 1109 726 1109 747 c 0,28,29
 1109 824 1109 824 1054 888 c 1,30,-1
 1078 1014 l 1,31,32
 1139 1028 1139 1028 1186 1063 c 128,-1,33
 1233 1098 1233 1098 1264 1150 c 128,-1,34
 1295 1202 1295 1202 1314.5 1257.5 c 128,-1,35
 1334 1313 1334 1313 1347 1382 c 1,36,-1
 1527 1382 l 1,37,38
 1487 1175 1487 1175 1403 1074 c 0,39,40
 1317 974 1317 974 1233 930 c 1,41,42
 1294 880 1294 880 1294 777 c 0,43,44
 1294 736 1294 736 1286 699 c 2,45,-1
 1188 196 l 2,46,47
 1151 0 1151 0 862 0 c 2,48,-1
 454 0 l 1,49,-1
 543 458 l 2,50,51
 566 571 566 571 650 659 c 2,52,-1
 720 730 l 2,53,54
 836 846 836 846 836 969 c 0,55,56
 836 1053 836 1053 783 1086 c 1,57,-1
 639 1026 l 1,58,-1
 521 1088 l 1,59,60
 444 1054 444 1054 423 987 c 1,61,62
 494 1001 494 1001 499 1001 c 0,63,64
 574 1001 574 1001 610.5 958.5 c 128,-1,65
 647 916 647 916 647 855 c 0,0,1
445 745 m 0,66,67
 479 745 479 745 506.5 772.5 c 128,-1,68
 534 800 534 800 534 835 c 0,69,70
 534 859 534 859 518 876.5 c 128,-1,71
 502 894 502 894 475 894 c 0,72,73
 436 894 436 894 407.5 865.5 c 128,-1,74
 379 837 379 837 379 805 c 0,75,76
 379 782 379 782 394.5 763.5 c 128,-1,77
 410 745 410 745 445 745 c 0,66,67
EndSplineSet
EndChar

StartChar: uni0E0C
Encoding: 3596 3596 135
Width: 1800
Flags: W
HStem: -10 132<398.888 529.016 912.375 1054.72> 261 133<452.022 539.6 927.851 1031> 1072 160<621.835 1026.36> 1183 20G<1660.11 1846>
VStem: 230 165<125.445 245.293> 542 133<136.395 264.14> 772 139<114.797 246.254> 1066 131<128.486 250.717> 1109 188<593.422 990.97>
DStem2: 952.276 -11 1134.41 -11 0.190809 0.981627<433.437 870.574> 1427.88 -11 1609.86 -11 0.190809 0.981627<231.249 1236.75>
LayerCount: 3
Fore
SplineSet
772 138 m 0xdf
 772 260 879 394 1021 394 c 2
 1031 394 l 1
 1098 740 l 2
 1105 777 1109 813 1109 847 c 0
 1109 975 1048 1072 850 1072 c 0
 706 1072 564 1015 466 950 c 1
 694 836 l 1
 665 688 l 1
 596 663 490 599 464 464 c 2
 451 395 l 2
 452 397 471 398 506 398 c 0
 606 398 675 328 675 234 c 0
 675 111 561 -10 427 -10 c 0
 286 -10 230 81 230 183 c 0
 230 202 231 220 235 239 c 2
 279 465 l 2
 299 566 382 702 511 760 c 1
 293 862 l 1
 330 1056 l 17
 385 1095 575 1232 892 1232 c 0
 1076 1232 1297 1158 1297 881 c 0xee80
 1297 843 1293 802 1284 756 c 2
 1211 383 l 1
 1313 362 1400 306 1472 216 c 1
 1664 1203 l 1
 1846 1203 l 1
 1612 0 l 17
 1431 0 l 1
 1362 138 1283 222 1196 251 c 1
 1196 246 1197 241 1197 237 c 0
 1197 110 1099 -11 940 -11 c 0
 822 -11 772 57 772 138 c 0xdf
483 266 m 0
 435 266 395 223 395 179 c 0
 395 144 422 122 455 122 c 0
 502 122 542 164 542 208 c 0
 542 243 517 266 483 266 c 0
974 112 m 8
 1015 112 1066 155 1066 201 c 0xcf
 1066 234 1043 261 1004 261 c 8
 959 261 911 224 911 171 c 0
 911 135 937 112 974 112 c 8
EndSplineSet
Validated: 1
Layer: 2
SplineSet
772 138 m 0,0,1
 772 234 772 234 845 314 c 128,-1,2
 918 394 918 394 1021 394 c 2,3,-1
 1031 394 l 1,4,-1
 1098 740 l 2,5,6
 1109 798 1109 798 1109 847 c 0,7,8
 1109 1072 1109 1072 850 1072 c 0,9,10
 748 1072 748 1072 647 1037.5 c 128,-1,11
 546 1003 546 1003 466 950 c 1,12,-1
 694 836 l 1,13,-1
 665 688 l 1,14,15
 636 677 636 677 607.5 660.5 c 128,-1,16
 579 644 579 644 549 618 c 128,-1,17
 519 592 519 592 496 552 c 128,-1,18
 473 512 473 512 464 464 c 2,19,-1
 451 395 l 2,20,21
 452 398 452 398 506 398 c 0,22,23
 580 398 580 398 627.5 351.5 c 128,-1,24
 675 305 675 305 675 234 c 0,25,26
 675 140 675 140 600.5 65 c 128,-1,27
 526 -10 526 -10 427 -10 c 128,-1,28
 328 -10 328 -10 279 44.5 c 128,-1,29
 230 99 230 99 230 183 c 0,30,31
 230 215 230 215 235 239 c 2,32,-1
 279 465 l 2,33,34
 296 548 296 548 358 633.5 c 128,-1,35
 420 719 420 719 511 760 c 1,36,-1
 293 862 l 1,37,-1
 330 1056 l 1,38,39
 578 1232 578 1232 892 1232 c 0,40,41
 951 1232 951 1232 1005 1222.5 c 128,-1,42
 1059 1213 1059 1213 1113.5 1188 c 128,-1,43
 1168 1163 1168 1163 1207.5 1124.5 c 128,-1,44
 1247 1086 1247 1086 1272 1023.5 c 128,-1,45
 1297 961 1297 961 1297 881 c 0,46,47
 1297 822 1297 822 1284 756 c 2,48,-1
 1211 383 l 1,49,50
 1364 352 1364 352 1472 216 c 1,51,-1
 1664 1203 l 1,52,-1
 1846 1203 l 1,53,-1
 1612 0 l 1,54,-1
 1431 0 l 1,55,56
 1327 207 1327 207 1196 251 c 1,57,58
 1196 248 1196 248 1196.5 243.5 c 128,-1,59
 1197 239 1197 239 1197 237 c 0,60,61
 1197 137 1197 137 1126 63 c 128,-1,62
 1055 -11 1055 -11 940 -11 c 0,63,64
 856 -11 856 -11 814 31 c 128,-1,65
 772 73 772 73 772 138 c 0,0,1
483 266 m 0,66,67
 448 266 448 266 421.5 239.5 c 128,-1,68
 395 213 395 213 395 179 c 0,69,70
 395 153 395 153 412.5 137.5 c 128,-1,71
 430 122 430 122 455 122 c 0,72,73
 490 122 490 122 516 148.5 c 128,-1,74
 542 175 542 175 542 208 c 0,75,76
 542 234 542 234 525.5 250 c 128,-1,77
 509 266 509 266 483 266 c 0,66,67
974 112 m 8,78,79
 1006 112 1006 112 1036 140 c 128,-1,80
 1066 168 1066 168 1066 201 c 0,81,82
 1066 227 1066 227 1049 244 c 128,-1,83
 1032 261 1032 261 1004 261 c 0,84,85
 969 261 969 261 940 235 c 128,-1,86
 911 209 911 209 911 171 c 0,87,88
 911 144 911 144 928.5 128 c 128,-1,89
 946 112 946 112 974 112 c 8,78,79
EndSplineSet
EndChar

StartChar: uni0E0D
Encoding: 3597 3597 136
Width: 1800
Flags: W
HStem: -396 100<1157 1315.35> -138 88<1012.5 1126.89> -10 132<397.888 528.016> 0 156<1136 1463> 266 132<451.022 538.106> 1072 160<623.27 1011.61> 1184 20G<1663.11 1852>
VStem: 229 165<125.445 245.293> 541 133<136.395 264.14> 912 93<-249.205 -145.448> 1080 187<690.339 1001.94> 1128 94<-245.686 -138.326>
DStem2: 846.025 -396 1028.7 -396 0.190809 0.981627<597.188 1277.78> 1355.7 -396 1541.03 -396 0.190809 0.981627<562.332 1630>
LayerCount: 3
Fore
SplineSet
674 234 m 0xdde0
 674 111 560 -10 426 -10 c 0
 285 -10 229 81 229 183 c 0
 229 202 230 220 234 239 c 2
 278 465 l 2
 298 566 381 702 510 760 c 1
 292 862 l 1
 329 1056 l 17
 372 1087 570 1232 881 1232 c 0xede0
 1065 1232 1267 1160 1267 889 c 0
 1267 849 1263 805 1253 756 c 2
 1136 156 l 1
 1463 156 l 1
 1667 1204 l 1
 1852 1204 l 1xdbe0
 1618 0 l 1
 923 0 l 1
 1067 740 l 2
 1075 783 1080 824 1080 862 c 0
 1080 985 1026 1072 850 1072 c 0
 711 1072 561 1014 465 950 c 1
 694 836 l 1
 665 688 l 1
 596 663 489 597 463 464 c 2
 450 395 l 2
 451 397 470 398 505 398 c 0
 605 398 674 328 674 234 c 0xdde0
482 266 m 0
 434 266 394 223 394 179 c 0
 394 144 421 122 454 122 c 0
 501 122 541 164 541 208 c 0
 541 243 516 266 482 266 c 0
1056 -251 m 0
 1103 -251 1128 -215 1128 -184 c 0xc9d0
 1128 -160 1112 -138 1080 -138 c 0
 1024 -138 1005 -185 1005 -208 c 0
 1005 -236 1028 -251 1056 -251 c 0
912 -235 m 0
 912 -124 1007 -50 1096 -50 c 0
 1170 -50 1222 -96 1222 -167 c 0
 1222 -205 1208 -265 1157 -296 c 1
 1164 -296 l 2
 1297 -296 1466 -166 1542 -86 c 1
 1546 -235 l 1
 1453 -310 1295 -396 1148 -396 c 0
 947 -396 912 -301 912 -235 c 0
EndSplineSet
Validated: 1
Layer: 2
SplineSet
674 234 m 0,0,1
 674 140 674 140 599.5 65 c 128,-1,2
 525 -10 525 -10 426 -10 c 128,-1,3
 327 -10 327 -10 278 44.5 c 128,-1,4
 229 99 229 99 229 183 c 0,5,6
 229 215 229 215 234 239 c 2,7,-1
 278 465 l 2,8,9
 295 548 295 548 357 633.5 c 128,-1,10
 419 719 419 719 510 760 c 1,11,-1
 292 862 l 1,12,-1
 329 1056 l 1,13,14
 573 1232 573 1232 881 1232 c 0,15,16
 940 1232 940 1232 992 1222.5 c 128,-1,17
 1044 1213 1044 1213 1096 1189 c 128,-1,18
 1148 1165 1148 1165 1184.5 1127 c 128,-1,19
 1221 1089 1221 1089 1244 1028 c 128,-1,20
 1267 967 1267 967 1267 889 c 0,21,22
 1267 825 1267 825 1253 756 c 2,23,-1
 1136 156 l 1,24,-1
 1463 156 l 1,25,-1
 1667 1204 l 1,26,-1
 1852 1204 l 1,27,-1
 1618 0 l 1,28,-1
 923 0 l 1,29,-1
 1067 740 l 2,30,31
 1080 810 1080 810 1080 862 c 0,32,33
 1080 962 1080 962 1027.5 1017 c 128,-1,34
 975 1072 975 1072 850 1072 c 0,35,36
 751 1072 751 1072 647 1037 c 128,-1,37
 543 1002 543 1002 465 950 c 1,38,-1
 694 836 l 1,39,-1
 665 688 l 1,40,41
 624 673 624 673 587 649 c 128,-1,42
 550 625 550 625 512.5 575.5 c 128,-1,43
 475 526 475 526 463 464 c 2,44,-1
 450 395 l 2,45,46
 452 398 452 398 505 398 c 0,47,48
 579 398 579 398 626.5 351.5 c 128,-1,49
 674 305 674 305 674 234 c 0,0,1
482 266 m 0,50,51
 447 266 447 266 420.5 239.5 c 128,-1,52
 394 213 394 213 394 179 c 0,53,54
 394 153 394 153 411.5 137.5 c 128,-1,55
 429 122 429 122 454 122 c 0,56,57
 489 122 489 122 515 148.5 c 128,-1,58
 541 175 541 175 541 208 c 0,59,60
 541 234 541 234 524.5 250 c 128,-1,61
 508 266 508 266 482 266 c 0,50,51
1056 -251 m 0,62,63
 1089 -251 1089 -251 1108.5 -230.5 c 128,-1,64
 1128 -210 1128 -210 1128 -184 c 0,65,66
 1128 -165 1128 -165 1115.5 -151.5 c 128,-1,67
 1103 -138 1103 -138 1080 -138 c 0,68,69
 1043 -138 1043 -138 1024 -161.5 c 128,-1,70
 1005 -185 1005 -185 1005 -208 c 0,71,72
 1005 -228 1005 -228 1019.5 -239.5 c 128,-1,73
 1034 -251 1034 -251 1056 -251 c 0,62,63
912 -235 m 0,74,75
 912 -155 912 -155 968.5 -102.5 c 128,-1,76
 1025 -50 1025 -50 1096 -50 c 0,77,78
 1152 -50 1152 -50 1187 -82 c 128,-1,79
 1222 -114 1222 -114 1222 -167 c 0,80,81
 1222 -202 1222 -202 1207 -238.5 c 128,-1,82
 1192 -275 1192 -275 1157 -296 c 1,83,-1
 1164 -296 l 2,84,85
 1254 -296 1254 -296 1362.5 -228.5 c 128,-1,86
 1471 -161 1471 -161 1542 -86 c 1,87,-1
 1546 -235 l 1,88,89
 1465 -300 1465 -300 1357 -348 c 128,-1,90
 1249 -396 1249 -396 1148 -396 c 0,91,92
 1090 -396 1090 -396 1046.5 -385.5 c 128,-1,93
 1003 -375 1003 -375 978 -358.5 c 128,-1,94
 953 -342 953 -342 937.5 -319.5 c 128,-1,95
 922 -297 922 -297 917 -277 c 128,-1,96
 912 -257 912 -257 912 -235 c 0,74,75
EndSplineSet
Substitution2: "'ccmp' Pali-Sanskrit Descender Removal" uni0E0D.descless
Substitution2: "Thai Descender Removal Single Substitution" uni0E0D.descless
EndChar

StartChar: uni0E0E
Encoding: 3598 3598 137
Width: 1440
Flags: W
HStem: -410 148<504.106 645.482> -116 139<528.818 699.792> -10 132<238.804 369.922> 266 132<250.708 382.511> 1072 160<727.977 1135.15>
VStem: 103 134<123.827 252.768> 344 160<-261.326 -142.686> 1218 188<593.672 996.686>
DStem2: 246.718 -410 432.948 -410 0.190809 0.981627<819.048 1103.75> 982.459 -410 1166 -410 0.190809 0.981627<228.193 1279.2>
AnchorPoint: "BelowBase" 1156 -478 basechar 0
LayerCount: 3
Fore
SplineSet
633 -116 m 0xdf
 561 -116 504 -164 504 -215 c 0
 504 -245 523 -262 550 -262 c 0
 579 -262 650 -253 701 -133 c 1
 679 -121 656 -116 633 -116 c 0xdf
344 -253 m 0
 344 -125 472 23 657 23 c 0xdf
 699 23 734 18 763 9 c 1
 798 99 l 1
 947 42 l 1
 907 -52 l 1
 945 -81 985 -125 1026 -186 c 1
 1206 740 l 2
 1213 778 1218 814 1218 849 c 0
 1218 977 1156 1072 959 1072 c 0
 816 1072 673 1016 575 950 c 1
 804 836 l 1
 775 688 l 1
 708 661 633 615 611 506 c 2
 559 239 l 2
 534 110 431 -10 271 -10 c 0xbf
 171 -10 103 60 103 154 c 0
 103 283 221 398 350 398 c 0
 384 398 402 397 403 394 c 1
 424 506 l 1
 439 579 489 722 620 760 c 1
 402 862 l 1
 439 1056 l 17
 494 1095 684 1232 1001 1232 c 0
 1185 1232 1406 1158 1406 881 c 0
 1406 843 1402 802 1393 756 c 2
 1166 -410 l 1
 981 -410 l 1
 935 -315 886 -246 837 -201 c 1
 756 -362 635 -410 521 -410 c 0
 398 -410 344 -335 344 -253 c 0
297 122 m 0xbf
 344 122 384 164 384 208 c 0
 384 243 359 266 325 266 c 0
 277 266 237 223 237 179 c 0
 237 144 264 122 297 122 c 0xbf
EndSplineSet
Validated: 1
Layer: 2
SplineSet
633 -116 m 0,0,1
 580 -116 580 -116 542 -146 c 128,-1,2
 504 -176 504 -176 504 -215 c 0,3,4
 504 -237 504 -237 516.5 -249.5 c 128,-1,5
 529 -262 529 -262 550 -262 c 0,6,7
 646 -262 646 -262 701 -133 c 1,8,9
 670 -116 670 -116 633 -116 c 0,0,1
344 -253 m 0,10,11
 344 -151 344 -151 434.5 -64 c 128,-1,12
 525 23 525 23 657 23 c 0,13,14
 718 23 718 23 763 9 c 1,15,-1
 798 99 l 1,16,-1
 947 42 l 1,17,-1
 907 -52 l 1,18,19
 966 -97 966 -97 1026 -186 c 1,20,-1
 1206 740 l 2,21,22
 1218 805 1218 805 1218 849 c 0,23,24
 1218 1072 1218 1072 959 1072 c 0,25,26
 857 1072 857 1072 755.5 1037.5 c 128,-1,27
 654 1003 654 1003 575 950 c 1,28,-1
 804 836 l 1,29,-1
 775 688 l 1,30,31
 636 632 636 632 611 506 c 2,32,-1
 559 239 l 2,33,34
 539 135 539 135 462 62.5 c 128,-1,35
 385 -10 385 -10 271 -10 c 0,36,37
 197 -10 197 -10 150 36.5 c 128,-1,38
 103 83 103 83 103 154 c 0,39,40
 103 250 103 250 178 324 c 128,-1,41
 253 398 253 398 350 398 c 0,42,43
 402 398 402 398 403 394 c 2,44,-1
 424 506 l 2,45,46
 431 539 431 539 443.5 572.5 c 128,-1,47
 456 606 456 606 478 645.5 c 128,-1,48
 500 685 500 685 537 716 c 128,-1,49
 574 747 574 747 620 760 c 1,50,-1
 402 862 l 1,51,-1
 439 1056 l 1,52,53
 687 1232 687 1232 1001 1232 c 0,54,55
 1060 1232 1060 1232 1114 1222.5 c 128,-1,56
 1168 1213 1168 1213 1222.5 1188 c 128,-1,57
 1277 1163 1277 1163 1316.5 1124.5 c 128,-1,58
 1356 1086 1356 1086 1381 1023.5 c 128,-1,59
 1406 961 1406 961 1406 881 c 0,60,61
 1406 822 1406 822 1393 756 c 2,62,-1
 1166 -410 l 1,63,-1
 981 -410 l 1,64,65
 914 -272 914 -272 837 -201 c 1,66,67
 732 -410 732 -410 521 -410 c 0,68,69
 434 -410 434 -410 389 -365 c 128,-1,70
 344 -320 344 -320 344 -253 c 0,10,11
297 122 m 0,71,72
 332 122 332 122 358 148.5 c 128,-1,73
 384 175 384 175 384 208 c 0,74,75
 384 234 384 234 367.5 250 c 128,-1,76
 351 266 351 266 325 266 c 0,77,78
 290 266 290 266 263.5 239.5 c 128,-1,79
 237 213 237 213 237 179 c 0,80,81
 237 153 237 153 254.5 137.5 c 128,-1,82
 272 122 272 122 297 122 c 0,71,72
EndSplineSet
EndChar

StartChar: uni0E0F
Encoding: 3599 3599 138
Width: 1440
Flags: W
HStem: -410 128<418.989 551.986> -132 120<439.215 598.352> -10 132<238.804 369.922> 266 132<250.708 382.511> 1072 160<730.835 1134.94>
VStem: 103 134<123.827 252.768> 276 141<-279.773 -155.28> 1218 188<597.883 996.686>
DStem2: 246.718 -410 432.948 -410 0.190809 0.981627<819.048 1103.75> 981.817 -410 1166 -410 0.190809 0.981627<184.388 1279.32>
AnchorPoint: "BelowBase" 1156 -478 basechar 0
LayerCount: 3
Fore
SplineSet
297 122 m 0
 344 122 384 164 384 208 c 0
 384 243 359 266 325 266 c 0
 277 266 237 223 237 179 c 0
 237 144 264 122 297 122 c 0
276 -267 m 0
 276 -175 364 -12 559 -12 c 0
 596 -12 625 -19 649 -32 c 1
 678 49 l 1
 800 33 l 1
 751 -87 l 1
 789 -113 814 -159 826 -224 c 1
 908 -104 l 1
 982 -104 l 1
 1017 -229 l 1
 1206 740 l 2
 1213 778 1218 814 1218 849 c 0
 1218 977 1156 1072 959 1072 c 0
 815 1072 673 1015 575 950 c 1
 804 836 l 1
 775 688 l 1
 708 661 633 615 611 506 c 2
 559 239 l 2
 534 110 431 -10 271 -10 c 0
 171 -10 103 60 103 154 c 0
 103 283 221 398 350 398 c 0
 384 398 402 397 403 394 c 1
 424 506 l 1
 439 579 489 722 620 760 c 1
 402 862 l 1
 439 1056 l 17
 494 1095 684 1232 1001 1232 c 0
 1184 1232 1406 1158 1406 881 c 0
 1406 843 1402 802 1393 756 c 10
 1166 -410 l 17
 960 -410 l 1
 916 -271 l 1
 824 -410 l 1
 730 -410 l 1
 731 -395 732 -381 732 -367 c 0
 732 -310 720 -261 697 -221 c 1
 642 -358 534 -410 454 -410 c 0
 330 -410 276 -346 276 -267 c 0
527 -132 m 0
 462 -132 417 -189 417 -236 c 0
 417 -273 445 -282 472 -282 c 0
 536 -282 575 -214 599 -155 c 1
 574 -139 549 -132 527 -132 c 0
EndSplineSet
Validated: 1
Layer: 2
SplineSet
297 122 m 0,0,1
 332 122 332 122 358 148.5 c 128,-1,2
 384 175 384 175 384 208 c 0,3,4
 384 234 384 234 367.5 250 c 128,-1,5
 351 266 351 266 325 266 c 0,6,7
 290 266 290 266 263.5 239.5 c 128,-1,8
 237 213 237 213 237 179 c 0,9,10
 237 153 237 153 254.5 137.5 c 128,-1,11
 272 122 272 122 297 122 c 0,0,1
276 -267 m 0,12,13
 276 -230 276 -230 293.5 -188 c 128,-1,14
 311 -146 311 -146 343.5 -105.5 c 128,-1,15
 376 -65 376 -65 433 -38.5 c 128,-1,16
 490 -12 490 -12 559 -12 c 0,17,18
 612 -12 612 -12 649 -32 c 1,19,-1
 678 49 l 1,20,-1
 800 33 l 1,21,-1
 751 -87 l 1,22,23
 808 -126 808 -126 826 -224 c 1,24,-1
 908 -104 l 1,25,-1
 982 -104 l 1,26,-1
 1017 -229 l 1,27,-1
 1206 740 l 2,28,29
 1218 805 1218 805 1218 849 c 0,30,31
 1218 1072 1218 1072 959 1072 c 0,32,33
 857 1072 857 1072 756 1037.5 c 128,-1,34
 655 1003 655 1003 575 950 c 1,35,-1
 804 836 l 1,36,-1
 775 688 l 1,37,38
 636 632 636 632 611 506 c 2,39,-1
 559 239 l 2,40,41
 539 135 539 135 462 62.5 c 128,-1,42
 385 -10 385 -10 271 -10 c 0,43,44
 197 -10 197 -10 150 36.5 c 128,-1,45
 103 83 103 83 103 154 c 0,46,47
 103 250 103 250 178 324 c 128,-1,48
 253 398 253 398 350 398 c 0,49,50
 402 398 402 398 403 394 c 2,51,-1
 424 506 l 2,52,53
 431 539 431 539 443.5 572.5 c 128,-1,54
 456 606 456 606 478 645.5 c 128,-1,55
 500 685 500 685 537 716 c 128,-1,56
 574 747 574 747 620 760 c 1,57,-1
 402 862 l 1,58,-1
 439 1056 l 1,59,60
 687 1232 687 1232 1001 1232 c 0,61,62
 1060 1232 1060 1232 1114 1222.5 c 128,-1,63
 1168 1213 1168 1213 1222.5 1188 c 128,-1,64
 1277 1163 1277 1163 1316.5 1124.5 c 128,-1,65
 1356 1086 1356 1086 1381 1023.5 c 128,-1,66
 1406 961 1406 961 1406 881 c 0,67,68
 1406 822 1406 822 1393 756 c 2,69,-1
 1166 -410 l 1,70,-1
 960 -410 l 1,71,-1
 916 -271 l 1,72,-1
 824 -410 l 1,73,-1
 730 -410 l 1,74,75
 732 -380 732 -380 732 -367 c 0,76,77
 732 -282 732 -282 697 -221 c 1,78,79
 659 -316 659 -316 590.5 -363 c 128,-1,80
 522 -410 522 -410 454 -410 c 0,81,82
 365 -410 365 -410 320.5 -370 c 128,-1,83
 276 -330 276 -330 276 -267 c 0,12,13
527 -132 m 0,84,85
 481 -132 481 -132 449 -165 c 128,-1,86
 417 -198 417 -198 417 -236 c 0,87,88
 417 -282 417 -282 472 -282 c 0,89,90
 547 -282 547 -282 599 -155 c 1,91,92
 563 -132 563 -132 527 -132 c 0,84,85
EndSplineSet
EndChar

